<svg width="360" height="189" viewBox="0 0 360 189" fill="none" xmlns="http://www.w3.org/2000/svg">
<path d="M47.676 46.0784C-34.7888 49.1074 -33.7886 91.3872 -122.712 108.163L-43.6533 320.317L194.069 363.087L477.477 352.677L620.889 310.623C634.537 243.683 645.871 112.528 582.028 123.435C502.224 137.068 444.016 71.6517 381.114 45.2015C318.212 18.7514 293.879 73.848 212.188 76.8486C139.732 79.5099 109.89 43.7933 47.676 46.0784Z" fill="#F24998" fill-opacity="0.4"/>
<path d="M-192.312 40.4198V383.427C-18.1397 385.951 331.749 391 337.921 391C344.093 391 423.721 346.938 462.764 324.908L448.035 85.3224C433.541 77.0608 376.727 40 297.062 40C209.4 40 160.081 70.8647 101.56 70.8647C16.4725 70.8647 -21.0009 17.4152 -67.2911 2.9575C-104.323 -8.60868 -172.671 15.8176 -192.312 40.4198Z" fill="#F24998" fill-opacity="0.15"/>
<path d="M-12.036 85.094C-53.8408 77.6403 -66.9258 105.137 -71.6355 123.024L-215.78 344.514L-159.944 435.508L167.195 625.057L404.066 225.134C403.928 216.206 369.656 159.698 324.079 170.966C307.956 127.107 248.858 98.053 197.614 94.8185C146.371 91.584 133.2 118.818 91.4408 116.182C29.3265 112.261 29.7687 92.5477 -12.036 85.094Z" fill="#E20B6F" fill-opacity="0.24"/>
<path d="M137.87 118.73C74.621 118.73 35.6866 55.7605 -54.6754 82.9027L-88 196.117L-54.6754 378.869H466.276C468.996 375.973 472.805 210.688 466.276 172.723C422.75 90.5102 386.681 60.6021 308.793 68.1174C251.793 73.6172 201.118 118.73 137.87 118.73Z" fill="url(#paint0_linear_5765_4232)"/>
<defs>
<linearGradient id="paint0_linear_5765_4232" x1="316.529" y1="485.117" x2="365.813" y2="71.2018" gradientUnits="userSpaceOnUse">
<stop offset="0.19123" stop-color="#1D1D1D"/>
<stop offset="1" stop-color="#FF47A1"/>
</linearGradient>
</defs>
</svg>
