<svg width="360" height="509" viewBox="0 0 360 509" fill="none" xmlns="http://www.w3.org/2000/svg">
<path d="M363.435 438.542C430.086 427.197 421.794 361.223 418.656 331.595L507.928 -81.7471L372.832 -189.278L-223.344 -299.147L-186.425 328.036C-190.339 323.293 -193.978 318.919 -197.308 315C-219.846 286.201 -178.306 389.676 -183.587 376.235L-186.425 328.036C-132.739 393.087 -27.3902 527.431 40.1919 506C112.701 483.006 130.422 459.344 179.08 430.23C263.108 379.951 296.785 449.888 363.435 438.542Z" fill="black"/>
<path d="M363.435 438.542C430.086 427.197 421.794 361.223 418.656 331.595L507.928 -81.7471L372.832 -189.278L-223.344 -299.147L-186.425 328.036C-190.339 323.293 -193.978 318.919 -197.308 315C-219.846 286.201 -178.306 389.676 -183.587 376.235L-186.425 328.036C-132.739 393.087 -27.3902 527.431 40.1919 506C112.701 483.006 130.422 459.344 179.08 430.23C263.108 379.951 296.785 449.888 363.435 438.542Z" fill="url(#paint0_linear_4024_26269)"/>
<defs>
<linearGradient id="paint0_linear_4024_26269" x1="37.446" y1="31" x2="37.446" y2="646.5" gradientUnits="userSpaceOnUse">
<stop stop-color="#1D1D1D"/>
<stop offset="1" stop-color="#F24998"/>
</linearGradient>
</defs>
</svg>
