<svg width="180" height="180" viewBox="0 0 180 180" fill="none" xmlns="http://www.w3.org/2000/svg">
<ellipse opacity="0.1" cx="89.999" cy="174.6" rx="90" ry="5.4" fill="#FF47A1"/>
<path fill-rule="evenodd" clip-rule="evenodd" d="M25.199 35.3424C25.199 32.7233 27.3222 30.6001 29.9412 30.6001C32.5603 30.6001 34.6835 32.7233 34.6835 35.3424V45.098C34.6835 47.7171 32.5603 49.8403 29.9412 49.8403C27.3222 49.8403 25.199 47.7171 25.199 45.098V35.3424ZM29.9412 34.2001C29.3104 34.2001 28.799 34.7115 28.799 35.3424V45.098C28.799 45.7289 29.3104 46.2403 29.9412 46.2403C30.5721 46.2403 31.0835 45.7289 31.0835 45.098V35.3424C31.0835 34.7115 30.5721 34.2001 29.9412 34.2001ZM46.799 54.0001C46.799 49.0295 50.8284 45.0001 55.799 45.0001H115.695C113.121 48.0643 111.263 51.7502 110.379 55.8001H46.799V54.0001ZM109.862 59.4001H39.599C34.6284 59.4001 30.599 63.4295 30.599 68.4001V77.4001L115.695 77.4001C112.015 73.0197 109.799 67.3688 109.799 61.2001C109.799 60.5949 109.82 59.9946 109.862 59.4001ZM138.599 86.1449V122.4H142.199C147.17 122.4 151.199 118.371 151.199 113.4V80.5037C147.687 83.4545 143.357 85.4643 138.599 86.1449ZM154.799 76.7903V113.4C154.799 120.359 149.158 126 142.199 126H138.599V127.8C138.599 134.759 132.958 140.4 125.999 140.4H39.599C32.6402 140.4 26.999 134.759 26.999 127.8V68.4001C26.999 61.4413 32.6402 55.8001 39.599 55.8001H43.199V54.0001C43.199 47.0413 48.8402 41.4001 55.799 41.4001H118.799V41.8965C123.179 38.2165 128.83 36.0001 134.999 36.0001C148.917 36.0001 160.199 47.2825 160.199 61.2001C160.199 67.0862 158.181 72.501 154.799 76.7903ZM30.599 88.2001L134.999 88.2001V122.4V126V127.8C134.999 132.771 130.97 136.8 125.999 136.8H39.599C34.6284 136.8 30.599 132.771 30.599 127.8V88.2001ZM150.541 131.4C147.922 131.4 145.799 133.523 145.799 136.142V145.898C145.799 148.517 147.922 150.64 150.541 150.64C153.16 150.64 155.283 148.517 155.283 145.898V136.142C155.283 133.523 153.16 131.4 150.541 131.4ZM149.399 136.142C149.399 135.512 149.91 135 150.541 135C151.172 135 151.683 135.512 151.683 136.142V145.898C151.683 146.529 151.172 147.04 150.541 147.04C149.91 147.04 149.399 146.529 149.399 145.898V136.142ZM113.399 61.2001C113.399 49.2707 123.07 39.6001 134.999 39.6001C146.928 39.6001 156.599 49.2707 156.599 61.2001C156.599 73.1294 146.928 82.8001 134.999 82.8001C123.07 82.8001 113.399 73.1294 113.399 61.2001ZM130.499 49.5001C130.499 47.0148 132.514 45.0001 134.999 45.0001C137.484 45.0001 139.499 47.0148 139.499 49.5001V60.3001C139.499 62.7854 137.484 64.8001 134.999 64.8001C132.514 64.8001 130.499 62.7854 130.499 60.3001V49.5001ZM134.999 48.6001C134.502 48.6001 134.099 49.003 134.099 49.5001V60.3001C134.099 60.7972 134.502 61.2001 134.999 61.2001C135.496 61.2001 135.899 60.7972 135.899 60.3001V49.5001C135.899 49.003 135.496 48.6001 134.999 48.6001ZM134.999 77.4001C132.514 77.4001 130.499 75.3854 130.499 72.9001C130.499 70.4148 132.514 68.4001 134.999 68.4001C137.484 68.4001 139.499 70.4148 139.499 72.9001C139.499 75.3854 137.484 77.4001 134.999 77.4001ZM134.099 72.9001C134.099 73.3972 134.502 73.8001 134.999 73.8001C135.496 73.8001 135.899 73.3972 135.899 72.9001C135.899 72.403 135.496 72.0001 134.999 72.0001C134.502 72.0001 134.099 72.403 134.099 72.9001ZM72.899 104.4C70.4137 104.4 68.399 106.415 68.399 108.9C68.399 111.385 70.4137 113.4 72.899 113.4H121.499C123.984 113.4 125.999 111.385 125.999 108.9C125.999 106.415 123.984 104.4 121.499 104.4H72.899ZM71.999 108.9C71.999 108.403 72.4019 108 72.899 108H121.499C121.996 108 122.399 108.403 122.399 108.9C122.399 109.397 121.996 109.8 121.499 109.8H72.899C72.4019 109.8 71.999 109.397 71.999 108.9ZM49.499 117C53.9725 117 57.599 113.374 57.599 108.9C57.599 104.427 53.9725 100.8 49.499 100.8C45.0255 100.8 41.399 104.427 41.399 108.9C41.399 113.374 45.0255 117 49.499 117Z" fill="#FF47A1"/>
</svg>
