<svg width="180" height="180" viewBox="0 0 180 180" fill="none" xmlns="http://www.w3.org/2000/svg">
<path opacity="0.1" d="M90 180C139.706 180 180 177.583 180 174.6C180 171.618 139.706 169.2 90 169.2C40.2944 169.2 0 171.618 0 174.6C0 177.583 40.2944 180 90 180Z" fill="#FF47A1"/>
<path d="M114 54.0005V74.4005C114 76.9005 111.9 79.0005 109.4 79.0005C106.9 79.0005 104.8 76.9005 104.8 74.4005V54.0005C104.8 45.8005 98.2 39.2005 90 39.2005C81.8 39.2005 75.2 45.8005 75.2 54.0005V74.4005C75.2 76.9005 73.1 79.0005 70.6 79.0005C68.1 79.0005 66 76.9005 66 74.4005V54.0005C66 40.8005 76.7 30.0005 90 30.0005C103.3 30.0005 114 40.7005 114 54.0005Z" fill="#FF47A1"/>
<path d="M52.3951 71.3135C52.6486 68.1989 55.2503 65.8003 58.3753 65.8003H121.625C124.75 65.8003 127.351 68.1989 127.605 71.3135L133.303 141.314C133.587 144.808 130.828 147.8 127.322 147.8H52.6776C49.172 147.8 46.413 144.808 46.6974 141.314L52.3951 71.3135Z" stroke="#FF47A1" stroke-width="4"/>
<path d="M47.5554 133.3L49.4501 115.3H130.526L131.473 133.3H47.5554Z" fill="#FF47A1" stroke="#FF47A1"/>
<path fill-rule="evenodd" clip-rule="evenodd" d="M45.7999 48.7008C47.3999 50.8008 50.2999 51.3008 52.3999 49.7008C54.4999 48.1008 54.9999 45.2008 53.3999 43.1008L47.5999 35.2008C45.9999 33.1008 43.0999 32.6008 40.9999 34.2008C38.8999 35.8008 38.3999 38.7008 39.9999 40.8008L45.7999 48.7008ZM42.8999 38.7008C42.4999 38.2008 42.5999 37.5008 43.0999 37.1008C43.5999 36.7008 44.2999 36.8008 44.6999 37.3008L50.4999 45.2008C50.8999 45.7008 50.7999 46.4008 50.2999 46.8008C49.7999 47.2008 49.0999 47.1008 48.6999 46.6008L42.8999 38.7008Z" fill="#FF47A1"/>
<path fill-rule="evenodd" clip-rule="evenodd" d="M30.6999 58.6009L39.9999 61.6009C42.4999 62.4009 45.1999 61.0009 45.9999 58.5009C46.7999 56.0009 45.3999 53.3009 42.8999 52.5009L33.5999 49.5009C31.0999 48.7009 28.3999 50.1009 27.5999 52.6009C26.8999 55.1009 28.1999 57.8009 30.6999 58.6009ZM31.0999 53.7009C31.2999 53.1009 31.8999 52.8009 32.4999 53.0009L41.7999 56.0009C42.3999 56.2009 42.6999 56.8009 42.4999 57.4009C42.2999 58.0009 41.6999 58.3009 41.0999 58.1009L31.7999 55.1009C31.1999 55.0009 30.8999 54.3009 31.0999 53.7009Z" fill="#FF47A1"/>
</svg>
