
<svg width="80" height="80" viewBox="0 0 80 80" fill="none" xmlns="http://www.w3.org/2000/svg">
<circle cx="40" cy="40" r="40" fill="#F467A9" fill-opacity="0.1"/>
<path fill-rule="evenodd" clip-rule="evenodd" d="M20.4688 19C20.4688 16.5147 22.4415 14.5 24.875 14.5H45.4064C45.551 14.5 45.695 14.5073 45.8377 14.5216V24.5915C45.8377 26.2484 47.1528 27.5915 48.7752 27.5915H57.9219V46.2416C57.2121 46.0834 56.475 46 55.7188 46C50.0406 46 45.4375 50.701 45.4375 56.5C45.4375 58.2167 45.8409 59.8371 46.5561 61.2679H24.875C22.4415 61.2679 20.4688 59.2531 20.4688 56.7679V19ZM47.4694 62.7679H24.875C21.6303 62.7679 19 60.0816 19 56.7679V19C19 15.6863 21.6303 13 24.875 13H45.4064C46.9645 13 48.4589 13.6321 49.5607 14.7574L57.6699 23.0391C58.7717 24.1643 59.3906 25.6905 59.3906 27.2818V27.5382L59.3908 27.5915L59.3906 46.6894C63.2555 48.1991 66 52.0222 66 56.5C66 62.299 61.3969 67 55.7188 67C52.341 67 49.3437 65.3365 47.4694 62.7679ZM27.0781 38.125C27.0781 37.0895 27.9001 36.25 28.9141 36.25H39.9297C40.9436 36.25 41.7656 37.0895 41.7656 38.125C41.7656 39.1605 40.9436 40 39.9297 40H28.9141C27.9001 40 27.0781 39.1605 27.0781 38.125ZM28.9141 37.75C28.7113 37.75 28.5469 37.9179 28.5469 38.125C28.5469 38.3321 28.7113 38.5 28.9141 38.5H39.9297C40.1325 38.5 40.2969 38.3321 40.2969 38.125C40.2969 37.9179 40.1325 37.75 39.9297 37.75H28.9141ZM28.9141 42.25C27.9001 42.25 27.0781 43.0895 27.0781 44.125C27.0781 45.1605 27.9001 46 28.9141 46H49.4766C50.4905 46 51.3125 45.1605 51.3125 44.125C51.3125 43.0895 50.4905 42.25 49.4766 42.25H28.9141ZM28.5469 44.125C28.5469 43.9179 28.7113 43.75 28.9141 43.75H49.4766C49.6794 43.75 49.8438 43.9179 49.8438 44.125C49.8438 44.3321 49.6794 44.5 49.4766 44.5H28.9141C28.7113 44.5 28.5469 44.3321 28.5469 44.125ZM61.6537 19.1693C61.1715 18.4703 60.3032 18.1685 59.5037 18.4219C58.2523 18.8184 57.7431 20.346 58.4977 21.4399L60.0982 23.76C60.5942 24.4791 60.8627 25.3361 60.8675 26.2157L60.8831 29.0669C60.8891 30.1575 61.7589 31.037 62.8268 31.0322C63.8959 31.0274 64.7586 30.138 64.7534 29.0461L64.7384 25.9493C64.7311 24.4361 64.2697 22.9617 63.4164 21.7247L61.6537 19.1693ZM59.9389 19.8545C60.1301 19.7939 60.3377 19.8661 60.453 20.0332L62.2157 22.5886C62.896 23.5748 63.2639 24.7503 63.2697 25.9567L63.2846 29.0535C63.2859 29.3167 63.078 29.5311 62.8203 29.5322C62.5629 29.5334 62.3533 29.3214 62.3518 29.0586L62.3362 26.2073C62.3297 25.0213 61.9677 23.8658 61.2989 22.8962L59.6985 20.576C59.518 20.3145 59.6398 19.9493 59.9389 19.8545ZM46.9063 56.5C46.9063 51.5294 50.8517 47.5 55.7188 47.5C60.5858 47.5 64.5313 51.5294 64.5313 56.5C64.5313 61.4706 60.5858 65.5 55.7188 65.5C50.8517 65.5 46.9063 61.4706 46.9063 56.5Z" fill="#EFA0B0"/>
<path d="M26.9149 19.4166H29.2208C29.823 19.4166 30.293 19.5716 30.6308 19.8816C30.9735 20.1916 31.1449 20.6366 31.1449 21.2166C31.1449 21.6066 31.0617 21.9391 30.8952 22.2141C30.7287 22.4891 30.4937 22.6941 30.1902 22.8291L31.1008 24.6591H29.7643L28.9491 23.0166H28.2147V24.6591H26.9149V19.4166ZM28.9932 21.8991C29.2527 21.8991 29.4534 21.8491 29.5954 21.7491C29.7373 21.6441 29.8083 21.4666 29.8083 21.2166C29.8083 20.9566 29.7373 20.7791 29.5954 20.6841C29.4583 20.5841 29.2575 20.5341 28.9932 20.5341H28.2147V21.8991H28.9932ZM31.6625 21.0591H32.9109V21.4191C33.239 21.1041 33.6551 20.9466 34.1594 20.9466C34.5266 20.9466 34.8521 21.0266 35.1361 21.1866C35.4201 21.3416 35.6404 21.5641 35.797 21.8541C35.9537 22.1391 36.032 22.4716 36.032 22.8516C36.032 23.2266 35.9537 23.5616 35.797 23.8566C35.6404 24.1466 35.4201 24.3716 35.1361 24.5316C34.857 24.6916 34.5315 24.7716 34.1594 24.7716C33.9244 24.7716 33.6992 24.7341 33.4838 24.6591C33.2732 24.5891 33.097 24.4916 32.955 24.3666V26.3016H31.6625V21.0591ZM33.8216 23.7441C34.0859 23.7441 34.2989 23.6641 34.4605 23.5041C34.622 23.3441 34.7028 23.1266 34.7028 22.8516C34.7028 22.5766 34.622 22.3616 34.4605 22.2066C34.2989 22.0466 34.0859 21.9666 33.8216 21.9666C33.6257 21.9666 33.4495 22.0191 33.2928 22.1241C33.1362 22.2241 33.0236 22.3616 32.955 22.5366V23.1741C33.0236 23.3491 33.1362 23.4891 33.2928 23.5941C33.4495 23.6941 33.6257 23.7441 33.8216 23.7441Z" fill="#EFA0B0"/>
<path d="M54.6 58.4894L52.45 56.3394C52.2667 56.1561 52.0333 56.0644 51.75 56.0644C51.4667 56.0644 51.2333 56.1561 51.05 56.3394C50.8667 56.5228 50.775 56.7561 50.775 57.0394C50.775 57.3228 50.8667 57.5561 51.05 57.7394L53.9 60.5894C54.1 60.7894 54.3333 60.8894 54.6 60.8894C54.8667 60.8894 55.1 60.7894 55.3 60.5894L60.95 54.9394C61.1333 54.7561 61.225 54.5228 61.225 54.2394C61.225 53.9561 61.1333 53.7228 60.95 53.5394C60.7667 53.3561 60.5333 53.2644 60.25 53.2644C59.9667 53.2644 59.7333 53.3561 59.55 53.5394L54.6 58.4894ZM56 66.6894C54.6167 66.6894 53.3167 66.4269 52.1 65.9019C50.8833 65.3769 49.825 64.6644 48.925 63.7644C48.025 62.8644 47.3125 61.8061 46.7875 60.5894C46.2625 59.3728 46 58.0728 46 56.6894C46 55.3061 46.2625 54.0061 46.7875 52.7894C47.3125 51.5728 48.025 50.5144 48.925 49.6144C49.825 48.7144 50.8833 48.0019 52.1 47.4769C53.3167 46.9519 54.6167 46.6894 56 46.6894C57.3833 46.6894 58.6833 46.9519 59.9 47.4769C61.1167 48.0019 62.175 48.7144 63.075 49.6144C63.975 50.5144 64.6875 51.5728 65.2125 52.7894C65.7375 54.0061 66 55.3061 66 56.6894C66 58.0728 65.7375 59.3728 65.2125 60.5894C64.6875 61.8061 63.975 62.8644 63.075 63.7644C62.175 64.6644 61.1167 65.3769 59.9 65.9019C58.6833 66.4269 57.3833 66.6894 56 66.6894Z" fill="#EFA0B0"/>
</svg>
