<svg width="81" height="80" viewBox="0 0 81 80" fill="none" xmlns="http://www.w3.org/2000/svg">
<rect x="0.5" width="80" height="80" rx="20" fill="#FF47A1" fill-opacity="0.1"/>
<path d="M67.1667 22.6665H32.5C29.5667 22.6665 27.1667 25.0665 27.1667 27.9998V51.9998C27.1667 53.4143 27.7286 54.7709 28.7288 55.7711C29.729 56.7713 31.0855 57.3332 32.5 57.3332H67.1667C70.1267 57.3332 72.5 54.9598 72.5 51.9998V27.9998C72.5 26.5853 71.9381 25.2288 70.9379 24.2286C69.9377 23.2284 68.5812 22.6665 67.1667 22.6665ZM67.1667 51.9998H32.5V32.4532L49.8333 41.3332L67.1667 32.4532V51.9998ZM49.8333 36.8265L32.5 27.9998H67.1667L49.8333 36.8265ZM21.8333 51.9998C21.8333 52.4532 21.9133 52.8798 21.9667 53.3332H11.1667C9.69467 53.3332 8.5 52.1332 8.5 50.6665C8.5 49.1998 9.69467 47.9998 11.1667 47.9998H21.8333V51.9998ZM16.5 26.6665H21.9667C21.9133 27.1198 21.8333 27.5465 21.8333 27.9998V31.9998H16.5C15.0333 31.9998 13.8333 30.7998 13.8333 29.3332C13.8333 27.8665 15.0333 26.6665 16.5 26.6665ZM11.1667 39.9998C11.1667 38.5332 12.3667 37.3332 13.8333 37.3332H21.8333V42.6665H13.8333C12.3667 42.6665 11.1667 41.4665 11.1667 39.9998Z" fill="#FF47A1"/>
</svg>
