<svg xmlns="http://www.w3.org/2000/svg" width="160" height="36" viewBox="0 0 160 36" fill="none">
  <path d="M71.0571 12.4373V13.8794H67.1798V17.2887H71.0571V18.733H67.1798V23.593H65.7534V12.4394H71.0571V12.4373Z" fill="#D6C792"/>
  <path d="M77.6518 20.0228H76.3502V23.5928H74.9258V12.4392H78.0518C78.9385 12.5592 79.6856 12.9299 80.2973 13.5471C81.0274 14.2906 81.3914 15.1821 81.3914 16.2235C81.3914 17.2735 81.0274 18.1714 80.2973 18.9149C79.7915 19.4271 79.4063 19.7142 79.1396 19.7785L81.584 23.5928H79.8549L77.6518 20.0228ZM76.3502 13.8878V18.5721H77.6518C78.2846 18.5721 78.8285 18.3428 79.2793 17.8864C79.7322 17.4299 79.9565 16.8749 79.9565 16.2235C79.9565 15.5785 79.7301 15.0278 79.2793 14.5714C78.8285 14.1149 78.2846 13.8878 77.6518 13.8878H76.3502Z" fill="#D6C792"/>
  <path d="M94.4158 13.9629C95.5184 15.0793 96.0687 16.4229 96.0687 18C96.0687 19.5772 95.5184 20.9207 94.4158 22.0372C93.3131 23.1536 91.984 23.7107 90.4285 23.7107C88.8729 23.7107 87.5438 23.1536 86.4412 22.0372C85.3385 20.9207 84.7883 19.5772 84.7883 18C84.7883 16.4229 85.3385 15.0793 86.4412 13.9629C87.5438 12.8464 88.8729 12.2893 90.4285 12.2893C91.984 12.2914 93.3131 12.8486 94.4158 13.9629ZM90.4285 13.7464C89.2666 13.7464 88.2761 14.1622 87.4571 14.9914C86.638 15.8207 86.2274 16.8236 86.2274 18C86.2274 19.1764 86.638 20.1793 87.4592 21.0107C88.2803 21.8422 89.2708 22.2579 90.4264 22.2579C91.5883 22.2579 92.5788 21.8422 93.3978 21.0107C94.2169 20.1793 94.6274 19.1743 94.6274 18C94.6274 16.8236 94.2169 15.8207 93.3978 14.9914C92.5809 14.1622 91.5904 13.7464 90.4285 13.7464Z" fill="#D6C792"/>
  <path d="M101.582 12.4373L105.157 18.6901L108.716 12.4373H110.018V23.5908H108.594V15.5315L105.159 21.5551L101.709 15.5315V23.5908H100.285V12.4373H101.582Z" fill="#D6C792"/>
  <path d="M123.785 12.4373L127.791 23.5908H126.276L124.858 19.6458H121.94L120.528 23.5908H119.006L123.013 12.4373H123.785ZM124.344 18.2015L123.4 15.5873L122.462 18.2015H124.344Z" fill="#D6C792"/>
  <path d="M134.077 23.5908L130.077 12.4373H131.592L134.464 20.4344L137.343 12.4373H138.864L134.85 23.5908H134.077Z" fill="#D6C792"/>
  <path d="M145.925 12.4373L149.931 23.5908H148.416L146.998 19.6458H144.079L142.668 23.5908H141.146L145.152 12.4373H145.925ZM146.483 18.2015L145.54 15.5873L144.602 18.2015H146.483Z" fill="#D6C792"/>
  <path d="M56.7534 24.4799C56.747 24.4735 56.7428 24.4628 56.7364 24.4564C56.7089 24.4135 56.6814 24.3706 56.6518 24.3256L56.6497 24.3235L48.0952 9.75635L38.7428 26.1706H41.0518L42.0465 24.4285L42.5058 23.6228H52.1502H52.2412L51.2317 21.8163H51.1407H43.5364L48.1269 13.7656L54.3894 24.4285H54.3999C55.8518 26.8628 57.6507 29.2778 60.3745 29.2778C60.9058 29.2778 61.473 29.1878 62.0761 28.9864C60.3872 28.6564 58.165 26.7899 56.7534 24.4799Z" fill="#D6C792"/>
  <path d="M19.8201 9.75439L11.2656 24.3215L11.2635 24.3237C11.2338 24.3687 11.2063 24.4115 11.1788 24.4544C11.1746 24.4608 11.1703 24.4715 11.1619 24.478C9.75024 26.788 7.52802 28.6565 5.84125 28.9801C6.44654 29.1815 7.01373 29.2715 7.54283 29.2715C10.2666 29.2715 12.0656 26.8565 13.5174 24.4222H13.528L19.7905 13.7594L24.3809 21.8101H16.7767L15.7672 23.6165H25.4116L25.8709 24.4222L26.8656 26.1644H29.1746L19.8201 9.75439Z" fill="#D6C792"/>
  <path d="M43.6698 8.78149H45.7291L33.9619 29.4215L22.1947 8.78149H24.254L33.9619 25.8086L43.6698 8.78149Z" fill="#D6C792"/>
  <path d="M38.6942 6.57861H33.9619H29.2296L27.1852 8.78147L33.9619 20.67L40.7386 8.78147L38.6942 6.57861Z" fill="#D6C792"/>
</svg>