<svg width="124" height="32" viewBox="0 0 124 32" fill="none" xmlns="http://www.w3.org/2000/svg">
<path d="M20.1299 10.256V19.0455L13.9881 16.5376V14.5538L10.0666 12.951L6.14524 14.5538V16.2484L15.9131 20.2399V24.7282L10.0666 27.1169L4.2168 24.7282V20.4679L6.14524 21.2539V23.4317L10.0666 25.031L12.7318 23.9421L13.9847 23.4317H13.9881V21.5363L4.2168 17.5448V13.2539L10.0666 10.8651L15.9131 13.2539V15.2377L18.2014 16.1735V11.5525L11.3738 8.76559L12.8744 7.29218L20.1299 10.256Z" fill="url(#paint0_linear_1_1102)"/>
<path d="M18.2014 21.1722L20.1299 21.9583V27.8894L10.0666 32L0 27.8894V10.256L7.25545 7.29218L8.7561 8.76559L1.92845 11.5525V26.5895L10.0666 29.9141L18.2014 26.5895V21.1722Z" fill="url(#paint1_linear_1_1102)"/>
<path d="M12.1003 0H8.02953L4.0538 3.1476L4.89241 3.96768L5.81249 3.23948L8.43695 1.16376H11.6997L14.3241 3.23948L15.2442 3.96768L16.0828 3.1476L12.1003 0ZM10.0632 7.41132L6.33195 3.7533L5.41186 4.4815L10.0632 9.04127L14.718 4.4815L13.7979 3.7533L10.0666 7.41132H10.0632Z" fill="url(#paint2_linear_1_1102)"/>
<path d="M11.4451 1.89203H10.0632H8.68479L6.90573 3.30079L10.0632 6.39395L13.2207 3.30079L11.4451 1.89203Z" fill="url(#paint3_linear_1_1102)"/>
<path d="M37.0898 18.5964C36.7881 18.1891 36.4044 17.8611 35.9425 17.6084C35.4806 17.3595 34.8771 17.0843 34.1358 16.7901C33.4094 16.5111 32.8729 16.2886 32.5228 16.1114C32.1726 15.9379 31.9081 15.738 31.7293 15.5155C31.5505 15.2931 31.4611 15.0065 31.4611 14.6558C31.4611 14.1467 31.6362 13.7545 31.9938 13.483C32.3514 13.2115 32.8543 13.0757 33.5062 13.0757C34.2699 13.0757 34.8734 13.2605 35.3055 13.6263C35.7413 13.9921 35.9574 14.4484 35.9574 15.0027V15.2403C35.9574 15.3496 36.0095 15.4024 36.1176 15.4024H37.2947C37.399 15.4024 37.4512 15.3496 37.4512 15.2403V14.9235C37.4512 14.2975 37.291 13.7432 36.9706 13.2681C36.6503 12.7892 36.1995 12.4196 35.6109 12.1519C35.0261 11.8879 34.3444 11.7559 33.5658 11.7559C32.4669 11.7559 31.5915 12.0161 30.9507 12.5365C30.3063 13.0569 29.9822 13.7696 29.9822 14.6822C29.9822 15.2893 30.1275 15.7908 30.4218 16.1868C30.7161 16.5827 31.0848 16.9033 31.5281 17.1484C31.9714 17.3935 32.5786 17.6612 33.346 17.9591C34.0389 18.2344 34.5642 18.472 34.9255 18.6681C35.2869 18.8641 35.5625 19.0791 35.7525 19.3129C35.9425 19.5429 36.0356 19.8257 36.0356 20.1538C36.0356 20.6516 35.8531 21.0551 35.4843 21.3643C35.1155 21.6735 34.5716 21.8243 33.8489 21.8243C33.0406 21.8243 32.4073 21.6509 31.9454 21.3002C31.4834 20.9495 31.2525 20.5045 31.2525 19.9615V19.5806C31.2525 19.475 31.2003 19.4222 31.096 19.4222H29.9487C29.8444 19.4222 29.7922 19.475 29.7922 19.5806V20.0407C29.7922 20.6667 29.9524 21.2134 30.2728 21.6773C30.5931 22.1449 31.0476 22.5069 31.6399 22.7595C32.2322 23.0159 32.9325 23.1442 33.7372 23.1442C34.9255 23.1442 35.8531 22.8727 36.5273 22.3221C37.2016 21.7753 37.5406 21.0362 37.5406 20.101C37.5406 19.4939 37.3879 18.9886 37.0861 18.5813L37.0898 18.5964Z" fill="#AAACAE"/>
<path d="M50.6756 22.835L48.3958 18.061C48.3734 18.0308 48.3846 18.0045 48.4293 17.9818C49.111 17.8008 49.64 17.4539 50.0274 16.9373C50.4111 16.4244 50.5974 15.7947 50.5974 15.0518C50.5974 14.4258 50.467 13.8715 50.2062 13.3964C49.9455 12.9175 49.5729 12.5441 49.0998 12.2802C48.623 12.0162 48.068 11.8842 47.4421 11.8842H43.214C43.106 11.8842 43.0539 11.937 43.0539 12.0426V22.8652C43.0539 22.9708 43.106 23.0236 43.214 23.0236H44.4098C44.5141 23.0236 44.5663 22.9708 44.5663 22.8652V18.1666C44.5663 18.1251 44.5849 18.1063 44.6296 18.1063H46.8945C46.9243 18.1063 46.9467 18.1214 46.9579 18.1553L49.1594 22.9142C49.1892 22.9896 49.2488 23.0236 49.3308 23.0236H50.5713C50.6532 23.0236 50.6979 22.9859 50.6979 22.9142C50.6979 22.8841 50.6942 22.8577 50.683 22.835H50.6756ZM44.6222 16.8996C44.5775 16.8996 44.5588 16.8769 44.5588 16.8355V13.2682C44.5588 13.2267 44.5775 13.204 44.6222 13.204H47.2447C47.8035 13.204 48.2468 13.3737 48.582 13.7131C48.9173 14.0525 49.0849 14.5012 49.0849 15.0631C49.0849 15.625 48.9173 16.0586 48.582 16.3943C48.2468 16.7299 47.8035 16.8958 47.2447 16.8958H44.6222V16.8996Z" fill="#AAACAE"/>
<path d="M57.5001 11.8878H56.3043C56.2 11.8878 56.1479 11.9406 56.1479 12.0461V22.8687C56.1479 22.9743 56.2 23.0271 56.3043 23.0271H57.5001C57.6044 23.0271 57.6566 22.9743 57.6566 22.8687V12.0461C57.6566 11.9406 57.6044 11.8878 57.5001 11.8878Z" fill="#AAACAE"/>
<path d="M69.7001 15.5306L70.8959 15.4702C70.9369 15.4702 70.9741 15.4552 71.0039 15.4212C71.0337 15.3911 71.0524 15.3496 71.0524 15.2968V15.2817C71.0524 14.5803 70.8922 13.9656 70.5718 13.4339C70.2514 12.9022 69.8044 12.495 69.227 12.2008C68.6496 11.9105 67.9865 11.7596 67.2303 11.7596C66.4741 11.7596 65.8073 11.9143 65.2262 12.2122C64.645 12.5138 64.1943 12.9399 63.8702 13.4867C63.5498 14.0335 63.3934 14.667 63.3934 15.3873V19.5089C63.3934 20.2329 63.5536 20.8702 63.8702 21.4283C64.1906 21.9864 64.6413 22.4163 65.2262 22.7142C65.8073 23.0159 66.4778 23.1667 67.2303 23.1667C67.9828 23.1667 68.6496 23.0197 69.227 22.7218C69.8044 22.4239 70.2514 22.0091 70.5718 21.4736C70.8922 20.9381 71.0524 20.3197 71.0524 19.6183C71.0524 19.5127 71.0002 19.4599 70.8959 19.4599L69.7001 19.3958C69.5958 19.3958 69.5437 19.4448 69.5437 19.5391V19.5693C69.5437 20.248 69.3313 20.7948 68.9141 21.2096C68.4932 21.6207 67.9344 21.8281 67.2303 21.8281C66.5263 21.8281 65.9675 21.6207 65.5391 21.2096C65.1144 20.7948 64.9021 20.248 64.9021 19.5693V15.3345C64.9021 14.6557 65.1144 14.1089 65.5391 13.6941C65.9638 13.2831 66.53 13.0757 67.2303 13.0757C67.9306 13.0757 68.4932 13.2831 68.9141 13.6941C69.3313 14.1089 69.5437 14.6557 69.5437 15.3345V15.3835C69.5437 15.4778 69.5958 15.5268 69.7001 15.5268V15.5306Z" fill="#FF83AF"/>
<path d="M84.6977 22.8537L81.2259 12.016C81.1923 11.9292 81.129 11.8878 81.0359 11.8878H79.4638C79.367 11.8878 79.3037 11.9292 79.2739 12.016L75.8318 22.8537C75.7983 22.9705 75.8392 23.0271 75.9547 23.0271H77.2287C77.3219 23.0271 77.3852 22.9856 77.4187 22.8989C77.4187 22.8989 80.2834 13.7732 80.2946 13.7959L83.0959 22.8989C83.1257 22.9856 83.189 23.0271 83.2822 23.0271H84.5748C84.6679 23.0271 84.7163 22.9894 84.7163 22.9178L84.7014 22.8537H84.6977Z" fill="#FF83AF"/>
<path d="M97.7992 11.888H96.6034C96.4954 11.888 96.4432 11.9408 96.4432 12.0464L96.4581 20.1162C96.4581 20.1463 96.447 20.1652 96.4283 20.1727C96.406 20.1765 96.3911 20.1652 96.3799 20.1313L91.4738 11.9973C91.4217 11.9219 91.3584 11.8842 91.2839 11.8842H90.1216C90.0173 11.8842 89.9651 11.937 89.9651 12.0426V22.8652C89.9651 22.9708 90.0173 23.0236 90.1216 23.0236H91.3174C91.4217 23.0236 91.4738 22.9708 91.4738 22.8652L91.4589 14.7954C91.4589 14.7652 91.4701 14.7464 91.4925 14.7388C91.5111 14.735 91.5297 14.7464 91.5409 14.7803L96.4619 22.9142C96.514 22.9896 96.5774 23.0236 96.6519 23.0236H97.7992C97.9035 23.0236 97.9557 22.9708 97.9557 22.8652V12.0426C97.9557 11.937 97.9035 11.8842 97.7992 11.8842V11.888Z" fill="#FF83AF"/>
<path d="M110.409 12.7551C109.761 12.1781 108.889 11.8878 107.798 11.8878H103.994C103.89 11.8878 103.838 11.9406 103.838 12.0461V22.8687C103.838 22.9743 103.89 23.0271 103.994 23.0271H107.798C108.889 23.0271 109.761 22.7368 110.409 22.1598C111.061 21.5828 111.385 20.8098 111.385 19.8444V15.0704C111.385 14.1051 111.061 13.3358 110.409 12.7551ZM109.876 19.622C109.865 20.2592 109.679 20.7646 109.317 21.1416C108.956 21.5187 108.468 21.7073 107.861 21.7073H105.41C105.365 21.7073 105.346 21.6847 105.346 21.6432V13.2717C105.346 13.2302 105.365 13.2076 105.41 13.2076H107.861C108.479 13.2076 108.971 13.3961 109.332 13.7732C109.694 14.1503 109.876 14.6594 109.876 15.2929V19.622Z" fill="#FF83AF"/>
<path d="M123.984 11.9408C123.957 11.9031 123.916 11.8842 123.864 11.8842H122.561C122.467 11.8842 122.404 11.9219 122.374 11.9973L119.968 16.662C119.957 16.6846 119.942 16.6922 119.919 16.6922C119.897 16.6922 119.882 16.6846 119.871 16.662L117.464 11.9973C117.435 11.9219 117.371 11.8842 117.274 11.8842H115.986C115.9 11.8842 115.859 11.9219 115.859 11.9973C115.859 12.0275 115.863 12.0539 115.874 12.0765L119.145 18.2986C119.145 18.2986 119.159 18.3363 119.159 18.3778V22.8501C119.159 22.9557 119.212 23.0085 119.316 23.0085H120.512C120.616 23.0085 120.672 22.9557 120.672 22.8501V18.3778C120.672 18.3363 120.672 18.3099 120.687 18.2986L123.972 12.0765C124.006 12.0237 124.01 11.9747 123.98 11.9408H123.984Z" fill="#FF83AF"/>
<defs>
<linearGradient id="paint0_linear_1_1102" x1="12.1716" y1="1.68094" x2="12.1716" y2="40.6363" gradientUnits="userSpaceOnUse">
<stop stop-color="#D1D1D1"/>
<stop offset="0.413022" stop-color="#AAACAE"/>
<stop offset="0.949955" stop-color="#676767"/>
</linearGradient>
<linearGradient id="paint1_linear_1_1102" x1="10.0632" y1="0.295997" x2="10.0632" y2="46.9999" gradientUnits="userSpaceOnUse">
<stop stop-color="#D1D1D1"/>
<stop offset="0.45" stop-color="#AAACAE"/>
<stop offset="0.824063" stop-color="#676767"/>
</linearGradient>
<linearGradient id="paint2_linear_1_1102" x1="10.0632" y1="10.4568" x2="10.0632" y2="-2.92982" gradientUnits="userSpaceOnUse">
<stop stop-color="#FFBABA"/>
<stop offset="1" stop-color="#FF359D"/>
</linearGradient>
<linearGradient id="paint3_linear_1_1102" x1="10.0632" y1="10.4569" x2="10.0632" y2="-2.92975" gradientUnits="userSpaceOnUse">
<stop stop-color="#FFBABA"/>
<stop offset="1" stop-color="#FF359D"/>
</linearGradient>
</defs>
</svg>
