<svg width="120" height="120" viewBox="0 0 120 120" fill="none" xmlns="http://www.w3.org/2000/svg">
<path d="M12.4606 99.6489C12.0988 99.1717 11.6448 98.7858 11.0919 98.4948C10.5423 98.2037 9.81872 97.8822 8.93469 97.537C8.06773 97.2121 7.42946 96.9481 7.00963 96.7416C6.58981 96.5352 6.27579 96.305 6.06076 96.0444C5.84572 95.7838 5.74333 95.4488 5.74333 95.0392C5.74333 94.4436 5.95495 93.9867 6.37819 93.6685C6.80484 93.3538 7.40557 93.1947 8.18378 93.1947C9.09512 93.1947 9.81531 93.4079 10.3341 93.8377C10.8529 94.2642 11.1123 94.8023 11.1123 95.4488V95.7263C11.1123 95.8515 11.1738 95.9158 11.3035 95.9158H12.7097C12.836 95.9158 12.8975 95.8549 12.8975 95.7263V95.354C12.8975 94.6229 12.7063 93.9731 12.324 93.4181C11.9417 92.8596 11.4025 92.4264 10.6993 92.115C9.99962 91.8071 9.18727 91.6514 8.25887 91.6514C6.94819 91.6514 5.90375 91.956 5.13577 92.5652C4.36438 93.1744 3.9821 94.0104 3.9821 95.0765C3.9821 95.7872 4.15617 96.3727 4.50774 96.8364C4.8593 97.3001 5.29961 97.6757 5.82866 97.9634C6.35771 98.2511 7.08472 98.5659 7.99606 98.9145C8.82206 99.236 9.4535 99.5135 9.88357 99.7437C10.3171 99.9704 10.6447 100.224 10.87 100.498C11.0953 100.769 11.2079 101.101 11.2079 101.483C11.2079 102.065 10.9895 102.536 10.5526 102.898C10.1123 103.26 9.46374 103.439 8.6002 103.439C7.63425 103.439 6.87652 103.233 6.32699 102.824C5.77746 102.414 5.50099 101.893 5.50099 101.26V100.813C5.50099 100.688 5.43955 100.627 5.31326 100.627H3.93773C3.81144 100.627 3.75 100.688 3.75 100.813V101.355C3.75 102.086 3.94114 102.725 4.32342 103.27C4.7057 103.815 5.24841 104.238 5.95495 104.536C6.6649 104.834 7.50114 104.986 8.46026 104.986C9.87675 104.986 10.986 104.668 11.795 104.025C12.6005 103.389 13.0067 102.519 13.0067 101.429C13.0067 100.718 12.8258 100.129 12.4606 99.6489Z" fill="#727272"/>
<path d="M28.6836 104.607L25.9599 99.0228C25.9326 98.9856 25.9462 98.9585 26.0008 98.9314C26.8132 98.7216 27.4481 98.3121 27.9054 97.713C28.3628 97.1106 28.5881 96.3761 28.5881 95.5063C28.5881 94.7753 28.4345 94.1255 28.1205 93.5704C27.8099 93.012 27.3661 92.5754 26.7995 92.2674C26.2295 91.9594 25.5708 91.8037 24.8165 91.8037H19.7683C19.642 91.8037 19.5771 91.8646 19.5771 91.9899V104.651C19.5771 104.776 19.6386 104.837 19.7683 104.837H21.195C21.3213 104.837 21.3827 104.776 21.3827 104.651V99.1582C21.3827 99.1108 21.4066 99.0871 21.4578 99.0871H24.1611C24.1987 99.0871 24.2226 99.104 24.2362 99.1413L26.8644 104.709C26.9019 104.797 26.9702 104.837 27.0726 104.837H28.5539C28.6529 104.837 28.7041 104.797 28.7041 104.709C28.7041 104.671 28.6973 104.641 28.6836 104.614V104.607ZM21.4544 97.6656C21.4032 97.6656 21.3793 97.6385 21.3793 97.5912V93.4215C21.3793 93.3741 21.4032 93.347 21.4544 93.347H24.5878C25.2533 93.347 25.7858 93.5467 26.1852 93.9427C26.5845 94.3387 26.7859 94.8667 26.7859 95.5232C26.7859 96.1798 26.5845 96.6875 26.1852 97.0767C25.7858 97.4693 25.2533 97.6656 24.5878 97.6656H21.4544Z" fill="#727272"/>
<path d="M36.8344 91.8003H35.4077C35.2814 91.8003 35.22 91.8612 35.22 91.9864V104.648C35.22 104.773 35.2814 104.834 35.4077 104.834H36.8344C36.9607 104.834 37.0222 104.773 37.0222 104.648V91.9864C37.0222 91.8612 36.9607 91.8003 36.8344 91.8003Z" fill="#727272"/>
<path d="M51.4054 96.0613L52.8322 95.9903C52.8799 95.9903 52.9243 95.97 52.9619 95.9327C52.9994 95.8955 53.0165 95.8481 53.0165 95.7872V95.7669C53.0165 94.9478 52.8253 94.227 52.4431 93.6076C52.0608 92.9849 51.5283 92.5076 50.8388 92.1658C50.1494 91.824 49.3575 91.6514 48.453 91.6514C47.5485 91.6514 46.7532 91.8307 46.0603 92.1827C45.364 92.5381 44.8281 93.0356 44.4424 93.6719C44.0636 94.3116 43.8724 95.0562 43.8724 95.8955V100.718C43.8724 101.565 44.0636 102.312 44.4424 102.962C44.8247 103.612 45.364 104.116 46.0603 104.468C46.7532 104.824 47.5519 105 48.453 105C49.3541 105 50.1494 104.827 50.8388 104.479C51.5283 104.13 52.0642 103.646 52.4431 103.016C52.8253 102.387 53.0165 101.666 53.0165 100.847C53.0165 100.722 52.955 100.661 52.8287 100.661L51.402 100.586C51.2757 100.586 51.2143 100.641 51.2143 100.756V100.793C51.2143 101.588 50.9617 102.228 50.4634 102.712C49.9616 103.192 49.2926 103.436 48.453 103.436C47.6133 103.436 46.9443 103.192 46.4358 102.712C45.9272 102.228 45.6746 101.585 45.6746 100.793V95.8414C45.6746 95.046 45.9272 94.4063 46.4358 93.9224C46.9443 93.4418 47.6167 93.1981 48.453 93.1981C49.2892 93.1981 49.9616 93.4418 50.4634 93.9224C50.9617 94.4063 51.2143 95.0494 51.2143 95.8414V95.8955C51.2143 96.0072 51.2757 96.0613 51.402 96.0613H51.4054Z" fill="#F24998"/>
<path d="M69.3147 104.627L65.1676 91.9492C65.1267 91.8477 65.0516 91.8003 64.9424 91.8003H63.0651C62.949 91.8003 62.8739 91.8477 62.8398 91.9492L58.7303 104.627C58.6893 104.763 58.7405 104.834 58.877 104.834H60.3994C60.512 104.834 60.5871 104.787 60.6246 104.685C60.6246 104.685 64.0481 94.0104 64.0583 94.0374L67.3999 104.685C67.4374 104.787 67.5125 104.834 67.6217 104.834H69.1645C69.2772 104.834 69.3318 104.793 69.3318 104.705L69.3113 104.631L69.3147 104.627Z" fill="#F24998"/>
<path d="M84.9575 91.8003H83.5307C83.401 91.8003 83.3396 91.8612 83.3396 91.9864L83.3601 101.426C83.3601 101.463 83.3464 101.483 83.3225 101.49C83.2952 101.497 83.2782 101.48 83.2679 101.443L77.4074 91.9289C77.346 91.8409 77.2709 91.8003 77.1821 91.8003H75.793C75.6667 91.8003 75.6052 91.8612 75.6052 91.9864V104.648C75.6052 104.773 75.6667 104.834 75.793 104.834H77.2197C77.346 104.834 77.4074 104.773 77.4074 104.648L77.3869 95.2085C77.3869 95.1712 77.4006 95.1509 77.4279 95.1442C77.4518 95.1374 77.4723 95.1543 77.4825 95.1915L83.3601 104.705C83.4215 104.793 83.4966 104.834 83.5853 104.834H84.9575C85.0838 104.834 85.1452 104.773 85.1452 104.648V91.9864C85.1452 91.8612 85.0838 91.8003 84.9575 91.8003Z" fill="#F24998"/>
<path d="M100.013 92.8156C99.2385 92.1387 98.1974 91.8003 96.897 91.8003H92.354C92.2277 91.8003 92.1663 91.8612 92.1663 91.9864V104.648C92.1663 104.773 92.2277 104.834 92.354 104.834H96.897C98.2008 104.834 99.2385 104.495 100.013 103.819C100.791 103.142 101.177 102.241 101.177 101.108V95.5232C101.177 94.3928 100.791 93.4925 100.013 92.8156ZM99.3784 100.847C99.3648 101.592 99.1429 102.184 98.7128 102.627C98.2793 103.067 97.6991 103.287 96.9755 103.287H94.0504C93.9992 103.287 93.9753 103.26 93.9753 103.213V93.4215C93.9753 93.3741 93.9992 93.347 94.0504 93.347H96.9755C97.7128 93.347 98.2998 93.567 98.7299 94.007C99.1634 94.4503 99.3784 95.0426 99.3784 95.7872V100.85V100.847Z" fill="#F24998"/>
<path d="M116.226 91.8646C116.195 91.824 116.148 91.8003 116.086 91.8003H114.526C114.414 91.8003 114.339 91.8409 114.305 91.9289L111.431 97.3847C111.417 97.4118 111.396 97.4219 111.376 97.4219C111.349 97.4219 111.332 97.4118 111.321 97.3847L108.447 91.9289C108.41 91.8409 108.335 91.8003 108.222 91.8003H106.683C106.58 91.8003 106.533 91.8409 106.533 91.9289C106.533 91.9661 106.539 91.9966 106.553 92.0237L110.458 99.3003C110.458 99.3003 110.478 99.3443 110.478 99.3951V104.627C110.478 104.753 110.54 104.814 110.666 104.814H112.093C112.219 104.814 112.284 104.753 112.284 104.627V99.3951C112.284 99.3477 112.284 99.3138 112.301 99.3003L116.226 92.0237C116.267 91.9627 116.271 91.9052 116.236 91.8646H116.226Z" fill="#F24998"/>
<path d="M78.9601 34.1339V50.5318L67.3781 45.853V42.1519L59.9833 39.1618L52.5885 42.1519V45.3134L71.0083 52.76V61.1335L59.9833 65.5901L48.9519 61.1335V53.1854L52.5885 54.6519V58.7148L59.9833 61.6986L65.0092 59.6671L67.3717 58.7148H67.3781V55.1788L48.9519 47.7321V39.7268L59.9833 35.2703L71.0083 39.7268V43.4279L75.3235 45.1737V36.5527L62.4482 31.3533L65.2781 28.6045L78.9601 34.1339Z" fill="url(#paint0_linear_5960_1679)"/>
<path d="M75.3234 54.4995L78.96 55.966V67.0312L59.9832 74.7L41 67.0312V34.1339L54.682 28.6045L57.5119 31.3533L44.6366 36.5527V64.6061L59.9832 70.8085L75.3234 64.6061V54.4995Z" fill="url(#paint1_linear_5960_1679)"/>
<path d="M63.8183 15H56.1418L48.6445 20.8722L50.2259 22.4022L51.961 21.0437L56.9101 17.1711H63.0628L68.0119 21.0437L69.7469 22.4022L71.3283 20.8722L63.8183 15ZM59.9768 28.8268L52.9406 22.0023L51.2055 23.3608L59.9768 31.8676L68.7546 23.3608L67.0195 22.0023L59.9832 28.8268H59.9768Z" fill="url(#paint2_linear_5960_1679)"/>
<path d="M62.5826 18.5298H59.9768H57.3775L54.0226 21.158L59.9768 26.9287L65.9311 21.158L62.5826 18.5298Z" fill="url(#paint3_linear_5960_1679)"/>
<defs>
<linearGradient id="paint0_linear_5960_1679" x1="63.9528" y1="35.5219" x2="63.9528" y2="91.4907" gradientUnits="userSpaceOnUse">
<stop stop-color="#A0A0A0"/>
<stop offset="1" stop-color="#676767"/>
</linearGradient>
<linearGradient id="paint1_linear_5960_1679" x1="59.9768" y1="28.0594" x2="59.9768" y2="84.0282" gradientUnits="userSpaceOnUse">
<stop offset="0.157832" stop-color="#A0A0A0"/>
<stop offset="1" stop-color="#676767"/>
</linearGradient>
<linearGradient id="paint2_linear_5960_1679" x1="59.9768" y1="34.5085" x2="59.9768" y2="9.53405" gradientUnits="userSpaceOnUse">
<stop stop-color="#FFBABA"/>
<stop offset="1" stop-color="#FF359D"/>
</linearGradient>
<linearGradient id="paint3_linear_5960_1679" x1="59.9768" y1="34.5086" x2="59.9768" y2="9.53414" gradientUnits="userSpaceOnUse">
<stop stop-color="#FFBABA"/>
<stop offset="1" stop-color="#FF359D"/>
</linearGradient>
</defs>
</svg>
