
<svg width="196" height="197" viewBox="0 0 196 197" fill="none" xmlns="http://www.w3.org/2000/svg">
<path d="M129.002 56.1368V82.9254L110.081 75.2802V69.2326L97.9999 64.3569L85.9246 69.2326V74.4012L116.018 86.5628V100.245L97.9999 107.525L79.9873 100.245V87.2593L85.9246 89.6529V96.2865L97.9999 101.168L106.212 97.8454L110.075 96.2865H110.081V90.5153L79.9873 78.3592V65.2745L97.9999 57.9997L116.018 65.2745V71.3221L123.065 74.1746V60.0948L102.025 51.5983L106.658 47.1151L129.002 56.1368Z" fill="url(#paint0_linear_4223_52074)"/>
<path d="M123.065 89.4041L129.002 91.8088V109.88L97.9998 122.401L66.9976 109.88V56.1368L89.3419 47.1151L93.9747 51.6038L72.9349 60.0948V105.922L97.9998 116.043L123.065 105.922V89.4041Z" fill="url(#paint1_linear_4223_52074)"/>
<path d="M104.266 24.8871H91.7223L79.4741 34.4837L82.0553 36.9823L84.8874 34.7656L92.971 28.436H103.023L111.106 34.7656L113.944 36.9823L116.525 34.4837L104.266 24.8871ZM97.9941 47.4744L86.4985 36.33L83.6665 38.5467L97.9941 52.4385L112.327 38.5467L109.49 36.33L97.9941 47.4744Z" fill="url(#paint2_linear_4223_52074)"/>
<path d="M102.248 30.6583H97.9939H93.7458L88.2656 34.9425L97.9939 44.3732L107.722 34.9425L102.248 30.6583Z" fill="url(#paint3_linear_4223_52074)"/>
<path d="M20.3522 163.147C19.7613 162.368 19.0198 161.738 18.1167 161.262C17.2191 160.787 16.0372 160.262 14.5933 159.698C13.1773 159.167 12.1348 158.736 11.4491 158.399C10.7633 158.062 10.2505 157.686 9.89923 157.26C9.54801 156.834 9.38076 156.287 9.38076 155.618C9.38076 154.645 9.72641 153.899 10.4177 153.379C11.1146 152.865 12.0958 152.605 13.3668 152.605C14.8554 152.605 16.0317 152.954 16.8791 153.656C17.7264 154.352 18.1501 155.231 18.1501 156.287V156.74C18.1501 156.945 18.2505 157.05 18.4623 157.05H20.7592C20.9655 157.05 21.0658 156.95 21.0658 156.74V156.132C21.0658 154.938 20.7536 153.877 20.1292 152.97C19.5049 152.058 18.624 151.351 17.4756 150.842C16.3327 150.339 15.0059 150.085 13.4895 150.085C11.3487 150.085 9.64279 150.582 8.38843 151.577C7.12849 152.572 6.5041 153.938 6.5041 155.679C6.5041 156.84 6.78842 157.796 7.36264 158.554C7.93686 159.311 8.65602 159.925 9.52014 160.394C10.3843 160.864 11.5717 161.378 13.0602 161.948C14.4094 162.473 15.4407 162.926 16.1432 163.302C16.8512 163.672 17.3864 164.087 17.7543 164.535C18.1223 164.977 18.3062 165.519 18.3062 166.143C18.3062 167.094 17.9494 167.863 17.2359 168.454C16.5167 169.046 15.4574 169.339 14.047 169.339C12.4693 169.339 11.2316 169.001 10.3341 168.333C9.43651 167.664 8.98494 166.812 8.98494 165.779V165.049C8.98494 164.844 8.88459 164.745 8.67832 164.745H6.43162C6.22535 164.745 6.125 164.844 6.125 165.049V165.933C6.125 167.127 6.4372 168.172 7.06159 169.062C7.68598 169.952 8.5724 170.643 9.72641 171.13C10.886 171.616 12.2519 171.865 13.8184 171.865C16.132 171.865 17.9439 171.345 19.2651 170.295C20.5808 169.256 21.2442 167.835 21.2442 166.055C21.2442 164.894 20.9488 163.932 20.3522 163.147Z" fill="#AAACAE"/>
<path d="M46.85 171.246L42.4012 162.125C42.3566 162.064 42.3789 162.02 42.4681 161.975C43.7949 161.633 44.8319 160.964 45.5789 159.985C46.326 159.001 46.6939 157.802 46.6939 156.381C46.6939 155.187 46.443 154.126 45.9301 153.219C45.4228 152.307 44.6981 151.594 43.7726 151.091C42.8416 150.588 41.7657 150.333 40.5336 150.333H32.2883C32.082 150.333 31.9761 150.433 31.9761 150.638V171.318C31.9761 171.522 32.0764 171.622 32.2883 171.622H34.6186C34.8249 171.622 34.9252 171.522 34.9252 171.318V162.346C34.9252 162.268 34.9642 162.23 35.0479 162.23H39.4632C39.5245 162.23 39.5636 162.257 39.5859 162.318L43.8786 171.412C43.9399 171.555 44.0514 171.622 44.2186 171.622H46.6382C46.7998 171.622 46.8835 171.555 46.8835 171.412C46.8835 171.351 46.8723 171.301 46.85 171.257V171.246ZM35.0423 159.908C34.9587 159.908 34.9196 159.864 34.9196 159.786V152.976C34.9196 152.898 34.9587 152.854 35.0423 152.854H40.1601C41.2472 152.854 42.1169 153.18 42.7692 153.827C43.4214 154.474 43.7503 155.336 43.7503 156.409C43.7503 157.481 43.4214 158.31 42.7692 158.946C42.1169 159.587 41.2472 159.908 40.1601 159.908H35.0423Z" fill="#AAACAE"/>
<path d="M60.1628 150.328H57.8325C57.6262 150.328 57.5259 150.428 57.5259 150.632V171.312C57.5259 171.517 57.6262 171.616 57.8325 171.616H60.1628C60.3691 171.616 60.4695 171.517 60.4695 171.312V150.632C60.4695 150.428 60.3691 150.328 60.1628 150.328Z" fill="#AAACAE"/>
<path d="M83.9621 157.288L86.2924 157.172C86.3705 157.172 86.4429 157.138 86.5043 157.078C86.5656 157.017 86.5935 156.939 86.5935 156.84V156.807C86.5935 155.469 86.2813 154.292 85.6569 153.28C85.0325 152.263 84.1628 151.483 83.0367 150.925C81.9105 150.367 80.6171 150.085 79.1398 150.085C77.6624 150.085 76.3634 150.378 75.2317 150.953C74.0944 151.533 73.2192 152.346 72.5892 153.385C71.9704 154.43 71.6582 155.646 71.6582 157.017V164.894C71.6582 166.276 71.9704 167.498 72.5892 168.559C73.2136 169.621 74.0944 170.444 75.2317 171.019C76.3634 171.6 77.668 171.887 79.1398 171.887C80.6116 171.887 81.9105 171.605 83.0367 171.036C84.1628 170.466 85.0381 169.676 85.6569 168.648C86.2813 167.619 86.5935 166.442 86.5935 165.104C86.5935 164.9 86.4931 164.8 86.2868 164.8L83.9565 164.679C83.7502 164.679 83.6499 164.767 83.6499 164.955V165.016C83.6499 166.315 83.2374 167.36 82.4234 168.15C81.6039 168.935 80.5112 169.333 79.1398 169.333C77.7683 169.333 76.6756 168.935 75.845 168.15C75.0143 167.36 74.6018 166.309 74.6018 165.016V156.928C74.6018 155.629 75.0143 154.584 75.845 153.794C76.6756 153.009 77.7739 152.611 79.1398 152.611C80.5056 152.611 81.6039 153.009 82.4234 153.794C83.2374 154.584 83.6499 155.635 83.6499 156.928V157.017C83.6499 157.199 83.7502 157.288 83.9565 157.288H83.9621Z" fill="#F24998"/>
<path d="M113.214 171.279L106.441 150.571C106.374 150.405 106.251 150.328 106.073 150.328H103.006C102.817 150.328 102.694 150.405 102.638 150.571L95.9262 171.279C95.8593 171.5 95.943 171.616 96.166 171.616H98.6524C98.8364 171.616 98.959 171.539 99.0203 171.373C99.0203 171.373 104.612 153.938 104.629 153.982L110.087 171.373C110.148 171.539 110.271 171.616 110.449 171.616H112.969C113.153 171.616 113.242 171.55 113.242 171.406L113.209 171.285L113.214 171.279Z" fill="#F24998"/>
<path d="M138.764 150.328H136.434C136.222 150.328 136.122 150.428 136.122 150.632L136.155 166.05C136.155 166.11 136.133 166.144 136.094 166.155C136.049 166.166 136.021 166.138 136.005 166.077L126.432 150.538C126.332 150.394 126.209 150.328 126.064 150.328H123.795C123.589 150.328 123.489 150.428 123.489 150.632V171.312C123.489 171.517 123.589 171.616 123.795 171.616H126.126C126.332 171.616 126.432 171.517 126.432 171.312L126.399 155.895C126.399 155.834 126.421 155.801 126.466 155.79C126.505 155.779 126.538 155.806 126.555 155.867L136.155 171.406C136.255 171.55 136.378 171.616 136.523 171.616H138.764C138.97 171.616 139.071 171.517 139.071 171.312V150.632C139.071 150.428 138.97 150.328 138.764 150.328Z" fill="#F24998"/>
<path d="M163.355 151.986C162.089 150.881 160.389 150.328 158.265 150.328H150.845C150.638 150.328 150.538 150.428 150.538 150.632V171.312C150.538 171.517 150.638 171.616 150.845 171.616H158.265C160.395 171.616 162.089 171.063 163.355 169.958C164.626 168.852 165.256 167.382 165.256 165.53V156.409C165.256 154.562 164.626 153.092 163.355 151.986ZM162.318 165.104C162.296 166.32 161.933 167.288 161.231 168.012C160.523 168.731 159.575 169.09 158.393 169.09H153.615C153.532 169.09 153.493 169.046 153.493 168.968V152.976C153.493 152.899 153.532 152.854 153.615 152.854H158.393C159.597 152.854 160.556 153.214 161.259 153.932C161.967 154.656 162.318 155.624 162.318 156.84V165.11V165.104Z" fill="#F24998"/>
<path d="M189.836 150.433C189.786 150.367 189.708 150.328 189.607 150.328H187.059C186.875 150.328 186.753 150.394 186.697 150.538L182.003 159.449C181.981 159.493 181.947 159.51 181.914 159.51C181.869 159.51 181.841 159.493 181.825 159.449L177.13 150.538C177.069 150.394 176.946 150.328 176.763 150.328H174.248C174.081 150.328 174.003 150.394 174.003 150.538C174.003 150.599 174.014 150.649 174.036 150.693L180.414 162.578C180.414 162.578 180.448 162.65 180.448 162.733V171.279C180.448 171.484 180.548 171.583 180.754 171.583H183.085C183.291 171.583 183.397 171.484 183.397 171.279V162.733C183.397 162.655 183.397 162.6 183.425 162.578L189.836 150.693C189.903 150.593 189.908 150.499 189.852 150.433H189.836Z" fill="#F24998"/>
<defs>
<linearGradient id="paint0_linear_4223_52074" x1="104.495" y1="30.006" x2="104.495" y2="148.719" gradientUnits="userSpaceOnUse">
<stop stop-color="#EAEAE8"/>
<stop offset="0.57" stop-color="#AAACAE"/>
<stop offset="1" stop-color="#676767"/>
</linearGradient>
<linearGradient id="paint1_linear_4223_52074" x1="97.9998" y1="25.7937" x2="97.9998" y2="173.75" gradientUnits="userSpaceOnUse">
<stop stop-color="#EAEAE8"/>
<stop offset="0.57" stop-color="#AAACAE"/>
<stop offset="1" stop-color="#676767"/>
</linearGradient>
<linearGradient id="paint2_linear_4223_52074" x1="97.9996" y1="56.7504" x2="97.9996" y2="15.9594" gradientUnits="userSpaceOnUse">
<stop stop-color="#FFBABA"/>
<stop offset="1" stop-color="#FF359D"/>
</linearGradient>
<linearGradient id="paint3_linear_4223_52074" x1="97.9939" y1="56.7504" x2="97.9939" y2="15.9594" gradientUnits="userSpaceOnUse">
<stop stop-color="#FFBABA"/>
<stop offset="1" stop-color="#FF359D"/>
</linearGradient>
</defs>
</svg>
