<svg width="155" height="40" viewBox="0 0 155 40" fill="none" xmlns="http://www.w3.org/2000/svg">
<path d="M25.1624 12.82V23.8069L17.4851 20.672V18.1922L12.5833 16.1888L7.68156 18.1922V20.3105L19.8914 25.2998V30.9102L12.5833 33.8962L5.271 30.9102V25.5848L7.68156 26.5674V29.2896L12.5833 31.2888L15.9148 29.9277L17.4808 29.2896H17.4851V26.9204L5.271 21.9311V16.5674L12.5833 13.5814L19.8914 16.5674V19.0472L22.7518 20.2169V14.4406L14.2172 10.957L16.093 9.11523L25.1624 12.82Z" fill="url(#paint0_linear_5960_3368)"/>
<path d="M22.7518 26.4653L25.1623 27.4479V34.8617L12.5833 40L0 34.8617V12.82L9.06931 9.11523L10.9451 10.957L2.41056 14.4406V33.2369L12.5833 37.3926L22.7518 33.2369V26.4653Z" fill="url(#paint1_linear_5960_3368)"/>
<path d="M15.1255 0H10.037L5.06738 3.9345L6.11564 4.9596L7.26575 4.04934L10.5463 1.4547H14.6247L17.9053 4.04934L19.0554 4.9596L20.1037 3.9345L15.1255 0ZM12.5792 9.26415L7.91507 4.69162L6.76496 5.60188L12.5792 11.3016L18.3976 5.60188L17.2475 4.69162L12.5834 9.26415H12.5792Z" fill="url(#paint2_linear_5960_3368)"/>
<path d="M14.3065 2.36523H12.5792H10.8562L8.63232 4.12619L12.5792 7.99263L16.5261 4.12619L14.3065 2.36523Z" fill="url(#paint3_linear_5960_3368)"/>
<path d="M46.3623 23.2454C45.9851 22.7364 45.5055 22.3263 44.9281 22.0104C44.3507 21.6993 43.5963 21.3552 42.6697 20.9876C41.7617 20.6388 41.0911 20.3607 40.6534 20.1391C40.2157 19.9223 39.8851 19.6725 39.6616 19.3944C39.4381 19.1163 39.3263 18.758 39.3263 18.3196C39.3263 17.6833 39.5452 17.1931 39.9922 16.8537C40.4392 16.5143 41.0679 16.3446 41.8827 16.3446C42.8373 16.3446 43.5917 16.5756 44.1318 17.0328C44.6766 17.49 44.9467 18.0604 44.9467 18.7533V19.0503C44.9467 19.187 45.0119 19.2529 45.1469 19.2529H46.6184C46.7488 19.2529 46.814 19.187 46.814 19.0503V18.6543C46.814 17.8718 46.6137 17.1789 46.2133 16.585C45.8128 15.9864 45.2494 15.5244 44.5137 15.1898C43.7826 14.8598 42.9305 14.6948 41.9572 14.6948C40.5836 14.6948 39.4893 15.0201 38.6884 15.6706C37.8828 16.321 37.4777 17.2119 37.4777 18.3526C37.4777 19.1115 37.6593 19.7385 38.0272 20.2334C38.395 20.7283 38.856 21.129 39.4102 21.4354C39.9643 21.7418 40.7233 22.0764 41.6825 22.4488C42.5486 22.7929 43.2052 23.0899 43.6569 23.335C44.1085 23.5801 44.4531 23.8488 44.6906 24.141C44.9281 24.4286 45.0445 24.7821 45.0445 25.1922C45.0445 25.8144 44.8163 26.3187 44.3553 26.7053C43.8943 27.0918 43.2145 27.2803 42.3111 27.2803C41.3007 27.2803 40.5091 27.0635 39.9317 26.6251C39.3543 26.1868 39.0656 25.6306 39.0656 24.9518V24.4757C39.0656 24.3437 39.0004 24.2777 38.87 24.2777H37.4358C37.3054 24.2777 37.2402 24.3437 37.2402 24.4757V25.0508C37.2402 25.8332 37.4405 26.5167 37.8409 27.0965C38.2414 27.681 38.8095 28.1335 39.5498 28.4493C40.2902 28.7699 41.1656 28.9301 42.1714 28.9301C43.6569 28.9301 44.8163 28.5907 45.6592 27.9025C46.502 27.2191 46.9257 26.2952 46.9257 25.1262C46.9257 24.3673 46.7348 23.7357 46.3576 23.2266L46.3623 23.2454Z" fill="#727272"/>
<path d="M63.3445 28.544L60.4948 22.5765C60.4668 22.5388 60.4808 22.5058 60.5367 22.4775C61.3888 22.2512 62.05 21.8176 62.5343 21.1718C63.0139 20.5307 63.2468 19.7436 63.2468 18.815C63.2468 18.0325 63.0838 17.3396 62.7578 16.7457C62.4319 16.147 61.9662 15.6804 61.3749 15.3504C60.7788 15.0204 60.085 14.8555 59.3027 14.8555H54.0176C53.8826 14.8555 53.8174 14.9215 53.8174 15.0534V28.5817C53.8174 28.7137 53.8826 28.7797 54.0176 28.7797H55.5123C55.6427 28.7797 55.7079 28.7137 55.7079 28.5817V22.7085C55.7079 22.6566 55.7312 22.633 55.7871 22.633H58.6182C58.6555 22.633 58.6834 22.6519 58.6974 22.6943L61.4494 28.643C61.4866 28.7372 61.5611 28.7797 61.6636 28.7797H63.2142C63.3166 28.7797 63.3725 28.7325 63.3725 28.643C63.3725 28.6053 63.3678 28.5723 63.3539 28.544H63.3445ZM55.7778 21.1247C55.7219 21.1247 55.6986 21.0964 55.6986 21.0445V16.5854C55.6986 16.5335 55.7219 16.5053 55.7778 16.5053H59.0559C59.7544 16.5053 60.3085 16.7174 60.7276 17.1416C61.1467 17.5658 61.3562 18.1268 61.3562 18.8291C61.3562 19.5314 61.1467 20.0735 60.7276 20.493C60.3085 20.9125 59.7544 21.1199 59.0559 21.1199H55.7778V21.1247Z" fill="#727272"/>
<path d="M71.8754 14.8599H70.3806C70.2502 14.8599 70.1851 14.9259 70.1851 15.0578V28.5861C70.1851 28.7181 70.2502 28.7841 70.3806 28.7841H71.8754C72.0057 28.7841 72.0709 28.7181 72.0709 28.5861V15.0578C72.0709 14.9259 72.0057 14.8599 71.8754 14.8599Z" fill="#727272"/>
<path d="M87.1251 19.4134L88.6199 19.338C88.6711 19.338 88.7176 19.3191 88.7549 19.2767C88.7921 19.239 88.8154 19.1871 88.8154 19.1211V19.1023C88.8154 18.2255 88.6152 17.4572 88.2147 16.7926C87.8143 16.128 87.2555 15.6189 86.5337 15.2512C85.812 14.8883 84.9831 14.6997 84.0379 14.6997C83.0926 14.6997 82.2591 14.893 81.5327 15.2653C80.8063 15.6424 80.2428 16.1751 79.8377 16.8586C79.4373 17.5421 79.2417 18.334 79.2417 19.2343V24.3863C79.2417 25.2913 79.4419 26.0879 79.8377 26.7856C80.2382 27.4832 80.8016 28.0206 81.5327 28.3929C82.2591 28.77 83.0973 28.9586 84.0379 28.9586C84.9785 28.9586 85.812 28.7747 86.5337 28.4024C87.2555 28.03 87.8143 27.5115 88.2147 26.8421C88.6152 26.1728 88.8154 25.3997 88.8154 24.523C88.8154 24.391 88.7502 24.325 88.6199 24.325L87.1251 24.2449C86.9947 24.2449 86.9296 24.3062 86.9296 24.424V24.4617C86.9296 25.3102 86.6641 25.9937 86.1426 26.5122C85.6164 27.026 84.918 27.2852 84.0379 27.2852C83.1578 27.2852 82.4593 27.026 81.9238 26.5122C81.393 25.9937 81.1276 25.3102 81.1276 24.4617V19.1683C81.1276 18.3198 81.393 17.6363 81.9238 17.1178C82.4547 16.604 83.1625 16.3448 84.0379 16.3448C84.9133 16.3448 85.6164 16.604 86.1426 17.1178C86.6641 17.6363 86.9296 18.3198 86.9296 19.1683V19.2295C86.9296 19.3474 86.9947 19.4087 87.1251 19.4087V19.4134Z" fill="#F24998"/>
<path d="M105.872 28.5672L101.532 15.0201C101.49 14.9117 101.411 14.8599 101.295 14.8599H99.3296C99.2085 14.8599 99.1294 14.9117 99.0921 15.0201L94.7895 28.5672C94.7476 28.7134 94.7988 28.7841 94.9432 28.7841H96.5357C96.6521 28.7841 96.7313 28.7322 96.7732 28.6238C96.7732 28.6238 100.354 17.2167 100.368 17.245L103.87 28.6238C103.907 28.7322 103.986 28.7841 104.102 28.7841H105.718C105.835 28.7841 105.895 28.7369 105.895 28.6474L105.877 28.5672H105.872Z" fill="#F24998"/>
<path d="M122.249 14.8602H120.754C120.619 14.8602 120.554 14.9262 120.554 15.0582L120.573 25.1454C120.573 25.1831 120.559 25.2067 120.536 25.2161C120.508 25.2208 120.489 25.2067 120.475 25.1643L114.342 14.9969C114.277 14.9026 114.198 14.8555 114.105 14.8555H112.652C112.522 14.8555 112.457 14.9215 112.457 15.0534V28.5817C112.457 28.7137 112.522 28.7797 112.652 28.7797H114.147C114.277 28.7797 114.342 28.7137 114.342 28.5817L114.324 18.4944C114.324 18.4567 114.338 18.4331 114.366 18.4237C114.389 18.419 114.412 18.4331 114.426 18.4756L120.577 28.643C120.643 28.7372 120.722 28.7797 120.815 28.7797H122.249C122.38 28.7797 122.445 28.7137 122.445 28.5817V15.0534C122.445 14.9215 122.38 14.8555 122.249 14.8555V14.8602Z" fill="#F24998"/>
<path d="M138.011 15.944C137.201 15.2228 136.112 14.8599 134.747 14.8599H129.993C129.863 14.8599 129.797 14.9259 129.797 15.0578V28.5861C129.797 28.7181 129.863 28.7841 129.993 28.7841H134.747C136.112 28.7841 137.201 28.4211 138.011 27.6999C138.826 26.9787 139.231 26.0124 139.231 24.8057V18.8382C139.231 17.6315 138.826 16.6699 138.011 15.944ZM137.346 24.5276C137.332 25.3242 137.099 25.9559 136.647 26.4272C136.195 26.8986 135.585 27.1343 134.826 27.1343H131.762C131.707 27.1343 131.683 27.106 131.683 27.0541V16.5898C131.683 16.5379 131.707 16.5096 131.762 16.5096H134.826C135.599 16.5096 136.214 16.7453 136.666 17.2167C137.117 17.6881 137.346 18.3244 137.346 19.1163V24.5276Z" fill="#F24998"/>
<path d="M154.98 14.9262C154.947 14.879 154.896 14.8555 154.831 14.8555H153.201C153.084 14.8555 153.005 14.9026 152.968 14.9969L149.96 20.8277C149.946 20.856 149.927 20.8654 149.899 20.8654C149.871 20.8654 149.853 20.856 149.839 20.8277L146.831 14.9969C146.793 14.9026 146.714 14.8555 146.593 14.8555H144.982C144.875 14.8555 144.824 14.9026 144.824 14.9969C144.824 15.0346 144.828 15.0676 144.842 15.0959L148.931 22.8734C148.931 22.8734 148.949 22.9206 148.949 22.9724V28.5628C148.949 28.6948 149.015 28.7608 149.145 28.7608H150.64C150.77 28.7608 150.84 28.6948 150.84 28.5628V22.9724C150.84 22.9206 150.84 22.8876 150.859 22.8734L154.966 15.0959C155.007 15.0299 155.012 14.9686 154.975 14.9262H154.98Z" fill="#F24998"/>
<defs>
<linearGradient id="paint0_linear_5960_3368" x1="15.2146" y1="13.75" x2="15.2146" y2="51.25" gradientUnits="userSpaceOnUse">
<stop stop-color="#A0A0A0"/>
<stop offset="1" stop-color="#676767"/>
</linearGradient>
<linearGradient id="paint1_linear_5960_3368" x1="12.579" y1="8.75002" x2="12.579" y2="46.25" gradientUnits="userSpaceOnUse">
<stop offset="0.157832" stop-color="#A0A0A0"/>
<stop offset="1" stop-color="#676767"/>
</linearGradient>
<linearGradient id="paint2_linear_5960_3368" x1="12.5792" y1="13.071" x2="12.5792" y2="-3.66227" gradientUnits="userSpaceOnUse">
<stop stop-color="#FFBABA"/>
<stop offset="1" stop-color="#FF359D"/>
</linearGradient>
<linearGradient id="paint3_linear_5960_3368" x1="12.5792" y1="13.0713" x2="12.5792" y2="-3.66199" gradientUnits="userSpaceOnUse">
<stop stop-color="#FFBABA"/>
<stop offset="1" stop-color="#FF359D"/>
</linearGradient>
</defs>
</svg>
