<svg width="158" height="157" viewBox="0 0 158 157" fill="none" xmlns="http://www.w3.org/2000/svg">
<circle cx="79" cy="78.5" r="78.5" fill="#CBD2D9"/>
<path d="M79.0379 61.9495C93.755 61.9495 107.285 66.9996 117.958 75.4515C121.098 77.9373 121.375 82.5688 118.539 85.3817C116.124 87.776 112.285 87.9984 109.62 85.8854C101.236 79.2391 90.6018 75.2618 79.0379 75.2618C67.474 75.2618 56.8336 79.2391 48.4559 85.8854C45.7908 87.9984 41.9516 87.776 39.5372 85.3817C36.7006 82.5688 36.9777 77.9373 40.1177 75.4515C50.7911 66.9996 64.3208 61.9495 79.0379 61.9495Z" fill="#EAEDF0"/>
<path d="M120.504 45.4318C126.534 48.5718 132.154 52.3725 137.266 56.7424C140.215 59.2609 140.354 63.7485 137.603 66.4698L137.57 66.5025C135.109 68.9426 131.164 69.0996 128.532 66.8492C115.247 55.4995 97.9503 48.6307 79.0378 48.6307C60.1252 48.6307 42.8288 55.4929 29.5432 66.8492C26.9045 69.0996 22.9663 68.9426 20.5058 66.5025L20.4728 66.4698C17.722 63.7419 17.8605 59.2544 20.8092 56.7424C36.4433 43.3974 56.7939 35.325 79.0378 35.325C94.0055 35.325 108.116 38.9752 120.504 45.4318Z" fill="#EAEDF0"/>
<path d="M118.539 85.3817C116.124 87.776 112.285 87.9984 109.62 85.8854C101.236 79.2391 90.6018 75.2618 79.0379 75.2618C67.474 75.2618 56.8336 79.2391 48.4559 85.8854C45.7908 87.9984 41.9516 87.776 39.5372 85.3817C36.7006 82.5688 36.9777 77.9373 40.1177 75.4515C50.7911 66.9996 64.3208 61.9495 79.0379 61.9495C93.755 61.9495 107.285 66.9996 117.958 75.4515C121.098 77.9373 121.375 82.5688 118.539 85.3817Z" fill="#EAEDF0"/>
<path d="M118.539 85.3817C116.124 87.776 112.285 87.9984 109.62 85.8854C101.236 79.2391 90.6018 75.2618 79.0379 75.2618C67.474 75.2618 56.8336 79.2391 48.4559 85.8854C45.7908 87.9984 41.9516 87.776 39.5372 85.3817C36.7006 82.5688 36.9777 77.9373 40.1177 75.4515C50.7911 66.9996 64.3208 61.9495 79.0379 61.9495C93.755 61.9495 107.285 66.9996 117.958 75.4515C121.098 77.9373 121.375 82.5688 118.539 85.3817Z" fill="#EAEDF0"/>
<path d="M99.3291 104.431L99.3225 104.438C97.0995 106.642 93.6296 107.022 90.9844 105.34C87.5343 103.149 83.4378 101.88 79.0445 101.88C74.6511 101.88 70.5546 103.149 67.1046 105.34C64.4593 107.022 60.9895 106.642 58.7664 104.438L58.7598 104.431C55.7649 101.461 56.2201 96.4635 59.7823 94.187C65.3367 90.6348 71.9465 88.5742 79.0511 88.5742C86.1557 88.5742 92.7655 90.6348 98.3198 94.187C101.862 96.4635 102.324 101.461 99.3291 104.431Z" fill="#EAEDF0"/>
<path d="M87.7782 123.866C87.7782 126.437 86.6502 128.74 84.8625 130.33C83.3189 131.703 81.2739 132.534 79.0377 132.534C76.8014 132.534 74.7565 131.703 73.2128 130.33C71.4252 128.74 70.2971 126.437 70.2971 123.866C70.2971 121.649 71.1349 119.621 72.5202 118.09C74.1232 116.317 76.4452 115.199 79.0377 115.199C81.6301 115.199 83.9522 116.317 85.5551 118.09C86.9404 119.621 87.7782 121.649 87.7782 123.866Z" fill="#EAEDF0"/>
<path d="M79.0379 61.9495C93.755 61.9495 107.285 66.9996 117.958 75.4515C121.098 77.9373 121.375 82.5688 118.539 85.3817C116.124 87.776 112.285 87.9984 109.62 85.8854C101.236 79.2391 90.6018 75.2618 79.0379 75.2618C67.474 75.2618 56.8336 79.2391 48.4559 85.8854C45.7908 87.9984 41.9516 87.776 39.5372 85.3817C36.7006 82.5688 36.9777 77.9373 40.1177 75.4515C50.7911 66.9996 64.3208 61.9495 79.0379 61.9495Z" stroke="#52616B" stroke-width="4" stroke-miterlimit="10" stroke-linecap="round" stroke-linejoin="round"/>
<path d="M105.688 39.335C108.492 40.205 111.243 41.2059 113.921 42.3376" stroke="#52616B" stroke-width="4" stroke-miterlimit="10" stroke-linecap="round" stroke-linejoin="round"/>
<path d="M120.504 45.4318C126.534 48.5718 132.154 52.3725 137.266 56.7424C140.215 59.2609 140.354 63.7485 137.603 66.4698L137.57 66.5025C135.109 68.9426 131.164 69.0996 128.532 66.8492C115.247 55.4995 97.9503 48.6307 79.0378 48.6307C60.1252 48.6307 42.8288 55.4929 29.5432 66.8492C26.9045 69.0996 22.9663 68.9426 20.5058 66.5025L20.4728 66.4698C17.722 63.7419 17.8605 59.2544 20.8092 56.7424C36.4433 43.3974 56.7939 35.325 79.0378 35.325C85.4827 35.325 91.7693 36.0053 97.825 37.2875" stroke="#52616B" stroke-width="4" stroke-miterlimit="10" stroke-linecap="round" stroke-linejoin="round"/>
<path d="M99.3291 104.431L99.3225 104.438C97.0995 106.642 93.6296 107.022 90.9844 105.34C87.5343 103.149 83.4378 101.88 79.0445 101.88C74.6511 101.88 70.5546 103.149 67.1046 105.34C64.4593 107.022 60.9895 106.642 58.7664 104.438L58.7598 104.431C55.7649 101.461 56.2201 96.4635 59.7823 94.187C65.3367 90.6348 71.9465 88.5742 79.0511 88.5742C86.1557 88.5742 92.7655 90.6348 98.3198 94.187C101.862 96.4635 102.324 101.461 99.3291 104.431Z" stroke="#52616B" stroke-width="4" stroke-miterlimit="10" stroke-linecap="round" stroke-linejoin="round"/>
<path d="M87.7782 123.866C87.7782 126.437 86.6502 128.74 84.8625 130.33C83.3189 131.703 81.2739 132.534 79.0377 132.534C76.8014 132.534 74.7565 131.703 73.2128 130.33C71.4252 128.74 70.2971 126.437 70.2971 123.866C70.2971 121.649 71.1349 119.621 72.5202 118.09C74.1232 116.317 76.4452 115.199 79.0377 115.199C81.6301 115.199 83.9522 116.317 85.5551 118.09C86.9404 119.621 87.7782 121.649 87.7782 123.866Z" stroke="#52616B" stroke-width="4" stroke-miterlimit="10"/>
<ellipse cx="109.015" cy="42.8479" rx="18.8004" ry="18.6438" fill="#CBD2D9" stroke="#52616B" stroke-width="4"/>
<path d="M109.015 31.3748V46.9112" stroke="#52616B" stroke-width="4" stroke-linecap="round" stroke-linejoin="round"/>
<ellipse cx="109.015" cy="51.9307" rx="1.92825" ry="1.91218" fill="#52616B"/>
</svg>
