<svg width="180" height="180" viewBox="0 0 180 180" fill="none" xmlns="http://www.w3.org/2000/svg">
<ellipse opacity="0.1" cx="90" cy="174.6" rx="90" ry="5.4" fill="#FF47A1"/>
<path fill-rule="evenodd" clip-rule="evenodd" d="M82.3482 38.8895C82.3482 35.3055 85.2537 32.4 88.8377 32.4C92.4218 32.4 95.3272 35.3055 95.3272 38.8895C95.3272 40.7184 94.5706 42.3707 93.3533 43.5503C111.468 45.2455 124.582 57.1962 126.188 75.2634C129.852 73.1861 134.088 72 138.6 72C152.518 72 163.8 83.2824 163.8 97.2C163.8 109.68 154.728 120.041 142.82 122.048C143.566 123.183 144 124.541 144 126C144 129.976 140.776 133.2 136.8 133.2H106.134C105.393 141.459 98.4523 147.932 90 147.932C81.5477 147.932 74.6073 141.459 73.8656 133.2H43.2C39.2236 133.2 36 129.976 36 126C36 122.024 39.2236 118.8 43.2 118.8H49.5229V82.6582C49.5229 62.4565 64.7593 45.8135 84.3675 43.5938C83.1237 42.4115 82.3482 40.7411 82.3482 38.8895ZM122.714 77.2583C122.72 77.3749 122.735 77.4888 122.76 77.5992C117.051 82.2191 113.4 89.2832 113.4 97.2C113.4 106.367 118.295 114.39 125.613 118.8H53.1229V82.6582C53.1229 62.9329 69.1134 46.9424 88.8386 46.9424C107.957 46.9424 121.876 58.5821 122.714 77.2583ZM77.5276 133.532C78.401 139.638 83.6524 144.332 90 144.332C96.3477 144.332 101.599 139.638 102.472 133.532H77.5276ZM39.6 41.1943C39.6 40.3138 40.3138 39.6 41.1943 39.6C42.0748 39.6 42.7886 40.3138 42.7886 41.1943C42.7886 42.0748 42.0748 42.7886 41.1943 42.7886C40.3138 42.7886 39.6 42.0748 39.6 41.1943ZM41.1943 36C38.3256 36 36 38.3256 36 41.1943C36 44.063 38.3256 46.3886 41.1943 46.3886C44.063 46.3886 46.3886 44.063 46.3886 41.1943C46.3886 38.3256 44.063 36 41.1943 36ZM138.6 75.6C126.671 75.6 117 85.2707 117 97.2C117 109.129 126.671 118.8 138.6 118.8C150.529 118.8 160.2 109.129 160.2 97.2C160.2 85.2707 150.529 75.6 138.6 75.6ZM138.6 81C136.115 81 134.1 83.0147 134.1 85.5V96.3C134.1 98.7853 136.115 100.8 138.6 100.8C141.085 100.8 143.1 98.7853 143.1 96.3V85.5C143.1 83.0147 141.085 81 138.6 81ZM137.7 85.5C137.7 85.003 138.103 84.6 138.6 84.6C139.097 84.6 139.5 85.003 139.5 85.5V96.3C139.5 96.7971 139.097 97.2 138.6 97.2C138.103 97.2 137.7 96.7971 137.7 96.3V85.5ZM134.1 108.9C134.1 111.385 136.115 113.4 138.6 113.4C141.085 113.4 143.1 111.385 143.1 108.9C143.1 106.415 141.085 104.4 138.6 104.4C136.115 104.4 134.1 106.415 134.1 108.9ZM138.6 109.8C138.103 109.8 137.7 109.397 137.7 108.9C137.7 108.403 138.103 108 138.6 108C139.097 108 139.5 108.403 139.5 108.9C139.5 109.397 139.097 109.8 138.6 109.8ZM61.0644 42.3312C61.4459 42.1551 61.8974 42.3287 62.0628 42.715L62.1187 42.8456C62.3042 43.2791 62.1099 43.796 61.669 43.9996C54.6903 47.2203 50.584 52.1492 48.2195 56.2595C47.0356 58.3175 46.2875 60.1724 45.8367 61.5066C45.6114 62.1734 45.4608 62.7092 45.3672 63.0738C45.3205 63.2561 45.288 63.3956 45.2677 63.4871C45.2576 63.5329 45.2505 63.5667 45.2461 63.5878L45.2445 63.5956L45.2426 63.605L45.3109 63.3008L45.2391 63.623L45.2307 63.6669C45.1467 64.1081 44.7179 64.3952 44.278 64.3048C43.8469 64.2163 43.5668 63.798 43.6492 63.3657L43.6736 63.2374L43.6741 63.2351L43.6749 63.2306L43.6764 63.2231L43.6842 63.1845L43.6848 63.1816C43.6911 63.1509 43.7002 63.1081 43.7122 63.054C43.737 62.9423 43.7744 62.7818 43.8267 62.5778C43.9313 62.1698 44.0957 61.587 44.3378 60.8703C44.8219 59.4375 45.6185 57.4655 46.8734 55.2839C49.3869 50.9145 53.7354 45.7136 61.0644 42.3312ZM40.1382 62.5693L40.1128 62.692C39.6621 65.0577 41.1947 67.3467 43.5537 67.8312C45.961 68.3257 48.3073 66.7547 48.7671 64.3405L48.7729 64.3102L48.7823 64.2668C48.7945 64.2119 48.8178 64.1108 48.8544 63.9682C48.9276 63.6826 49.0532 63.2334 49.2473 62.659C49.6367 61.5064 50.2937 59.8736 51.3401 58.0546C53.4232 54.4333 57.0238 50.1083 63.1775 47.2683C65.3753 46.2539 66.3863 43.6673 65.4283 41.429L65.3724 41.2984C64.4092 39.0481 61.7784 38.0368 59.5559 39.0625C51.4013 42.826 46.5472 48.6313 43.7529 53.4889C42.3604 55.9095 41.4727 58.1035 40.9272 59.718C40.6539 60.5271 40.4645 61.1964 40.3396 61.6835C40.2771 61.9272 40.2305 62.1259 40.1976 62.2743C40.1812 62.3486 40.1681 62.4103 40.1581 62.4589L40.1568 62.465L40.0932 62.8022L40.125 62.6336L40.2098 62.2198L40.1568 62.465L40.1382 62.5693Z" fill="#FF47A1"/>
</svg>
