<svg width="180" height="180" viewBox="0 0 180 180" fill="none" xmlns="http://www.w3.org/2000/svg">
<ellipse opacity="0.1" cx="90" cy="174.6" rx="90" ry="5.4" fill="#D6C792"/>
<path fill-rule="evenodd" clip-rule="evenodd" d="M69.6727 39.5998C70.8479 35.4445 74.6684 32.3998 79.2 32.3998H115.713C112.669 34.2339 110.044 36.6931 108.017 39.5998H69.6727ZM105.925 43.1998H53.1C47.1353 43.1998 42.3 48.0351 42.3 53.9998V120.6H98.1H99C99.9941 120.6 100.8 121.406 100.8 122.4V131.85C100.8 139.554 107.046 145.8 114.75 145.8C122.454 145.8 128.7 139.554 128.7 131.85V79.1998C114.782 79.1998 103.5 67.9174 103.5 53.9998C103.5 50.1349 104.37 46.4731 105.925 43.1998ZM132.3 78.9446V129.45C137.408 128.594 141.3 124.151 141.3 118.8V75.8285C138.58 77.4017 135.54 78.4812 132.3 78.9446ZM144.9 73.3034V118.8C144.9 126.158 139.381 132.227 132.257 133.094C131.618 142.206 124.024 149.4 114.75 149.4C114.593 149.4 114.436 149.398 114.28 149.394L114.3 149.4H49.5C39.5589 149.4 31.5 141.341 31.5 131.4V127.8C31.5 123.823 34.7235 120.6 38.7 120.6V53.9998C38.7 46.0469 45.1471 39.5998 53.1 39.5998H65.9701C67.2209 33.4378 72.6688 28.7998 79.2 28.7998H126.9V28.8631C127.495 28.8211 128.095 28.7998 128.7 28.7998C142.618 28.7998 153.9 40.0822 153.9 53.9998C153.9 61.7487 150.402 68.6808 144.9 73.3034ZM21.6 138.15C21.6 137.404 22.2044 136.8 22.95 136.8C23.6956 136.8 24.3 137.404 24.3 138.15V138.6C24.3 148.541 32.3589 156.6 42.3 156.6H46.44C47.1359 156.6 47.7 157.164 47.7 157.86C47.7 158.556 47.1359 159.12 46.44 159.12H42.3C30.3514 159.12 21.6 150.51 21.6 138.6V138.15ZM22.95 133.2C20.2162 133.2 18 135.416 18 138.15V138.6C18 152.536 28.4016 162.72 42.3 162.72H46.44C49.1241 162.72 51.3 160.544 51.3 157.86C51.3 155.176 49.1241 153 46.44 153H42.3C34.3471 153 27.9 146.553 27.9 138.6V138.15C27.9 135.416 25.6838 133.2 22.95 133.2ZM51.3 90.8998C51.3 88.4145 53.3147 86.3998 55.8 86.3998H82.8C85.2853 86.3998 87.3 88.4145 87.3 90.8998C87.3 93.3851 85.2853 95.3998 82.8 95.3998H55.8C53.3147 95.3998 51.3 93.3851 51.3 90.8998ZM55.8 89.9998C55.3029 89.9998 54.9 90.4027 54.9 90.8998C54.9 91.3969 55.3029 91.7998 55.8 91.7998H82.8C83.2971 91.7998 83.7 91.3969 83.7 90.8998C83.7 90.4027 83.2971 89.9998 82.8 89.9998H55.8ZM51.3 105.3C51.3 102.815 53.3147 100.8 55.8 100.8H109.8C112.285 100.8 114.3 102.815 114.3 105.3C114.3 107.785 112.285 109.8 109.8 109.8H55.8C53.3147 109.8 51.3 107.785 51.3 105.3ZM55.8 104.4C55.3029 104.4 54.9 104.803 54.9 105.3C54.9 105.797 55.3029 106.2 55.8 106.2H109.8C110.297 106.2 110.7 105.797 110.7 105.3C110.7 104.803 110.297 104.4 109.8 104.4H55.8ZM107.1 53.9998C107.1 42.0705 116.771 32.3998 128.7 32.3998C140.629 32.3998 150.3 42.0705 150.3 53.9998C150.3 65.9292 140.629 75.5998 128.7 75.5998C116.771 75.5998 107.1 65.9292 107.1 53.9998ZM124.2 42.2998C124.2 39.8145 126.215 37.7998 128.7 37.7998C131.185 37.7998 133.2 39.8145 133.2 42.2998V53.0998C133.2 55.5851 131.185 57.5998 128.7 57.5998C126.215 57.5998 124.2 55.5851 124.2 53.0998V42.2998ZM128.7 41.3998C128.203 41.3998 127.8 41.8027 127.8 42.2998V53.0998C127.8 53.5969 128.203 53.9998 128.7 53.9998C129.197 53.9998 129.6 53.5969 129.6 53.0998V42.2998C129.6 41.8027 129.197 41.3998 128.7 41.3998ZM128.7 70.1998C126.215 70.1998 124.2 68.1851 124.2 65.6998C124.2 63.2145 126.215 61.1998 128.7 61.1998C131.185 61.1998 133.2 63.2145 133.2 65.6998C133.2 68.1851 131.185 70.1998 128.7 70.1998ZM127.8 65.6998C127.8 66.1969 128.203 66.5998 128.7 66.5998C129.197 66.5998 129.6 66.1969 129.6 65.6998C129.6 65.2027 129.197 64.7998 128.7 64.7998C128.203 64.7998 127.8 65.2027 127.8 65.6998Z" fill="#D6C792"/>
<path d="M53.0063 55.418H58.6583C60.1343 55.418 61.2863 55.79 62.1143 56.534C62.9543 57.278 63.3743 58.346 63.3743 59.738C63.3743 60.674 63.1703 61.472 62.7623 62.132C62.3543 62.792 61.7783 63.284 61.0343 63.608L63.2663 68H59.9903L57.9923 64.058H56.1923V68H53.0063V55.418ZM58.1003 61.376C58.7363 61.376 59.2283 61.256 59.5763 61.016C59.9243 60.764 60.0983 60.338 60.0983 59.738C60.0983 59.114 59.9243 58.688 59.5763 58.46C59.2403 58.22 58.7483 58.1 58.1003 58.1H56.1923V61.376H58.1003ZM64.643 59.36H67.703V60.224C68.507 59.468 69.527 59.09 70.763 59.09C71.663 59.09 72.461 59.282 73.157 59.666C73.853 60.038 74.393 60.572 74.777 61.268C75.161 61.952 75.353 62.75 75.353 63.662C75.353 64.562 75.161 65.366 74.777 66.074C74.393 66.77 73.853 67.31 73.157 67.694C72.473 68.078 71.675 68.27 70.763 68.27C70.187 68.27 69.635 68.18 69.107 68C68.591 67.832 68.159 67.598 67.811 67.298V71.942H64.643V59.36ZM69.935 65.804C70.583 65.804 71.105 65.612 71.501 65.228C71.897 64.844 72.095 64.322 72.095 63.662C72.095 63.002 71.897 62.486 71.501 62.114C71.105 61.73 70.583 61.538 69.935 61.538C69.455 61.538 69.023 61.664 68.639 61.916C68.255 62.156 67.979 62.486 67.811 62.906V64.436C67.979 64.856 68.255 65.192 68.639 65.444C69.023 65.684 69.455 65.804 69.935 65.804Z" fill="#D6C792"/>
</svg>
