<svg width="180" height="180" viewBox="0 0 180 180" fill="none" xmlns="http://www.w3.org/2000/svg">
<ellipse opacity="0.1" cx="90" cy="174.6" rx="90" ry="5.4" fill="#FF47A1"/>
<path fill-rule="evenodd" clip-rule="evenodd" d="M69.6727 39.6C70.8479 35.4447 74.6684 32.4 79.2 32.4H115.713C112.669 34.2341 110.044 36.6934 108.017 39.6H69.6727ZM105.925 43.2H53.1C47.1353 43.2 42.3 48.0354 42.3 54V120.6H98.1H99C99.9941 120.6 100.8 121.406 100.8 122.4V131.85C100.8 139.554 107.046 145.8 114.75 145.8C122.454 145.8 128.7 139.554 128.7 131.85V79.2C114.782 79.2 103.5 67.9176 103.5 54C103.5 50.1351 104.37 46.4734 105.925 43.2ZM132.3 78.9448V129.451C137.408 128.594 141.3 124.151 141.3 118.8V75.8287C138.58 77.4019 135.54 78.4815 132.3 78.9448ZM144.9 73.3037V118.8C144.9 126.158 139.381 132.228 132.257 133.094C131.618 142.206 124.024 149.4 114.75 149.4C114.593 149.4 114.436 149.398 114.28 149.394L114.3 149.4H49.5C39.5589 149.4 31.5 141.341 31.5 131.4V127.8C31.5 123.824 34.7235 120.6 38.7 120.6V54C38.7 46.0471 45.1471 39.6 53.1 39.6H65.9701C67.2209 33.438 72.6688 28.8 79.2 28.8H126.9V28.8633C127.495 28.8214 128.095 28.8 128.7 28.8C142.618 28.8 153.9 40.0825 153.9 54C153.9 61.749 150.402 68.681 144.9 73.3037ZM21.6 138.15C21.6 137.404 22.2044 136.8 22.95 136.8C23.6956 136.8 24.3 137.404 24.3 138.15V138.6C24.3 148.541 32.3589 156.6 42.3 156.6H46.44C47.1359 156.6 47.7 157.164 47.7 157.86C47.7 158.556 47.1359 159.12 46.44 159.12H42.3C30.3514 159.12 21.6 150.51 21.6 138.6V138.15ZM22.95 133.2C20.2162 133.2 18 135.416 18 138.15V138.6C18 152.537 28.4016 162.72 42.3 162.72H46.44C49.1241 162.72 51.3 160.544 51.3 157.86C51.3 155.176 49.1241 153 46.44 153H42.3C34.3471 153 27.9 146.553 27.9 138.6V138.15C27.9 135.416 25.6838 133.2 22.95 133.2ZM51.3 90.9C51.3 88.4148 53.3147 86.4 55.8 86.4H82.8C85.2853 86.4 87.3 88.4148 87.3 90.9C87.3 93.3853 85.2853 95.4 82.8 95.4H55.8C53.3147 95.4 51.3 93.3853 51.3 90.9ZM55.8 90C55.3029 90 54.9 90.403 54.9 90.9C54.9 91.3971 55.3029 91.8 55.8 91.8H82.8C83.2971 91.8 83.7 91.3971 83.7 90.9C83.7 90.403 83.2971 90 82.8 90H55.8ZM51.3 105.3C51.3 102.815 53.3147 100.8 55.8 100.8H109.8C112.285 100.8 114.3 102.815 114.3 105.3C114.3 107.785 112.285 109.8 109.8 109.8H55.8C53.3147 109.8 51.3 107.785 51.3 105.3ZM55.8 104.4C55.3029 104.4 54.9 104.803 54.9 105.3C54.9 105.797 55.3029 106.2 55.8 106.2H109.8C110.297 106.2 110.7 105.797 110.7 105.3C110.7 104.803 110.297 104.4 109.8 104.4H55.8ZM107.1 54C107.1 42.0707 116.771 32.4 128.7 32.4C140.629 32.4 150.3 42.0707 150.3 54C150.3 65.9294 140.629 75.6 128.7 75.6C116.771 75.6 107.1 65.9294 107.1 54ZM124.2 42.3C124.2 39.8148 126.215 37.8 128.7 37.8C131.185 37.8 133.2 39.8148 133.2 42.3V53.1C133.2 55.5853 131.185 57.6 128.7 57.6C126.215 57.6 124.2 55.5853 124.2 53.1V42.3ZM128.7 41.4C128.203 41.4 127.8 41.803 127.8 42.3V53.1C127.8 53.5971 128.203 54 128.7 54C129.197 54 129.6 53.5971 129.6 53.1V42.3C129.6 41.803 129.197 41.4 128.7 41.4ZM128.7 70.2C126.215 70.2 124.2 68.1853 124.2 65.7C124.2 63.2148 126.215 61.2 128.7 61.2C131.185 61.2 133.2 63.2148 133.2 65.7C133.2 68.1853 131.185 70.2 128.7 70.2ZM127.8 65.7C127.8 66.1971 128.203 66.6 128.7 66.6C129.197 66.6 129.6 66.1971 129.6 65.7C129.6 65.203 129.197 64.8 128.7 64.8C128.203 64.8 127.8 65.203 127.8 65.7Z" fill="#FF47A1"/>
<path d="M53.0063 55.4182H58.6583C60.1343 55.4182 61.2863 55.7902 62.1143 56.5342C62.9543 57.2782 63.3743 58.3462 63.3743 59.7382C63.3743 60.6742 63.1703 61.4722 62.7623 62.1322C62.3543 62.7922 61.7783 63.2842 61.0343 63.6082L63.2663 68.0002H59.9903L57.9923 64.0582H56.1923V68.0002H53.0063V55.4182ZM58.1003 61.3762C58.7363 61.3762 59.2283 61.2562 59.5763 61.0162C59.9243 60.7642 60.0983 60.3382 60.0983 59.7382C60.0983 59.1142 59.9243 58.6882 59.5763 58.4602C59.2403 58.2202 58.7483 58.1002 58.1003 58.1002H56.1923V61.3762H58.1003ZM64.643 59.3602H67.703V60.2242C68.507 59.4682 69.527 59.0902 70.763 59.0902C71.663 59.0902 72.461 59.2822 73.157 59.6662C73.853 60.0382 74.393 60.5722 74.777 61.2682C75.161 61.9522 75.353 62.7502 75.353 63.6622C75.353 64.5622 75.161 65.3662 74.777 66.0742C74.393 66.7702 73.853 67.3102 73.157 67.6942C72.473 68.0782 71.675 68.2702 70.763 68.2702C70.187 68.2702 69.635 68.1802 69.107 68.0002C68.591 67.8322 68.159 67.5982 67.811 67.2982V71.9422H64.643V59.3602ZM69.935 65.8042C70.583 65.8042 71.105 65.6122 71.501 65.2282C71.897 64.8442 72.095 64.3222 72.095 63.6622C72.095 63.0022 71.897 62.4862 71.501 62.1142C71.105 61.7302 70.583 61.5382 69.935 61.5382C69.455 61.5382 69.023 61.6642 68.639 61.9162C68.255 62.1562 67.979 62.4862 67.811 62.9062V64.4362C67.979 64.8562 68.255 65.1922 68.639 65.4442C69.023 65.6842 69.455 65.8042 69.935 65.8042Z" fill="#FF47A1"/>
</svg>
