<svg width="60" height="60" viewBox="0 0 60 60" fill="none" xmlns="http://www.w3.org/2000/svg">
<circle cx="30" cy="30" r="30" fill="#F467A9" fill-opacity="0.1"/>
<path fill-rule="evenodd" clip-rule="evenodd" d="M9 12.4748C9 11.6603 9.66031 11 10.4748 11C11.2894 11 11.9497 11.6603 11.9497 12.4748V15.5089C11.9497 16.3234 11.2894 16.9837 10.4748 16.9837C9.66031 16.9837 9 16.3234 9 15.5089V12.4748ZM10.4748 12.1196C10.2786 12.1196 10.1196 12.2786 10.1196 12.4748V15.5089C10.1196 15.705 10.2786 15.8641 10.4748 15.8641C10.671 15.8641 10.8301 15.705 10.8301 15.5089V12.4748C10.8301 12.2786 10.671 12.1196 10.4748 12.1196ZM15.7176 18.2774C15.7176 16.7315 16.9707 15.4784 18.5166 15.4784H37.1443C36.3438 16.4313 35.7659 17.5777 35.4909 18.8372H15.7176V18.2774ZM35.3302 19.9568H13.4784C11.9326 19.9568 10.6794 21.2099 10.6794 22.7558V25.5548L37.1443 25.5548C35.9999 24.1925 35.3106 22.435 35.3106 20.5166C35.3106 20.3284 35.3172 20.1417 35.3302 19.9568ZM44.2673 28.2744V39.5498H45.3869C46.9328 39.5498 48.1859 38.2966 48.1859 36.7508V26.52C47.0936 27.4377 45.7471 28.0627 44.2673 28.2744ZM49.3055 25.3651V36.7508C49.3055 38.9149 47.5511 40.6694 45.3869 40.6694H44.2673V41.2292C44.2673 43.3933 42.5129 45.1477 40.3487 45.1477H13.4784C11.3142 45.1477 9.5598 43.3933 9.5598 41.2292V22.7558C9.5598 20.5916 11.3142 18.8372 13.4784 18.8372H14.598V18.2774C14.598 16.1132 16.3524 14.3588 18.5166 14.3588H38.1096V14.5132C39.4718 13.3687 41.2293 12.6794 43.1477 12.6794C47.4761 12.6794 50.9849 16.1882 50.9849 20.5166C50.9849 22.3472 50.3573 24.0312 49.3055 25.3651ZM10.6794 28.9136L43.1477 28.9136V39.5498V40.6694V41.2292C43.1477 42.775 41.8946 44.0281 40.3487 44.0281H13.4784C11.9326 44.0281 10.6794 42.775 10.6794 41.2292V28.9136ZM47.9814 42.3487C47.1668 42.3487 46.5065 43.0091 46.5065 43.8236V46.8576C46.5065 47.6721 47.1668 48.3324 47.9814 48.3324C48.7959 48.3324 49.4562 47.6721 49.4562 46.8576V43.8236C49.4562 43.0091 48.7959 42.3487 47.9814 42.3487ZM47.6261 43.8236C47.6261 43.6274 47.7852 43.4683 47.9814 43.4683C48.1776 43.4683 48.3366 43.6274 48.3366 43.8236V46.8576C48.3366 47.0538 48.1776 47.2128 47.9814 47.2128C47.7852 47.2128 47.6261 47.0538 47.6261 46.8576V43.8236ZM36.4302 20.5166C36.4302 16.8066 39.4377 13.799 43.1477 13.799C46.8578 13.799 49.8653 16.8066 49.8653 20.5166C49.8653 24.2266 46.8578 27.2342 43.1477 27.2342C39.4377 27.2342 36.4302 24.2266 36.4302 20.5166ZM23.8347 33.9518C23.0618 33.9518 22.4352 34.5783 22.4352 35.3513C22.4352 36.1242 23.0618 36.7508 23.8347 36.7508H38.9492C39.7222 36.7508 40.3487 36.1242 40.3487 35.3513C40.3487 34.5783 39.7222 33.9518 38.9493 33.9518H23.8347ZM23.5548 35.3513C23.5548 35.1967 23.6801 35.0714 23.8347 35.0714H38.9493C39.1038 35.0714 39.2291 35.1967 39.2291 35.3513C39.2291 35.5058 39.1038 35.6312 38.9492 35.6312H23.8347C23.6801 35.6312 23.5548 35.5058 23.5548 35.3513ZM16.5573 37.8704C17.9485 37.8704 19.0764 36.7425 19.0764 35.3513C19.0764 33.96 17.9485 32.8322 16.5573 32.8322C15.166 32.8322 14.0382 33.96 14.0382 35.3513C14.0382 36.7425 15.166 37.8704 16.5573 37.8704Z" fill="#FF47A1"/>
<path d="M44.2777 18.4306L44.2776 18.4302C44.1825 18.0324 43.9634 17.7638 43.619 17.6188V19.6962C43.9968 19.8114 44.2995 19.917 44.5265 20.0132M44.2777 18.4306L44.5071 20.0593M44.2777 18.4306C44.3251 18.6223 44.4022 18.7717 44.5125 18.8734C44.6238 18.976 44.7647 19.026 44.931 19.026C45.1106 19.026 45.2636 18.9565 45.3871 18.8202C45.5129 18.6813 45.5762 18.5168 45.5762 18.3292C45.5762 18.1632 45.5345 17.9831 45.4534 17.7896M44.2777 18.4306L41.8735 20.5185M44.5265 20.0132C44.5266 20.0132 44.5266 20.0132 44.5266 20.0132L44.5071 20.0593M44.5265 20.0132C44.5265 20.0132 44.5265 20.0132 44.5264 20.0131L44.5071 20.0593M44.5265 20.0132C44.7675 20.1139 44.9824 20.2596 45.171 20.4498M44.5071 20.0593C44.7421 20.1574 44.9516 20.2994 45.1357 20.4852M45.171 20.4498C45.1709 20.4497 45.1708 20.4496 45.1707 20.4495L45.1357 20.4852M45.171 20.4498C45.3729 20.6477 45.5274 20.885 45.6346 21.1609M45.171 20.4498C45.1711 20.4499 45.1711 20.45 45.1712 20.45L45.1357 20.4852M45.1357 20.4852L45.6346 21.1609M45.6346 21.1609C45.6345 21.1608 45.6345 21.1607 45.6344 21.1606L45.5881 21.1794L45.6347 21.1613C45.6347 21.1612 45.6346 21.161 45.6346 21.1609ZM41.8735 20.5185L41.873 20.5183C41.5795 20.3526 41.3416 20.1184 41.1596 19.8169C40.9757 19.5124 40.8857 19.124 40.8857 18.6552C40.8857 18.042 41.062 17.5352 41.4175 17.1389L41.4177 17.1387C41.7692 16.7506 42.27 16.5238 42.9143 16.454V15.9417C42.9143 15.7904 42.9397 15.6681 42.9979 15.5823C43.0585 15.4931 43.1501 15.45 43.2643 15.45C43.3792 15.45 43.472 15.4916 43.5337 15.5789C43.5932 15.6631 43.619 15.7831 43.619 15.9312V16.4548C43.9439 16.4953 44.2252 16.5719 44.462 16.6854C44.7141 16.8047 44.9327 16.9852 45.1179 17.2255C45.2632 17.4075 45.3752 17.5955 45.4534 17.7896M41.8735 20.5185C42.155 20.674 42.5022 20.8153 42.9143 20.9429V23.2817C42.7378 23.2186 42.5952 23.1331 42.485 23.0263C42.3624 22.9044 42.2711 22.7714 42.2104 22.6273C42.1479 22.4754 42.0739 22.2566 41.9885 21.9699L41.8735 20.5185ZM45.4534 17.7896C45.4534 17.7897 45.4535 17.7898 45.4535 17.7899L45.4071 17.8086M45.4534 17.7896C45.4533 17.7895 45.4533 17.7893 45.4533 17.7892L45.4071 17.8086M45.4071 17.8086C45.4865 17.9979 45.5262 18.1714 45.5262 18.3292C45.5262 18.5045 45.4675 18.657 45.35 18.7867C45.2357 18.9129 45.096 18.976 44.931 18.976C44.6198 18.976 44.4183 18.7902 44.3262 18.4186L44.4405 16.7305C44.6849 16.8462 44.8976 17.0215 45.0786 17.2564C45.2214 17.4352 45.331 17.6193 45.4071 17.8086ZM45.4929 23.1829L45.5378 23.2049C45.5378 23.2049 45.5378 23.2048 45.5378 23.2048L45.4929 23.1829ZM43.619 24.4745V24.4292H43.569L43.5737 24.479C43.5889 24.4776 43.604 24.4761 43.619 24.4745ZM43.5586 25.376C43.5586 25.3758 43.5587 25.3756 43.5588 25.3753L43.5119 25.358L43.5583 25.3767C43.5584 25.3765 43.5585 25.3762 43.5586 25.376ZM42.9143 24.4837C42.9289 24.4857 42.9435 24.4876 42.9582 24.4894L42.9643 24.4398H42.9143V24.4837ZM44.2813 21.5618L44.282 21.5625C44.4411 21.7154 44.5238 21.9357 44.5238 22.2311C44.5238 22.5039 44.4403 22.7416 44.2732 22.9462C44.1179 23.1364 43.9011 23.2684 43.619 23.3406V21.1718C43.9117 21.2813 44.1314 21.4119 44.2813 21.5618ZM42.9143 17.5947V19.4636C42.667 19.3572 42.4838 19.2421 42.3618 19.1197C42.2344 18.9884 42.1667 18.7926 42.1667 18.5237C42.1667 18.2407 42.2392 18.0387 42.3752 17.9077C42.5053 17.7823 42.6842 17.6775 42.9143 17.5947Z" fill="#FF47A1" stroke="#FF47A1" stroke-width="0.1"/>
</svg>
