<svg width="180" height="180" viewBox="0 0 180 180" fill="none" xmlns="http://www.w3.org/2000/svg">
<g clip-path="url(#clip0_8312_9085)">
<path opacity="0.1" d="M89.9956 175.8C139.704 175.8 180 173.383 180 170.4C180 167.418 139.704 165 89.9956 165C40.2877 165 -0.00854492 167.418 -0.00854492 170.4C-0.00854492 173.383 40.2877 175.8 89.9956 175.8Z" fill="#FF47A1"/>
<path d="M129.052 149.705H37.6308C36.4461 149.705 35.4846 148.744 35.4846 147.559V108.661C35.4846 107.476 36.4461 106.515 37.6308 106.515C38.8156 106.515 39.7771 107.476 39.7771 108.661V145.413H126.905V108.661C126.905 107.476 127.867 106.515 129.052 106.515C130.236 106.515 131.198 107.476 131.198 108.661V147.559C131.198 148.744 130.236 149.705 129.052 149.705Z" fill="#FF47A1"/>
<path d="M70.8281 149.705C69.6434 149.705 68.6819 148.744 68.6819 147.559V92.3581C68.6819 91.1734 69.6434 90.2119 70.8281 90.2119C72.0128 90.2119 72.9743 91.1734 72.9743 92.3581V147.559C72.9743 148.744 72.0128 149.705 70.8281 149.705Z" fill="#FF47A1"/>
<path d="M128.305 103.501H86.5561C85.9209 103.501 85.3199 103.218 84.9078 102.728L70.8286 85.876L56.8695 102.72C56.4574 103.209 55.8565 103.492 55.2212 103.492H22.1435C21.3108 103.492 20.5553 103.011 20.2033 102.265C19.8514 101.518 19.963 100.625 20.4866 99.981L35.9738 81.1543C36.3859 80.6564 36.9869 80.373 37.6307 80.373H76.529C77.7137 80.373 78.6752 81.3346 78.6752 82.5193C78.6752 83.704 77.7137 84.6655 76.529 84.6655H75.4215L87.5692 99.1998H128.313C129.498 99.1998 130.459 100.161 130.459 101.346C130.459 102.531 129.498 103.492 128.313 103.492L128.305 103.501ZM26.6935 99.2084H54.2168L66.27 84.6741H38.6523L26.7021 99.2084H26.6935Z" fill="#FF47A1"/>
<path d="M101.426 79.9004C88.1361 79.9004 77.3191 69.0834 77.3191 55.7939C77.3191 42.5045 88.1361 31.6875 101.426 31.6875C114.715 31.6875 125.532 42.5045 125.532 55.7939C125.532 69.0834 114.715 79.9004 101.426 79.9004ZM101.426 35.9885C90.4969 35.9885 81.6115 44.8739 81.6115 55.8025C81.6115 66.7311 90.4969 75.6165 101.426 75.6165C112.354 75.6165 121.24 66.7311 121.24 55.8025C121.24 44.8739 112.354 35.9885 101.426 35.9885Z" fill="#FF47A1"/>
<path d="M101.425 88.5887C83.3452 88.5887 68.6306 73.8742 68.6306 55.7944C68.6306 37.7145 83.3452 23 101.425 23C119.505 23 134.219 37.7145 134.219 55.7944C134.219 73.8742 119.505 88.5887 101.425 88.5887ZM101.425 27.301C85.706 27.301 72.9231 40.084 72.9231 55.803C72.9231 71.5219 85.706 84.3049 101.425 84.3049C117.144 84.3049 129.927 71.5219 129.927 55.803C129.927 40.084 117.144 27.301 101.425 27.301Z" fill="#FF47A1"/>
<path d="M151.123 114.035C148.754 114.035 146.522 113.108 144.848 111.434L124.853 91.431C124.364 90.9417 124.141 90.2377 124.252 89.5509L124.853 86.0569L119.599 80.8029C119.17 80.3737 118.947 79.7899 118.973 79.189C118.998 78.588 119.273 78.03 119.737 77.6437C121.119 76.4847 122.398 75.1798 123.548 73.7805C123.935 73.3083 124.493 73.025 125.102 72.9906C125.72 72.9563 126.296 73.1881 126.725 73.6173L132.048 78.9314L135.722 78.4249C136.392 78.3305 137.061 78.5623 137.533 79.0344L157.399 98.8913C159.073 100.574 160 102.797 160 105.167C160 107.536 159.073 109.768 157.399 111.442C155.725 113.117 153.493 114.044 151.123 114.044V114.035Z" fill="#FF47A1"/>
<path d="M94.5231 64.6026C93.9736 64.6026 93.4242 64.3966 93.0035 63.976C92.1622 63.1346 92.1622 61.7782 93.0035 60.9369L106.628 47.3126C107.469 46.4713 108.826 46.4713 109.667 47.3126C110.508 48.154 110.508 49.5104 109.667 50.3517L96.0426 63.976C95.6219 64.3966 95.0725 64.6026 94.5231 64.6026Z" fill="#FF47A1"/>
<path d="M108.147 64.6026C107.598 64.6026 107.048 64.3966 106.628 63.976L93.0035 50.3517C92.1622 49.5104 92.1622 48.154 93.0035 47.3126C93.8449 46.4713 95.2013 46.4713 96.0426 47.3126L109.667 60.9369C110.508 61.7782 110.508 63.1346 109.667 63.976C109.246 64.3966 108.697 64.6026 108.147 64.6026Z" fill="#FF47A1"/>
<path d="M96.2572 134.656H78.1431C76.9583 134.656 75.9968 133.694 75.9968 132.51C75.9968 131.325 76.9583 130.363 78.1431 130.363H96.2572C97.442 130.363 98.4035 131.325 98.4035 132.51C98.4035 133.694 97.442 134.656 96.2572 134.656Z" fill="#FF47A1"/>
<path d="M96.2572 141.343H78.1431C76.9583 141.343 75.9968 140.382 75.9968 139.197C75.9968 138.012 76.9583 137.051 78.1431 137.051H96.2572C97.442 137.051 98.4035 138.012 98.4035 139.197C98.4035 140.382 97.442 141.343 96.2572 141.343Z" fill="#FF47A1"/>
</g>
<defs>
<clipPath id="clip0_8312_9085">
<rect width="180" height="180" fill="white"/>
</clipPath>
</defs>
</svg>
