<svg width="81" height="80" viewBox="0 0 81 80" fill="none" xmlns="http://www.w3.org/2000/svg">
<rect x="0.5" width="80" height="80" rx="20" fill="#FF47A1" fill-opacity="0.1"/>
<path d="M24 18.8572C24 17.1902 24.6622 15.5914 25.841 14.4126C27.0198 13.2338 28.6186 12.5715 30.2857 12.5715H49.7143C51.3814 12.5715 52.9802 13.2338 54.159 14.4126C55.3378 15.5914 56 17.1902 56 18.8572V37.751C54.8562 37.6764 53.7078 37.7146 52.5714 37.8652V18.8572C52.5714 17.2801 51.2914 16.0001 49.7143 16.0001H30.2857C28.7086 16.0001 27.4286 17.2801 27.4286 18.8572V61.143C27.4286 62.7201 28.7086 64.0001 30.2857 64.0001H38.9029L37.8971 67.4287H30.2857C28.6186 67.4287 27.0198 66.7664 25.841 65.5876C24.6622 64.4088 24 62.81 24 61.143V18.8572ZM69.7143 54.8573C69.7145 57.4424 69.0402 59.9829 67.758 62.2277C66.4758 64.4725 64.63 66.3438 62.4031 67.6568C60.1762 68.9698 57.6452 69.679 55.0603 69.7144C52.4754 69.7498 49.926 69.11 47.664 67.8584L41.4537 69.6664C41.257 69.7238 41.0485 69.7272 40.8501 69.6763C40.6516 69.6255 40.4705 69.5222 40.3256 69.3774C40.1807 69.2325 40.0775 69.0514 40.0266 68.8529C39.9758 68.6544 39.9792 68.4459 40.0366 68.2492L41.8537 62.0481C40.758 60.064 40.1307 57.8554 40.02 55.5915C39.9093 53.3276 40.318 51.0684 41.2149 48.9868C42.1118 46.9052 43.4731 45.0564 45.1946 43.5819C46.916 42.1074 48.952 41.0464 51.1467 40.48C53.3414 39.9136 55.6366 39.8568 57.8566 40.3141C60.0766 40.7713 62.1626 41.7305 63.9548 43.1181C65.7471 44.5057 67.198 46.2849 68.1967 48.3197C69.1954 50.3544 69.713 52.5906 69.7143 54.8573ZM49.1429 51.4287C48.8398 51.4287 48.5491 51.5491 48.3347 51.7634C48.1204 51.9777 48 52.2684 48 52.5715C48 52.8746 48.1204 53.1653 48.3347 53.3797C48.5491 53.594 48.8398 53.7144 49.1429 53.7144H60.5714C60.8745 53.7144 61.1652 53.594 61.3796 53.3797C61.5939 53.1653 61.7143 52.8746 61.7143 52.5715C61.7143 52.2684 61.5939 51.9777 61.3796 51.7634C61.1652 51.5491 60.8745 51.4287 60.5714 51.4287H49.1429ZM48 57.143C48 57.4461 48.1204 57.7368 48.3347 57.9511C48.5491 58.1654 48.8398 58.2858 49.1429 58.2858H54.8571C55.1602 58.2858 55.4509 58.1654 55.6653 57.9511C55.8796 57.7368 56 57.4461 56 57.143C56 56.8399 55.8796 56.5492 55.6653 56.3348C55.4509 56.1205 55.1602 56.0001 54.8571 56.0001H49.1429C48.8398 56.0001 48.5491 56.1205 48.3347 56.3348C48.1204 56.5492 48 56.8399 48 57.143Z" fill="#FF47A1"/>
</svg>
