<svg width="86" height="85" viewBox="0 0 86 85" fill="#8EA1AE" xmlns="http://www.w3.org/2000/svg">
  <circle cx="43" cy="42.5" r="42.5" fill-opacity="0.1" />
  <path
    d="M26.5 21.857C26.5 20.1899 27.1622 18.5911 28.341 17.4123C29.5198 16.2335 31.1186 15.5713 32.7857 15.5713H52.2143C53.8814 15.5713 55.4802 16.2335 56.659 17.4123C57.8378 18.5911 58.5 20.1899 58.5 21.857V40.7507C57.3562 40.6761 56.2078 40.7144 55.0714 40.865V21.857C55.0714 20.2799 53.7914 18.9999 52.2143 18.9999H32.7857C31.2086 18.9999 29.9286 20.2799 29.9286 21.857V64.1427C29.9286 65.7199 31.2086 66.9999 32.7857 66.9999H41.4029L40.3971 70.4284H32.7857C31.1186 70.4284 29.5198 69.7662 28.341 68.5874C27.1622 67.4086 26.5 65.8098 26.5 64.1427V21.857ZM72.2143 57.857C72.2145 60.4422 71.5402 62.9827 70.258 65.2274C68.9758 67.4722 67.13 69.3436 64.9031 70.6566C62.6762 71.9696 60.1452 72.6788 57.5603 72.7142C54.9754 72.7495 52.426 72.1098 50.164 70.8581L43.9537 72.6661C43.757 72.7235 43.5485 72.727 43.3501 72.6761C43.1516 72.6253 42.9705 72.522 42.8256 72.3771C42.6807 72.2323 42.5775 72.0511 42.5266 71.8526C42.4758 71.6542 42.4792 71.4457 42.5366 71.249L44.3537 65.0479C43.258 63.0637 42.6307 60.8552 42.52 58.5913C42.4093 56.3274 42.818 54.0681 43.7149 51.9865C44.6118 49.9049 45.9731 48.0561 47.6946 46.5817C49.416 45.1072 51.452 44.0462 53.6467 43.4797C55.8414 42.9133 58.1366 42.8566 60.3566 43.3138C62.5766 43.7711 64.6626 44.7302 66.4548 46.1178C68.2471 47.5054 69.698 49.2847 70.6967 51.3194C71.6954 53.3541 72.213 55.5904 72.2143 57.857ZM51.6429 54.4284C51.3398 54.4284 51.0491 54.5488 50.8347 54.7632C50.6204 54.9775 50.5 55.2682 50.5 55.5713C50.5 55.8744 50.6204 56.1651 50.8347 56.3794C51.0491 56.5937 51.3398 56.7141 51.6429 56.7141H63.0714C63.3745 56.7141 63.6652 56.5937 63.8796 56.3794C64.0939 56.1651 64.2143 55.8744 64.2143 55.5713C64.2143 55.2682 64.0939 54.9775 63.8796 54.7632C63.6652 54.5488 63.3745 54.4284 63.0714 54.4284H51.6429ZM50.5 60.1427C50.5 60.4458 50.6204 60.7365 50.8347 60.9508C51.0491 61.1652 51.3398 61.2856 51.6429 61.2856H57.3571C57.6602 61.2856 57.9509 61.1652 58.1653 60.9508C58.3796 60.7365 58.5 60.4458 58.5 60.1427C58.5 59.8396 58.3796 59.5489 58.1653 59.3346C57.9509 59.1203 57.6602 58.9999 57.3571 58.9999H51.6429C51.3398 58.9999 51.0491 59.1203 50.8347 59.3346C50.6204 59.5489 50.5 59.8396 50.5 60.1427Z" />
</svg>