<svg width="180" height="180" viewBox="0 0 180 180" fill="none" xmlns="http://www.w3.org/2000/svg">
<path opacity="0.1" d="M89.9959 152.051C131.126 152.051 164.462 150.048 164.462 147.583C164.462 145.117 131.126 143.115 89.9959 143.115C48.8661 143.115 15.5303 145.117 15.5303 147.583C15.5303 150.048 48.8661 152.051 89.9959 152.051Z" fill="#FF47A1"/>
<path d="M109.715 47.8575V64.7364C109.715 66.8049 107.977 68.5424 105.909 68.5424C103.84 68.5424 102.103 66.8049 102.103 64.7364V47.8575C102.103 41.0729 96.6422 35.612 89.8575 35.612C83.0729 35.612 77.612 41.0729 77.612 47.8575V64.7364C77.612 66.8049 75.8745 68.5424 73.806 68.5424C71.7375 68.5424 70 66.8049 70 64.7364V47.8575C70 36.9359 78.8531 28 89.8575 28C100.862 28 109.715 36.8531 109.715 47.8575Z" fill="#FF47A1"/>
<path d="M124.5 108.5L125.361 115.5L125.83 120.039C126.07 122.935 123.787 125.408 120.883 125.408H59.1258C56.2216 125.408 53.938 122.935 54.178 120.039L58.8858 62.121C59.101 59.5478 61.2522 57.562 63.8337 57.562H116.166C118.756 57.562 120.907 59.5478 121.114 62.121L121.5 69.5" stroke="#FF47A1" stroke-width="4"/>
<path d="M56.6235 112H123.188L124 119.5H55L56.6235 112Z" fill="#FF47A1"/>
<path fill-rule="evenodd" clip-rule="evenodd" d="M53.4252 43.4219C54.749 45.1594 57.1485 45.5731 58.886 44.2493C60.6235 42.9254 61.0372 40.526 59.7134 38.7884L54.9145 32.252C53.5907 30.5145 51.1912 30.1008 49.4537 31.4246C47.7161 32.7485 47.3024 35.1479 48.6263 36.8854L53.4252 43.4219ZM51.0257 35.1479C50.6948 34.7342 50.7775 34.155 51.1912 33.8241C51.6049 33.4931 52.1841 33.5758 52.515 33.9895L57.3139 40.526C57.6449 40.9397 57.5622 41.5188 57.1485 41.8498C56.7348 42.1808 56.1556 42.098 55.8246 41.6843L51.0257 35.1479Z" fill="#FF47A1"/>
<path fill-rule="evenodd" clip-rule="evenodd" d="M40.9312 51.6049L48.6259 54.0871C50.6944 54.749 52.9284 53.5906 53.5903 51.5221C54.2522 49.4536 53.0939 47.2197 51.0254 46.5578L43.3306 44.0756C41.2621 43.4136 39.0281 44.572 38.3662 46.6405C37.7871 48.709 38.8627 50.9429 40.9312 51.6049ZM41.2621 47.5506C41.4276 47.0542 41.924 46.806 42.4205 46.9715L50.1153 49.4536C50.6117 49.6191 50.8599 50.1156 50.6944 50.612C50.529 51.1084 50.0325 51.3566 49.5361 51.1912L41.8413 48.709C41.3449 48.6262 41.0966 48.0471 41.2621 47.5506Z" fill="#FF47A1"/>
<path d="M123.428 107.356C134.089 106.943 142.398 97.9654 141.985 87.304C141.572 76.6426 132.595 68.3344 121.933 68.7472C111.272 69.16 102.964 78.1374 103.376 88.7988C103.789 99.4602 112.767 107.768 123.428 107.356Z" stroke="#FF47A1" stroke-width="4"/>
<path d="M132.121 90.4669L125.552 97.0359C123.977 98.6107 121.431 98.6107 119.867 97.0359L113.298 90.4669C110.699 87.8673 110.699 83.6498 113.298 81.0503C115.898 78.4507 120.115 78.4507 122.715 81.0503C125.314 78.4507 129.532 78.4507 132.132 81.0503C134.731 83.6498 134.731 87.8673 132.132 90.4669H132.121Z" fill="#FF47A1"/>
</svg>
