<svg width="24" height="24" viewBox="0 0 24 24" fill="currentColor" xmlns="http://www.w3.org/2000/svg">
<path fill-rule="evenodd" clip-rule="evenodd" d="M7.61091 3.61091C8.64236 2.57946 10.0413 2 11.5 2C12.9587 2 14.3576 2.57946 15.3891 3.61091C16.4205 4.64236 17 6.04131 17 7.5C17 8.95869 16.4205 10.3576 15.3891 11.3891C14.3576 12.4205 12.9587 13 11.5 13C10.0413 13 8.64236 12.4205 7.61091 11.3891C6.57946 10.3576 6 8.95869 6 7.5C6 6.04131 6.57946 4.64236 7.61091 3.61091ZM11.5 4C10.5717 4 9.6815 4.36875 9.02513 5.02513C8.36875 5.6815 8 6.57174 8 7.5C8 8.42826 8.36875 9.3185 9.02513 9.97487C9.6815 10.6313 10.5717 11 11.5 11C12.4283 11 13.3185 10.6313 13.9749 9.97487C14.6313 9.3185 15 8.42826 15 7.5C15 6.57174 14.6313 5.6815 13.9749 5.02513C13.3185 4.36875 12.4283 4 11.5 4ZM6.18662 17.1645C5.25831 18.0413 5 19.0297 5 19.5C5 19.7 5.04713 19.7835 5.06643 19.8125C5.08989 19.8477 5.12834 19.8836 5.19721 19.9181C5.27 19.9545 5.35489 19.9776 5.43002 19.9902C5.46522 19.996 5.49236 19.9986 5.50679 19.9996C5.50923 19.9998 5.51278 20 5.51278 20H17.4872C17.4872 20 17.4908 19.9998 17.4932 19.9996C17.5076 19.9986 17.5348 19.996 17.57 19.9902C17.6451 19.9776 17.73 19.9545 17.8028 19.9181C17.8717 19.8836 17.9101 19.8477 17.9336 19.8125C17.9529 19.7835 18 19.7 18 19.5C18 19.0297 17.7417 18.0413 16.8134 17.1645C15.9093 16.3106 14.2977 15.5 11.5 15.5C8.7023 15.5 7.09072 16.3106 6.18662 17.1645ZM4.81338 15.7105C6.15928 14.4394 8.2977 13.5 11.5 13.5C14.7023 13.5 16.8407 14.4394 18.1866 15.7105C19.5083 16.9587 20 18.4703 20 19.5C20 20.05 19.8596 20.529 19.5977 20.9219C19.3399 21.3086 19.0033 21.5539 18.6972 21.7069C18.395 21.858 18.1049 21.9286 17.8988 21.963C17.7933 21.9805 17.7033 21.9897 17.6357 21.9945C17.6017 21.997 17.5729 21.9983 17.5502 21.9991L17.5204 21.9998L17.509 22L17.5042 22L17.501 22C17.501 22 17.5 22 17.5 21L17.501 22H5.5V21C5.5 22 5.5 22 5.5 22L5.49579 22L5.49098 22L5.47957 21.9998L5.44984 21.9991C5.42706 21.9983 5.39827 21.997 5.3643 21.9945C5.2967 21.9897 5.20665 21.9805 5.10123 21.963C4.89511 21.9286 4.605 21.858 4.30279 21.7069C3.99666 21.5539 3.66011 21.3086 3.40232 20.9219C3.14037 20.529 3 20.05 3 19.5C3 18.4703 3.49169 16.9587 4.81338 15.7105Z" fill="currentColor"/>
</svg>