<svg width="24" height="24" viewBox="0 0 24 24" fill="currentColor" xmlns="http://www.w3.org/2000/svg">
<path fill-rule="evenodd" clip-rule="evenodd" d="M19.2 4.8H13.3865V9.88381H19.2V4.8ZM21 9.88381V11.6838V19.2C21 20.1941 20.1941 21 19.2 21H4.8C3.80589 21 3 20.1941 3 19.2V4.8C3 3.80589 3.80589 3 4.8 3H19.2C20.1941 3 21 3.80589 21 4.8V9.88381ZM19.2 11.6838H13.3865V19.2H19.2V11.6838ZM4.8 4.8H11.5865V19.2H4.8V4.8Z" fill="currentColor"/>
<path d="M13.3865 4.8V4.7C13.3312 4.7 13.2865 4.74477 13.2865 4.8H13.3865ZM19.2 4.8H19.3C19.3 4.74477 19.2552 4.7 19.2 4.7V4.8ZM13.3865 9.88381H13.2865C13.2865 9.93904 13.3312 9.98381 13.3865 9.98381V9.88381ZM19.2 9.88381V9.98381C19.2552 9.98381 19.3 9.93904 19.3 9.88381H19.2ZM19.2 11.6838H19.3C19.3 11.6286 19.2552 11.5838 19.2 11.5838V11.6838ZM13.3865 11.6838V11.5838C13.3312 11.5838 13.2865 11.6286 13.2865 11.6838H13.3865ZM13.3865 19.2H13.2865C13.2865 19.2552 13.3312 19.3 13.3865 19.3V19.2ZM19.2 19.2V19.3C19.2552 19.3 19.3 19.2552 19.3 19.2H19.2ZM11.5865 4.8H11.6865C11.6865 4.74477 11.6417 4.7 11.5865 4.7V4.8ZM4.8 4.8V4.7C4.74477 4.7 4.7 4.74477 4.7 4.8H4.8ZM11.5865 19.2V19.3C11.6417 19.3 11.6865 19.2552 11.6865 19.2H11.5865ZM4.8 19.2H4.7C4.7 19.2552 4.74477 19.3 4.8 19.3V19.2ZM13.3865 4.9H19.2V4.7H13.3865V4.9ZM13.4865 9.88381V4.8H13.2865V9.88381H13.4865ZM13.3865 9.98381H19.2V9.78381H13.3865V9.98381ZM19.1 4.8V9.88381H19.3V4.8H19.1ZM20.9 9.88381V11.6838H21.1V9.88381H20.9ZM20.9 11.6838V19.2H21.1V11.6838H20.9ZM20.9 19.2C20.9 20.1389 20.1389 20.9 19.2 20.9V21.1C20.2493 21.1 21.1 20.2493 21.1 19.2H20.9ZM19.2 20.9H4.8V21.1H19.2V20.9ZM4.8 20.9C3.86112 20.9 3.1 20.1389 3.1 19.2H2.9C2.9 20.2493 3.75066 21.1 4.8 21.1V20.9ZM3.1 19.2V4.8H2.9V19.2H3.1ZM3.1 4.8C3.1 3.86112 3.86112 3.1 4.8 3.1V2.9C3.75066 2.9 2.9 3.75066 2.9 4.8H3.1ZM4.8 3.1H19.2V2.9H4.8V3.1ZM19.2 3.1C20.1389 3.1 20.9 3.86112 20.9 4.8H21.1C21.1 3.75066 20.2493 2.9 19.2 2.9V3.1ZM20.9 4.8V9.88381H21.1V4.8H20.9ZM19.2 11.5838H13.3865V11.7838H19.2V11.5838ZM13.4865 19.2V11.6838H13.2865V19.2H13.4865ZM19.2 19.1H13.3865V19.3H19.2V19.1ZM19.1 11.6838V19.2H19.3V11.6838H19.1ZM11.5865 4.7H4.8V4.9H11.5865V4.7ZM11.6865 19.2V4.8H11.4865V19.2H11.6865ZM4.8 19.3H11.5865V19.1H4.8V19.3ZM4.7 4.8V19.2H4.9V4.8H4.7Z" fill="currentColor"/>
</svg>
