<svg width="32" height="32" viewBox="0 0 32 32" fill="currentColor" xmlns="http://www.w3.org/2000/svg">
<path fill-rule="evenodd" clip-rule="evenodd" d="M16 28C22.6274 28 28 22.6274 28 16C28 9.37258 22.6274 4 16 4C9.37258 4 4 9.37258 4 16C4 22.6274 9.37258 28 16 28ZM16 30C23.732 30 30 23.732 30 16C30 8.26801 23.732 2 16 2C8.26801 2 2 8.26801 2 16C2 23.732 8.26801 30 16 30Z" fill="currentColor"/>
<path d="M11.2971 15.2171L14.2457 18.1657L21.0343 11.3771C21.2857 11.1257 21.6057 11 21.9943 11C22.3829 11 22.7029 11.1257 22.9543 11.3771C23.2057 11.6286 23.3314 11.9486 23.3314 12.3371C23.3314 12.7257 23.2057 13.0457 22.9543 13.2971L15.2057 21.0457C14.9314 21.32 14.6114 21.4571 14.2457 21.4571C13.88 21.4571 13.56 21.32 13.2857 21.0457L9.37714 17.1371C9.12572 16.8857 9 16.5657 9 16.1771C9 15.7886 9.12572 15.4686 9.37714 15.2171C9.62857 14.9657 9.94857 14.84 10.3371 14.84C10.7257 14.84 11.0457 14.9657 11.2971 15.2171Z" fill="currentColor"/>
</svg>
