<svg width="14" height="14" viewBox="0 0 14 14" fill="none" xmlns="http://www.w3.org/2000/svg">
<rect x="1" y="1" width="11" height="11" rx="5.5" fill="white"/>
<path d="M5.89714 8.09143L4.42286 6.61714C4.29714 6.49143 4.13714 6.42857 3.94286 6.42857C3.74857 6.42857 3.58857 6.49143 3.46286 6.61714C3.33714 6.74286 3.27429 6.90286 3.27429 7.09714C3.27429 7.29143 3.33714 7.45143 3.46286 7.57714L5.41714 9.53143C5.55429 9.66857 5.71429 9.73714 5.89714 9.73714C6.08 9.73714 6.24 9.66857 6.37714 9.53143L10.2514 5.65714C10.3771 5.53143 10.44 5.37143 10.44 5.17714C10.44 4.98286 10.3771 4.82286 10.2514 4.69714C10.1257 4.57143 9.96571 4.50857 9.77143 4.50857C9.57714 4.50857 9.41714 4.57143 9.29143 4.69714L5.89714 8.09143ZM6.85714 13.7143C5.90857 13.7143 5.01714 13.5343 4.18286 13.1743C3.34857 12.8143 2.62286 12.3257 2.00571 11.7086C1.38857 11.0914 0.9 10.3657 0.54 9.53143C0.18 8.69714 0 7.80571 0 6.85714C0 5.90857 0.18 5.01714 0.54 4.18286C0.9 3.34857 1.38857 2.62286 2.00571 2.00571C2.62286 1.38857 3.34857 0.9 4.18286 0.54C5.01714 0.18 5.90857 0 6.85714 0C7.80571 0 8.69714 0.18 9.53143 0.54C10.3657 0.9 11.0914 1.38857 11.7086 2.00571C12.3257 2.62286 12.8143 3.34857 13.1743 4.18286C13.5343 5.01714 13.7143 5.90857 13.7143 6.85714C13.7143 7.80571 13.5343 8.69714 13.1743 9.53143C12.8143 10.3657 12.3257 11.0914 11.7086 11.7086C11.0914 12.3257 10.3657 12.8143 9.53143 13.1743C8.69714 13.5343 7.80571 13.7143 6.85714 13.7143Z" fill="#FF47A1"/>
</svg>
