<svg width="10" height="10" viewBox="0 0 10 10" fill="currentColor"
  xmlns="http://www.w3.org/2000/svg">
  <path
    d="M2.50001 1.99999V1C2.50001 0.867392 2.55268 0.740215 2.64645 0.646447C2.74022 0.552678 2.8674 0.5 3.00001 0.5H9.00001C9.13261 0.5 9.25979 0.552678 9.35356 0.646447C9.44733 0.740215 9.50001 0.867392 9.50001 1V7.49999C9.50001 7.6326 9.44733 7.75978 9.35356 7.85355C9.25979 7.94731 9.13261 7.99999 9.00001 7.99999H7.50001L7.5 9C7.5 9.276 7.275 9.5 6.9965 9.5H1.0035C0.937563 9.50039 0.872199 9.48776 0.811161 9.46281C0.750124 9.43787 0.694617 9.40111 0.647829 9.35465C0.601042 9.30819 0.563896 9.25294 0.538527 9.19207C0.513158 9.13121 0.500065 9.06594 0.5 9L0.501506 2.49999C0.501506 2.22399 0.726506 1.99999 1.00501 1.99999H2.50001ZM3.50001 1.99999H7.50001V6.99999H8.50001V1.5H3.50001V1.99999Z"
    fill="currentColor" />
</svg>