<svg width="42" height="42" viewBox="0 0 42 42" fill="none" xmlns="http://www.w3.org/2000/svg">
<rect width="42" height="42" rx="21" fill="#FF47A1"/>
<path fill-rule="evenodd" clip-rule="evenodd" d="M21.6293 13.3864C22.5599 12.4867 23.8064 11.9889 25.1002 12.0002C26.394 12.0114 27.6316 12.5309 28.5464 13.4466C29.4613 14.3623 29.9803 15.601 29.9915 16.896C30.0028 18.191 29.5054 19.4386 28.6066 20.3701L28.5965 20.3803L26.1294 22.8496C26.1294 22.8496 26.1294 22.8497 26.1293 22.8497C25.6291 23.3505 25.0271 23.7378 24.3642 23.9853C23.7013 24.2329 22.9929 24.3348 22.2872 24.2842C21.5814 24.2336 20.8948 24.0317 20.2738 23.6921C19.6529 23.3526 19.1122 22.8833 18.6883 22.3162C18.4163 21.9522 18.4906 21.4363 18.8543 21.164C19.218 20.8917 19.7334 20.9661 20.0054 21.3301C20.288 21.7082 20.6485 22.021 21.0624 22.2474C21.4764 22.4738 21.9341 22.6084 22.4047 22.6421C22.8752 22.6758 23.3474 22.6079 23.7894 22.4429C24.2313 22.2778 24.6327 22.0196 24.9662 21.6857L24.9663 21.6856L27.4282 19.2214C28.0244 18.601 28.3542 17.7714 28.3468 16.9103C28.3393 16.047 27.9933 15.2212 27.3834 14.6107C26.7735 14.0002 25.9484 13.6539 25.0859 13.6464C24.2252 13.6389 23.396 13.9694 22.776 14.5667L21.3659 15.9698C21.0438 16.2904 20.5231 16.2888 20.2029 15.9664C19.8826 15.6441 19.8842 15.1229 20.2063 14.8023L21.6208 13.3947L21.6293 13.3864ZM17.6192 18.0147C18.2821 17.7671 18.9905 17.6652 19.6962 17.7158C20.402 17.7664 21.0886 17.9683 21.7096 18.3079C22.3305 18.6474 22.8712 19.1167 23.2951 19.6838C23.5671 20.0478 23.4928 20.5637 23.1291 20.836C22.7654 21.1083 22.25 21.0339 21.978 20.6699C21.6954 20.2918 21.3349 19.979 20.921 19.7526C20.507 19.5262 20.0493 19.3916 19.5787 19.3579C19.1082 19.3242 18.636 19.3921 18.194 19.5571C17.7521 19.7222 17.3507 19.9804 17.0172 20.3143L17.0171 20.3144L14.5552 22.7785C13.959 23.399 13.6292 24.2286 13.6366 25.0897C13.6441 25.953 13.9901 26.7788 14.6 27.3893C15.2099 27.9998 16.035 28.3461 16.8975 28.3536C17.7578 28.3611 18.5867 28.0309 19.2066 27.4341L20.6075 26.0319C20.9287 25.7104 21.4494 25.7104 21.7706 26.0318C22.0918 26.3533 22.0918 26.8745 21.7706 27.196L20.3643 28.6036L20.3541 28.6136C19.4235 29.5133 18.177 30.0111 16.8832 29.9998C15.5894 29.9886 14.3518 29.4691 13.437 28.5534C12.5221 27.6377 12.0031 26.399 11.9919 25.104C11.9806 23.809 12.478 22.5614 13.3768 21.63L13.3869 21.6197L15.854 19.1504C15.854 19.1504 15.854 19.1503 15.8541 19.1503C16.3543 18.6495 16.9563 18.2622 17.6192 18.0147Z" fill="white"/>
</svg>
