<svg width="16" height="16" viewBox="0 0 16 16" fill="none" xmlns="http://www.w3.org/2000/svg">
  <mask id="mask0_1263_1519" style="mask-type:alpha" maskUnits="userSpaceOnUse" x="0" y="0"
    width="16" height="16">
    <rect width="16" height="16" fill="#D9D9D9" />
  </mask>
  <g mask="url(#mask0_1263_1519)">
    <path
      d="M14.6666 3.99999V12C14.6666 12.3667 14.5361 12.6805 14.275 12.9417C14.0139 13.2028 13.7 13.3333 13.3333 13.3333H2.66665C2.29998 13.3333 1.98609 13.2028 1.72498 12.9417C1.46387 12.6805 1.33331 12.3667 1.33331 12V3.99999C1.33331 3.63332 1.46387 3.31943 1.72498 3.05832C1.98609 2.79721 2.29998 2.66666 2.66665 2.66666H13.3333C13.7 2.66666 14.0139 2.79721 14.275 3.05832C14.5361 3.31943 14.6666 3.63332 14.6666 3.99999ZM2.66665 5.33332H13.3333V3.99999H2.66665V5.33332ZM2.66665 7.99999V12H13.3333V7.99999H2.66665Z"
      fill="currentColor" />
  </g>
</svg>