<svg width="16" height="16" viewBox="0 0 16 16" fill="none" xmlns="http://www.w3.org/2000/svg">
  <mask id="mask0_1263_1504" style="mask-type:alpha" maskUnits="userSpaceOnUse" x="0" y="0"
    width="16" height="16">
    <rect width="16" height="16" fill="#D9D9D9" />
  </mask>
  <g mask="url(#mask0_1263_1504)">
    <path
      d="M2.66665 5.33334H13.3333V4.00001H2.66665V5.33334ZM1.33331 4.00001C1.33331 3.63334 1.46387 3.31945 1.72498 3.05834C1.98609 2.79723 2.29998 2.66667 2.66665 2.66667H13.3333C13.7 2.66667 14.0139 2.79723 14.275 3.05834C14.5361 3.31945 14.6666 3.63334 14.6666 4.00001V8.00001H2.66665V12H5.39998V13.3333H2.66665C2.29998 13.3333 1.98609 13.2028 1.72498 12.9417C1.46387 12.6806 1.33331 12.3667 1.33331 12V4.00001ZM9.96665 14.6667L7.13331 11.8333L8.06665 10.9L9.96665 12.7667L13.7333 9.00001L14.6666 9.96667L9.96665 14.6667ZM2.66665 4.00001V12V9.00001V10.8833V4.00001Z"
      fill="currentColor" />
  </g>
</svg>