
<svg width="12" height="14" viewBox="0 0 12 14" fill="currentColor" xmlns="http://www.w3.org/2000/svg">
<path fill-rule="evenodd" clip-rule="evenodd" d="M11.8981 10.6381C11.9931 9.42551 11.9931 8.20592 11.8981 6.99332C11.99 5.77574 12.0198 4.55328 11.9872 3.33189C11.0388 2.68794 10.0453 2.13135 9.01642 1.66761C6.83287 0.386104 6.14958 0.0199608 6.04561 0.0033179C5.94358 -0.013013 5.88445 0.0187306 5.20862 0.381591L5.16922 0.402747C4.75687 0.592799 4.35938 0.821042 3.98089 1.0851L6.77345 2.74939C7.66178 3.29681 8.4598 3.74899 8.95781 4.03118C9.29255 4.22085 9.49175 4.33373 9.49175 4.34711V6.14454V7.94197C9.09491 8.2099 8.6831 8.44894 8.25886 8.65761C8.24541 8.65761 8.23369 8.65761 8.22343 8.65375C8.15439 8.62778 8.15104 8.42715 8.12518 6.87682V5.21254L5.28805 3.54825L2.48063 2.00046L1.23289 2.56632C0.803288 2.76881 0.390687 3.01388 0 3.29861V3.8182V4.49689V10.8182L3.45062 12.6481C4.25436 13.1795 5.09776 13.6319 5.97134 14C5.97666 13.9977 5.98199 13.9955 5.98732 13.9933L6 14V13.988C6.99172 13.5711 7.95096 13.063 8.86788 12.4688L11.7496 10.8045C11.8063 10.7578 11.8564 10.7017 11.8981 10.6381Z" fill="currentColor"/>
</svg>
