<svg width="25" height="24" viewBox="0 0 25 24" fill="currentColor" xmlns="http://www.w3.org/2000/svg">
<g clip-path="url(#clip0_1335_11872)">
<mask id="mask0_1335_11872" style="mask-type:alpha" maskUnits="userSpaceOnUse" x="0" y="0" width="25" height="24">
<rect x="0.5" width="24" height="24" fill="#D9D9D9"/>
</mask>
<g mask="url(#mask0_1335_11872)">
<path d="M12.5 22C10.7333 22 9.29167 21.7208 8.175 21.1625C7.05833 20.6042 6.5 19.8833 6.5 19C6.5 18.4167 6.74167 17.9083 7.225 17.475C7.70833 17.0417 8.375 16.7 9.225 16.45L9.8 18.35C9.51667 18.4333 9.25833 18.5375 9.025 18.6625C8.79167 18.7875 8.63333 18.9 8.55 19C8.76667 19.2667 9.26667 19.5 10.05 19.7C10.8333 19.9 11.65 20 12.5 20C13.35 20 14.1708 19.9 14.9625 19.7C15.7542 19.5 16.2583 19.2667 16.475 19C16.3917 18.9 16.2333 18.7875 16 18.6625C15.7667 18.5375 15.5083 18.4333 15.225 18.35L15.8 16.45C16.65 16.7 17.3125 17.0417 17.7875 17.475C18.2625 17.9083 18.5 18.4167 18.5 19C18.5 19.8833 17.9417 20.6042 16.825 21.1625C15.7083 21.7208 14.2667 22 12.5 22ZM12.5 19C12.3167 19 12.15 18.9458 12 18.8375C11.85 18.7292 11.7417 18.5833 11.675 18.4C11.2917 17.2167 10.8083 16.225 10.225 15.425C9.64167 14.625 9.075 13.8583 8.525 13.125C7.99167 12.3917 7.52917 11.6333 7.1375 10.85C6.74583 10.0667 6.55 9.1 6.55 7.95C6.55 6.28333 7.125 4.875 8.275 3.725C9.425 2.575 10.8333 2 12.5 2C14.1667 2 15.575 2.575 16.725 3.725C17.875 4.875 18.45 6.28333 18.45 7.95C18.45 9.1 18.2583 10.0667 17.875 10.85C17.4917 11.6333 17.025 12.3917 16.475 13.125C15.9417 13.8583 15.3792 14.625 14.7875 15.425C14.1958 16.225 13.7083 17.2167 13.325 18.4C13.2583 18.5833 13.15 18.7292 13 18.8375C12.85 18.9458 12.6833 19 12.5 19ZM12.5 10.075C13.0833 10.075 13.5833 9.86667 14 9.45C14.4167 9.03333 14.625 8.53333 14.625 7.95C14.625 7.36667 14.4167 6.86667 14 6.45C13.5833 6.03333 13.0833 5.825 12.5 5.825C11.9167 5.825 11.4167 6.03333 11 6.45C10.5833 6.86667 10.375 7.36667 10.375 7.95C10.375 8.53333 10.5833 9.03333 11 9.45C11.4167 9.86667 11.9167 10.075 12.5 10.075Z" fill="currentColor"/>
</g>
</g>
<defs>
<clipPath id="clip0_1335_11872">
<rect width="24" height="24" fill="currentColor" transform="translate(0.5)"/>
</clipPath>
</defs>
</svg>
