<svg xmlns="http://www.w3.org/2000/svg" width="65" height="64" viewBox="0 0 65 64" fill="currentColor">
  <g clip-path="url(#clip0_3156_3137)">
    <path d="M59.1667 14.6667H24.5C21.5667 14.6667 19.1667 17.0667 19.1667 20.0001V44.0001C19.1667 45.4146 19.7286 46.7711 20.7288 47.7713C21.729 48.7715 23.0855 49.3334 24.5 49.3334H59.1667C62.1267 49.3334 64.5 46.9601 64.5 44.0001V20.0001C64.5 18.5856 63.9381 17.229 62.9379 16.2288C61.9377 15.2287 60.5812 14.6667 59.1667 14.6667ZM59.1667 44.0001H24.5V24.4534L41.8333 33.3334L59.1667 24.4534V44.0001ZM41.8333 28.8267L24.5 20.0001H59.1667L41.8333 28.8267ZM13.8333 44.0001C13.8333 44.4534 13.9133 44.8801 13.9667 45.3334H3.16667C1.69467 45.3334 0.5 44.1334 0.5 42.6667C0.5 41.2001 1.69467 40.0001 3.16667 40.0001H13.8333V44.0001ZM8.5 18.6667H13.9667C13.9133 19.1201 13.8333 19.5467 13.8333 20.0001V24.0001H8.5C7.03333 24.0001 5.83333 22.8001 5.83333 21.3334C5.83333 19.8667 7.03333 18.6667 8.5 18.6667ZM3.16667 32.0001C3.16667 30.5334 4.36667 29.3334 5.83333 29.3334H13.8333V34.6667H5.83333C4.36667 34.6667 3.16667 33.4667 3.16667 32.0001Z" fill="currentColor"/>
  </g>
  <defs>
    <clipPath id="clip0_3156_3137">
      <rect width="64" height="64" fill="currentColor" transform="translate(0.5)"/>
    </clipPath>
  </defs>
</svg>