<svg xmlns="http://www.w3.org/2000/svg" width="24" height="24" viewBox="0 0 24 24" fill="currentColor">
  <path d="M3.9 4.5H20.1C20.3387 4.5 20.5676 4.5878 20.7364 4.74408C20.9052 4.90036 21 5.11232 21 5.33333V18.6667C21 18.8877 20.9052 19.0996 20.7364 19.2559C20.5676 19.4122 20.3387 19.5 20.1 19.5H3.9C3.66131 19.5 3.43239 19.4122 3.2636 19.2559C3.09482 19.0996 3 18.8877 3 18.6667V5.33333C3 5.11232 3.09482 4.90036 3.2636 4.74408C3.43239 4.5878 3.66131 4.5 3.9 4.5ZM12.054 11.7358L6.2832 7.19833L5.1177 8.46833L12.0657 13.9308L18.8886 8.46417L17.7114 7.20333L12.0549 11.7358H12.054Z" fill="currentColor"/>
</svg>