<svg width="24" height="24" viewBox="0 0 24 24" fill="none" xmlns="http://www.w3.org/2000/svg">
<path d="M5.495 19.995C4.66657 19.995 3.99499 19.3234 3.99499 18.495V15.995H1.995V18.995C1.995 20.6518 3.33814 21.995 4.995 21.995H7.99499V19.995H5.495Z" fill="#8EA1AE"/>
<path d="M15.995 21.995H18.995C20.6518 21.995 21.995 20.6518 21.995 18.995V15.995H19.995V18.495C19.995 19.3234 19.3234 19.995 18.495 19.995H15.995V21.995Z" fill="#8EA1AE"/>
<path d="M7.99499 3.99499V1.995H4.995C3.33814 1.995 1.995 3.33814 1.995 4.995V7.99499H3.99499V5.49437C3.99499 4.6658 4.6668 3.99416 5.49537 3.99437L7.99499 3.99499Z" fill="#8EA1AE"/>
<path d="M21.995 7.99499V4.995C21.995 3.33814 20.6518 1.995 18.995 1.995H15.995V3.99499H18.495C19.3234 3.99499 19.995 4.66657 19.995 5.495V7.99499H21.995Z" fill="#8EA1AE"/>
<path d="M8.0835 11.0477C7.86112 11.0477 7.64784 10.958 7.49059 10.7983C7.33334 10.6387 7.245 10.4221 7.245 10.1963V8.09635C7.245 7.87055 7.33334 7.65401 7.49059 7.49435C7.64784 7.33469 7.86112 7.245 8.0835 7.245C8.30589 7.245 8.51917 7.33469 8.67642 7.49435C8.83367 7.65401 8.92201 7.87055 8.92201 8.09635V10.1963C8.92201 10.4221 8.83367 10.6387 8.67642 10.7983C8.51917 10.958 8.30589 11.0477 8.0835 11.0477Z" fill="#8EA1AE"/>
<path d="M15.4065 11.0477C15.1841 11.0477 14.9708 10.958 14.8136 10.7983C14.6563 10.6387 14.568 10.4221 14.568 10.1963V8.09635C14.568 7.87055 14.6563 7.65401 14.8136 7.49435C14.9708 7.33469 15.1841 7.245 15.4065 7.245C15.6289 7.245 15.8422 7.33469 15.9994 7.49435C16.1567 7.65401 16.245 7.87055 16.245 8.09635V10.1963C16.245 10.4221 16.1567 10.6387 15.9994 10.7983C15.8422 10.958 15.6289 11.0477 15.4065 11.0477Z" fill="#8EA1AE"/>
<path d="M10.6818 13.4315H10.04C9.81764 13.4315 9.60436 13.3418 9.44711 13.1821C9.28986 13.0225 9.20152 12.8059 9.20152 12.5801C9.20152 12.3543 9.28986 12.1378 9.44711 11.9781C9.60436 11.8185 9.81764 11.7288 10.04 11.7288H10.6818C10.7784 11.7286 10.871 11.6896 10.9393 11.6202C11.0076 11.5509 11.0461 11.4568 11.0462 11.3587V8.09635C11.0462 7.87055 11.1346 7.65401 11.2918 7.49435C11.4491 7.33469 11.6624 7.245 11.8847 7.245C12.1071 7.245 12.3204 7.33469 12.4777 7.49435C12.6349 7.65401 12.7232 7.87055 12.7232 8.09635V11.3587C12.7227 11.9083 12.5074 12.4351 12.1247 12.8237C11.7419 13.2123 11.223 13.4309 10.6818 13.4315Z" fill="#8EA1AE"/>
<path d="M11.6612 17.745C9.2351 17.745 7.52958 15.8391 7.45858 15.7585C7.31185 15.59 7.23676 15.3694 7.24973 15.1448C7.26269 14.9203 7.36266 14.71 7.52778 14.5601C7.69291 14.4101 7.90978 14.3326 8.13101 14.3445C8.35224 14.3563 8.55986 14.4566 8.70852 14.6234C8.71914 14.6353 9.99423 16.0423 11.6612 16.0423C13.3281 16.0423 14.601 14.6376 14.6138 14.6234C14.687 14.5393 14.7759 14.4707 14.8753 14.4217C14.9747 14.3726 15.0826 14.3439 15.193 14.3374C15.3033 14.3308 15.4138 14.3464 15.5182 14.3834C15.6226 14.4204 15.7187 14.4779 15.8011 14.5527C15.8834 14.6275 15.9504 14.7181 15.9982 14.8193C16.046 14.9205 16.0736 15.0303 16.0794 15.1424C16.0852 15.2544 16.0692 15.3666 16.0322 15.4723C15.9952 15.578 15.9379 15.6753 15.8638 15.7585C15.7928 15.8391 14.0873 17.745 11.6612 17.745Z" fill="#8EA1AE"/>
</svg>
