<svg width="42" height="42" viewBox="0 0 42 42" fill="none" xmlns="http://www.w3.org/2000/svg">
<rect width="42" height="42" rx="21" fill="#0866FF"/>
<path fill-rule="evenodd" clip-rule="evenodd" d="M12 20.7298C12 15.7146 15.9307 12 21 12C26.0692 12 30 15.7169 30 20.732C30 25.7471 26.0692 29.4618 21 29.4618C20.0887 29.4618 19.2158 29.3403 18.3945 29.1153C18.2347 29.0725 18.0637 29.0838 17.913 29.1513L16.1265 29.9388C16.0186 29.9864 15.9007 30.0067 15.7831 29.9981C15.6654 29.9894 15.5518 29.952 15.452 29.8891C15.3522 29.8262 15.2694 29.7398 15.2109 29.6374C15.1524 29.5351 15.1199 29.4199 15.1162 29.302L15.0668 27.7001C15.0623 27.5021 14.9722 27.3176 14.826 27.1871C13.0755 25.6211 12 23.3532 12 20.7298ZM18.2393 19.0896L15.5955 23.2834C15.3413 23.6862 15.8363 24.1384 16.2143 23.8504L19.0538 21.695C19.1472 21.624 19.2612 21.5854 19.3785 21.585C19.4958 21.5846 19.6101 21.6224 19.704 21.6927L21.8078 23.2699C21.957 23.382 22.1278 23.4619 22.3095 23.5046C22.4911 23.5473 22.6797 23.5519 22.8632 23.5181C23.0467 23.4843 23.2212 23.4128 23.3757 23.3081C23.5302 23.2034 23.6613 23.0678 23.7608 22.91L26.4068 18.7183C26.6588 18.3156 26.1638 17.8611 25.7858 18.1491L22.9463 20.3045C22.8528 20.3755 22.7388 20.4141 22.6215 20.4145C22.5042 20.4149 22.3899 20.3771 22.296 20.3068L20.1923 18.7296C20.043 18.6175 19.8722 18.5376 19.6906 18.4949C19.5089 18.4522 19.3204 18.4476 19.1368 18.4814C18.9533 18.5152 18.7788 18.5868 18.6243 18.6914C18.4698 18.7961 18.3387 18.9317 18.2393 19.0896Z" fill="white"/>
</svg>
