<svg width="17" height="16" viewBox="0 0 17 16" fill="none" xmlns="http://www.w3.org/2000/svg">
<path d="M6.50008 3.3335C6.32327 3.3335 6.1537 3.40374 6.02868 3.52876C5.90365 3.65379 5.83341 3.82336 5.83341 4.00017C5.83341 4.17698 5.90365 4.34655 6.02868 4.47157C6.1537 4.5966 6.32327 4.66684 6.50008 4.66684C6.67689 4.66684 6.84646 4.5966 6.97149 4.47157C7.09651 4.34655 7.16675 4.17698 7.16675 4.00017C7.16675 3.82336 7.09651 3.65379 6.97149 3.52876C6.84646 3.40374 6.67689 3.3335 6.50008 3.3335ZM4.61341 3.3335C4.75115 2.94315 5.00657 2.60512 5.34448 2.36603C5.68239 2.12693 6.08614 1.99854 6.50008 1.99854C6.91402 1.99854 7.31777 2.12693 7.65568 2.36603C7.99359 2.60512 8.24901 2.94315 8.38675 3.3335H13.1667C13.3436 3.3335 13.5131 3.40374 13.6382 3.52876C13.7632 3.65379 13.8334 3.82336 13.8334 4.00017C13.8334 4.17698 13.7632 4.34655 13.6382 4.47157C13.5131 4.5966 13.3436 4.66684 13.1667 4.66684H8.38675C8.24901 5.05719 7.99359 5.39521 7.65568 5.63431C7.31777 5.87341 6.91402 6.0018 6.50008 6.0018C6.08614 6.0018 5.68239 5.87341 5.34448 5.63431C5.00657 5.39521 4.75115 5.05719 4.61341 4.66684H3.83341C3.6566 4.66684 3.48703 4.5966 3.36201 4.47157C3.23699 4.34655 3.16675 4.17698 3.16675 4.00017C3.16675 3.82336 3.23699 3.65379 3.36201 3.52876C3.48703 3.40374 3.6566 3.3335 3.83341 3.3335H4.61341ZM10.5001 7.3335C10.3233 7.3335 10.1537 7.40374 10.0287 7.52876C9.90365 7.65379 9.83342 7.82336 9.83342 8.00017C9.83342 8.17698 9.90365 8.34655 10.0287 8.47157C10.1537 8.5966 10.3233 8.66684 10.5001 8.66684C10.6769 8.66684 10.8465 8.5966 10.9715 8.47157C11.0965 8.34655 11.1667 8.17698 11.1667 8.00017C11.1667 7.82336 11.0965 7.65379 10.9715 7.52876C10.8465 7.40374 10.6769 7.3335 10.5001 7.3335ZM8.61341 7.3335C8.75115 6.94315 9.00657 6.60512 9.34448 6.36603C9.68239 6.12693 10.0861 5.99853 10.5001 5.99853C10.914 5.99853 11.3178 6.12693 11.6557 6.36603C11.9936 6.60512 12.249 6.94315 12.3867 7.3335H13.1667C13.3436 7.3335 13.5131 7.40374 13.6382 7.52876C13.7632 7.65379 13.8334 7.82336 13.8334 8.00017C13.8334 8.17698 13.7632 8.34655 13.6382 8.47157C13.5131 8.5966 13.3436 8.66684 13.1667 8.66684H12.3867C12.249 9.05719 11.9936 9.39521 11.6557 9.63431C11.3178 9.87341 10.914 10.0018 10.5001 10.0018C10.0861 10.0018 9.68239 9.87341 9.34448 9.63431C9.00657 9.39521 8.75115 9.05719 8.61341 8.66684H3.83341C3.6566 8.66684 3.48703 8.5966 3.36201 8.47157C3.23699 8.34655 3.16675 8.17698 3.16675 8.00017C3.16675 7.82336 3.23699 7.65379 3.36201 7.52876C3.48703 7.40374 3.6566 7.3335 3.83341 7.3335H8.61341ZM6.50008 11.3335C6.32327 11.3335 6.1537 11.4037 6.02868 11.5288C5.90365 11.6538 5.83341 11.8234 5.83341 12.0002C5.83341 12.177 5.90365 12.3465 6.02868 12.4716C6.1537 12.5966 6.32327 12.6668 6.50008 12.6668C6.67689 12.6668 6.84646 12.5966 6.97149 12.4716C7.09651 12.3465 7.16675 12.177 7.16675 12.0002C7.16675 11.8234 7.09651 11.6538 6.97149 11.5288C6.84646 11.4037 6.67689 11.3335 6.50008 11.3335ZM4.61341 11.3335C4.75115 10.9431 5.00657 10.6051 5.34448 10.366C5.68239 10.1269 6.08614 9.99854 6.50008 9.99854C6.91402 9.99854 7.31777 10.1269 7.65568 10.366C7.99359 10.6051 8.24901 10.9431 8.38675 11.3335H13.1667C13.3436 11.3335 13.5131 11.4037 13.6382 11.5288C13.7632 11.6538 13.8334 11.8234 13.8334 12.0002C13.8334 12.177 13.7632 12.3465 13.6382 12.4716C13.5131 12.5966 13.3436 12.6668 13.1667 12.6668H8.38675C8.24901 13.0572 7.99359 13.3952 7.65568 13.6343C7.31777 13.8734 6.91402 14.0018 6.50008 14.0018C6.08614 14.0018 5.68239 13.8734 5.34448 13.6343C5.00657 13.3952 4.75115 13.0572 4.61341 12.6668H3.83341C3.6566 12.6668 3.48703 12.5966 3.36201 12.4716C3.23699 12.3465 3.16675 12.177 3.16675 12.0002C3.16675 11.8234 3.23699 11.6538 3.36201 11.5288C3.48703 11.4037 3.6566 11.3335 3.83341 11.3335H4.61341Z" fill="white"/>
</svg>
