<svg xmlns="http://www.w3.org/2000/svg" width="24" height="24" viewBox="0 0 24 24" fill="currentColor">
  <path d="M7.8 4.8V19.2H16.8V4.8H7.8ZM6.9 3H17.7C17.9387 3 18.1676 3.09482 18.3364 3.2636C18.5052 3.43239 18.6 3.66131 18.6 3.9V20.1C18.6 20.3387 18.5052 20.5676 18.3364 20.7364C18.1676 20.9052 17.9387 21 17.7 21H6.9C6.66131 21 6.43239 20.9052 6.2636 20.7364C6.09482 20.5676 6 20.3387 6 20.1V3.9C6 3.66131 6.09482 3.43239 6.2636 3.2636C6.43239 3.09482 6.66131 3 6.9 3ZM12.3 16.5C12.5387 16.5 12.7676 16.5948 12.9364 16.7636C13.1052 16.9324 13.2 17.1613 13.2 17.4C13.2 17.6387 13.1052 17.8676 12.9364 18.0364C12.7676 18.2052 12.5387 18.3 12.3 18.3C12.0613 18.3 11.8324 18.2052 11.6636 18.0364C11.4948 17.8676 11.4 17.6387 11.4 17.4C11.4 17.1613 11.4948 16.9324 11.6636 16.7636C11.8324 16.5948 12.0613 16.5 12.3 16.5Z" fill="currentColor"/>
</svg>