<svg width="24" height="24" viewBox="0 0 24 24" fill="currentColor" xmlns="http://www.w3.org/2000/svg">
<g clip-path="url(#clip0_1_1122)">
<path d="M19.2991 7.3716V13.689L14.8846 11.8865V10.4606L12.0661 9.30865L9.24758 10.4606V11.6786L16.2682 14.5475V17.7735L12.0661 19.4904L7.86151 17.7735V14.7114L9.24758 15.2763V16.8416L12.0661 17.9911L13.9817 17.2085L14.8822 16.8416H14.8846V15.4793L7.86151 12.6104V9.52632L12.0661 7.80939L16.2682 9.52632V10.9522L17.913 11.6248V8.30344L13.0056 6.30035L14.0842 5.24133L19.2991 7.3716Z" fill="currentColor" stroke="currentColor" stroke-width="0.3"/>
<path d="M17.913 15.2176L19.2991 15.7825V20.0455L12.0661 23L4.83075 20.0455V7.37154L10.0456 5.24127L11.1242 6.30029L6.21682 8.30338V19.1112L12.0661 21.5008L17.913 19.1112V15.2176Z" fill="currentColor" stroke="currentColor" stroke-width="0.3"/>
<path d="M13.5278 0H10.6019L7.74435 2.26234L8.3471 2.85177L9.00841 2.32837L10.8947 0.836454H13.2398L15.1262 2.32837L15.7875 2.85177L16.3902 2.26234L13.5278 0ZM12.0636 5.32689L9.38177 2.69769L8.72046 3.22108L12.0636 6.49841L15.4092 3.22108L14.7479 2.69769L12.0661 5.32689H12.0636Z" fill="currentColor" stroke="currentColor" stroke-width="0.3"/>
<path d="M13.0569 1.35992H12.0637H11.073L9.79425 2.37247L12.0637 4.59568L14.3331 2.37247L13.0569 1.35992Z" fill="currentColor" stroke="currentColor" stroke-width="0.3"/>
</g>
<defs>
<clipPath id="clip0_1_1122">
<rect width="24" height="24" fill="currentColor"/>
</clipPath>
</defs>
</svg>
