<svg xmlns="http://www.w3.org/2000/svg" width="24" height="24" viewBox="0 0 24 24" fill="currentColor">
  <path fill-rule="evenodd" clip-rule="evenodd" d="M1.5 12.0002C1.5 6.20137 6.20113 1.50024 12 1.50024C17.7989 1.50024 22.5 6.20137 22.5 12.0002C22.5 17.7991 17.7989 22.5002 12 22.5002C6.20113 22.5002 1.5 17.7991 1.5 12.0002ZM8.86841 20.1732C6.98703 19.4518 5.4181 18.0995 4.42065 16.3752H7.87455C8.00222 17.352 8.18383 18.2533 8.43045 19.0425C8.55216 19.432 8.69691 19.8137 8.86841 20.1732ZM9.6406 16.3752C9.75419 17.1758 9.90628 17.898 10.1008 18.5205C10.6283 20.2085 11.3134 20.7502 12 20.7502C12.6866 20.7502 13.3717 20.2085 13.8992 18.5205C14.0937 17.898 14.2458 17.1758 14.3594 16.3752H9.6406ZM14.54 14.6252H9.46C9.40231 13.7985 9.375 12.9178 9.375 12.0002C9.375 11.0826 9.40231 10.202 9.46 9.37524H14.54C14.5977 10.202 14.625 11.0826 14.625 12.0002C14.625 12.9178 14.5977 13.7985 14.54 14.6252ZM16.1255 16.3752C15.9978 17.352 15.8162 18.2533 15.5695 19.0425C15.4478 19.432 15.3031 19.8137 15.1316 20.1732C17.013 19.4518 18.5819 18.0995 19.5794 16.3752H16.1255ZM20.3494 14.6252H16.2941C16.35 13.7791 16.375 12.8978 16.375 12.0002C16.375 11.1027 16.35 10.2213 16.2941 9.37524H20.3494C20.6097 10.2039 20.75 11.0857 20.75 12.0002C20.75 12.9148 20.6097 13.7966 20.3494 14.6252ZM19.5794 7.62524C18.5819 5.901 17.013 4.54869 15.1316 3.82733C15.3031 4.18675 15.4478 4.56853 15.5695 4.958C15.8162 5.74721 15.9978 6.64849 16.1255 7.62524H19.5794ZM14.3594 7.62524C14.2458 6.82472 14.0937 6.10245 13.8992 5.47998C13.3717 3.79202 12.6866 3.25024 12 3.25024C11.3134 3.25024 10.6283 3.79202 10.1008 5.47998C9.90628 6.10245 9.75419 6.82472 9.6406 7.62524H14.3594ZM7.87455 7.62524C8.00222 6.64849 8.18383 5.74721 8.43045 4.958C8.55216 4.56853 8.69691 4.18675 8.86841 3.82733C6.98703 4.54869 5.4181 5.901 4.42065 7.62524H7.87455ZM3.6506 9.37524C3.39032 10.2039 3.25 11.0857 3.25 12.0002C3.25 12.9148 3.39032 13.7966 3.6506 14.6252H7.70588C7.65004 13.7791 7.625 12.8978 7.625 12.0002C7.625 11.1027 7.65004 10.2213 7.70588 9.37524H3.6506Z" fill="currentColor"/>
</svg>