<svg width="42" height="42" viewBox="0 0 42 42" fill="none" xmlns="http://www.w3.org/2000/svg">
<rect width="42" height="42" rx="21" fill="#06C755"/>
<path fill-rule="evenodd" clip-rule="evenodd" d="M30 20.2723C30 16.2559 25.9706 13 21 13C16.0294 13 11.9999 16.2559 12 20.2723C12 23.8524 15.2015 26.8281 19.4174 27.4325L19.4193 27.4327C19.5183 27.4469 19.6182 27.4593 19.7183 27.4709C20.6145 27.6593 20.4662 28.4366 20.3427 29.0843C20.2684 29.474 20.203 29.8169 20.3796 29.9561C20.9203 30.3825 25.0169 27.6188 27.5057 25.2974C27.8659 24.993 28.1935 24.6633 28.4845 24.312L28.4897 24.3063C28.5591 24.2291 28.6142 24.1592 28.6564 24.096C29.508 22.9851 30 21.6752 30 20.2723ZM17.5936 22.5916H15.7784C15.5202 22.5916 15.309 22.3784 15.309 22.1178V18.6049C15.309 18.3443 15.5202 18.1312 15.7784 18.1312H15.8176C16.0758 18.1312 16.2869 18.3443 16.2869 18.6049V21.6047H17.5936C17.8518 21.6047 18.063 21.8178 18.063 22.0784V22.1179C18.063 22.3784 17.8518 22.5916 17.5936 22.5916ZM27.0261 20.3501V20.3896C27.0261 20.6501 26.8149 20.8633 26.5567 20.8631H25.2501V21.6131H26.5567C26.8149 21.6131 27.0261 21.8262 27.0261 22.0867V22.1263C27.0261 22.3868 26.8149 22.6 26.5567 22.6H24.7415C24.4833 22.6 24.2721 22.3868 24.2721 22.1263V18.6133C24.2721 18.3528 24.4833 18.1397 24.7415 18.1397H26.5567C26.8149 18.1397 27.0261 18.3528 27.0261 18.6133V18.6528C27.0261 18.9134 26.8149 19.1265 26.5567 19.1265H25.2501V19.8765H26.5567C26.8149 19.8765 27.0261 20.0896 27.0261 20.3501ZM23.5353 22.4504C23.5075 22.4846 23.4679 22.5137 23.421 22.5363C23.3535 22.5726 23.2782 22.5916 23.2017 22.5916H23.1625C23.0996 22.5916 23.0395 22.5789 22.9845 22.5559C22.9129 22.5289 22.8487 22.4846 22.8017 22.42C22.7893 22.4049 22.7778 22.3889 22.7672 22.3724L21.0584 20.0172V22.1179C21.0584 22.3785 20.8473 22.5916 20.5891 22.5916H20.5499C20.2916 22.5916 20.0805 22.3785 20.0805 22.1179V18.605C20.0805 18.3445 20.2917 18.1314 20.5499 18.1314H20.5891C20.763 18.1314 20.9156 18.2281 20.9966 18.3709L22.6932 20.6671V18.605C22.6932 18.3445 22.9044 18.1314 23.1626 18.1314H23.2017C23.46 18.1314 23.6712 18.3445 23.6712 18.605V22.1179C23.6711 22.2424 23.6222 22.362 23.5353 22.4504ZM18.9503 22.5916H18.9112C18.653 22.5916 18.4417 22.3784 18.4417 22.1179V18.6049C18.4417 18.3444 18.653 18.1313 18.9112 18.1313H18.9503C19.2085 18.1313 19.4197 18.3444 19.4197 18.6049V22.1179C19.4197 22.3784 19.2085 22.5916 18.9503 22.5916Z" fill="white"/>
</svg>
