<svg xmlns="http://www.w3.org/2000/svg" width="12" height="12" viewBox="0 0 12 12" fill="currentColor">
  <path d="M6.48528 4.21893L7.13309 4.8668C7.4307 5.16442 7.66679 5.51775 7.82786 5.90662C7.98893 6.29549 8.07183 6.71229 8.07183 7.1332C8.07183 7.55412 7.98893 7.97091 7.82786 8.35978C7.66679 8.74865 7.4307 9.10198 7.13309 9.3996L6.97102 9.56123C6.36999 10.1623 5.55483 10.5 4.70485 10.5C3.85487 10.5 3.0397 10.1623 2.43868 9.56123C1.83765 8.96014 1.5 8.14489 1.5 7.29482C1.5 6.44476 1.83765 5.62951 2.43868 5.02842L3.08648 5.67629C2.8724 5.88854 2.70233 6.14098 2.58606 6.41913C2.46979 6.69727 2.40959 6.99565 2.40893 7.29713C2.40827 7.59861 2.46716 7.89725 2.58221 8.1759C2.69727 8.45456 2.86622 8.70774 3.07938 8.92092C3.29253 9.1341 3.54569 9.30307 3.82432 9.41813C4.10295 9.5332 4.40156 9.59209 4.703 9.59143C5.00445 9.59077 5.3028 9.53057 5.58092 9.41429C5.85904 9.298 6.11145 9.12792 6.32367 8.91381L6.48574 8.75173C6.91487 8.32243 7.15594 7.74024 7.15594 7.1332C7.15594 6.52616 6.91487 5.94397 6.48574 5.51467L5.83793 4.8668L6.48574 4.21939L6.48528 4.21893ZM9.56086 6.97112L8.91352 6.32371C9.1276 6.11146 9.29767 5.85902 9.41394 5.58087C9.53021 5.30272 9.59041 5.00435 9.59107 4.70287C9.59173 4.40139 9.53284 4.10275 9.41779 3.8241C9.30273 3.54544 9.13378 3.29226 8.92062 3.07908C8.70747 2.8659 8.45431 2.69693 8.17568 2.58187C7.89705 2.4668 7.59844 2.40791 7.297 2.40857C6.99555 2.40923 6.6972 2.46943 6.41908 2.58571C6.14096 2.702 5.88855 2.87208 5.67633 3.08619L5.51426 3.24827C5.08513 3.67757 4.84406 4.25976 4.84406 4.8668C4.84406 5.47384 5.08513 6.05602 5.51426 6.48533L6.16207 7.1332L5.51426 7.78061L4.86691 7.1332C4.5693 6.83558 4.33321 6.48225 4.17214 6.09338C4.01107 5.70451 3.92817 5.28771 3.92817 4.8668C3.92817 4.44588 4.01107 4.02909 4.17214 3.64022C4.33321 3.25135 4.5693 2.89802 4.86691 2.6004L5.02898 2.43877C5.63001 1.83769 6.44517 1.5 7.29515 1.5C8.14513 1.5 8.9603 1.83769 9.56132 2.43877C10.1623 3.03986 10.5 3.85511 10.5 4.70518C10.5 5.55524 10.1623 6.37049 9.56132 6.97158L9.56086 6.97112Z" fill="currentColor"/>
</svg>