<svg width="16" height="16" viewBox="0 0 16 16" fill="none" xmlns="http://www.w3.org/2000/svg">
  <mask id="mask0_1263_1492" style="mask-type:alpha" maskUnits="userSpaceOnUse" x="0" y="0"
    width="16" height="16">
    <rect width="16" height="16" fill="#D9D9D9" />
  </mask>
  <g mask="url(#mask0_1263_1492)">
    <path
      d="M4.00002 13.3334C3.44446 13.3334 2.97224 13.1389 2.58335 12.7501C2.19446 12.3612 2.00002 11.8889 2.00002 11.3334H1.33335C1.14446 11.3334 0.986131 11.2695 0.858354 11.1417C0.730576 11.0139 0.666687 10.8556 0.666687 10.6667V4.00005C0.666687 3.63338 0.797243 3.3195 1.05835 3.05838C1.31946 2.79727 1.63335 2.66672 2.00002 2.66672H10C10.3667 2.66672 10.6806 2.79727 10.9417 3.05838C11.2028 3.3195 11.3334 3.63338 11.3334 4.00005V5.33338H12.6667C12.8778 5.33338 13.0778 5.38061 13.2667 5.47505C13.4556 5.5695 13.6111 5.70005 13.7334 5.86672L15.2 7.81672C15.2445 7.87227 15.2778 7.93338 15.3 8.00005C15.3222 8.06672 15.3334 8.13894 15.3334 8.21672V10.6667C15.3334 10.8556 15.2695 11.0139 15.1417 11.1417C15.0139 11.2695 14.8556 11.3334 14.6667 11.3334H14C14 11.8889 13.8056 12.3612 13.4167 12.7501C13.0278 13.1389 12.5556 13.3334 12 13.3334C11.4445 13.3334 10.9722 13.1389 10.5834 12.7501C10.1945 12.3612 10 11.8889 10 11.3334H6.00002C6.00002 11.8889 5.80558 12.3612 5.41669 12.7501C5.0278 13.1389 4.55558 13.3334 4.00002 13.3334ZM4.00002 12.0001C4.18891 12.0001 4.34724 11.9362 4.47502 11.8084C4.6028 11.6806 4.66669 11.5223 4.66669 11.3334C4.66669 11.1445 4.6028 10.9862 4.47502 10.8584C4.34724 10.7306 4.18891 10.6667 4.00002 10.6667C3.81113 10.6667 3.6528 10.7306 3.52502 10.8584C3.39724 10.9862 3.33335 11.1445 3.33335 11.3334C3.33335 11.5223 3.39724 11.6806 3.52502 11.8084C3.6528 11.9362 3.81113 12.0001 4.00002 12.0001ZM2.00002 10.0001H2.53335C2.72224 9.80005 2.93891 9.63894 3.18335 9.51672C3.4278 9.3945 3.70002 9.33338 4.00002 9.33338C4.30002 9.33338 4.57224 9.3945 4.81669 9.51672C5.06113 9.63894 5.2778 9.80005 5.46669 10.0001H10V4.00005H2.00002V10.0001ZM12 12.0001C12.1889 12.0001 12.3472 11.9362 12.475 11.8084C12.6028 11.6806 12.6667 11.5223 12.6667 11.3334C12.6667 11.1445 12.6028 10.9862 12.475 10.8584C12.3472 10.7306 12.1889 10.6667 12 10.6667C11.8111 10.6667 11.6528 10.7306 11.525 10.8584C11.3972 10.9862 11.3334 11.1445 11.3334 11.3334C11.3334 11.5223 11.3972 11.6806 11.525 11.8084C11.6528 11.9362 11.8111 12.0001 12 12.0001ZM11.3334 8.66672H14.1667L12.6667 6.66672H11.3334V8.66672Z"
      fill="currentColor" />
  </g>
</svg>