<svg xmlns="http://www.w3.org/2000/svg" width="16" height="16" viewBox="0 0 16 16" fill="currentColor">
  <path d="M9.33333 3.33333C9.33333 2.6 8.73333 2 7.99999 2C7.26666 2 6.66666 2.6 6.66666 3.33333C6.66666 4.06667 7.26666 4.66667 7.99999 4.66667C8.73333 4.66667 9.33333 4.06667 9.33333 3.33333ZM9.33333 12.6667C9.33333 11.9333 8.73333 11.3333 7.99999 11.3333C7.26666 11.3333 6.66666 11.9333 6.66666 12.6667C6.66666 13.4 7.26666 14 7.99999 14C8.73333 14 9.33333 13.4 9.33333 12.6667ZM9.33333 8C9.33333 7.26667 8.73333 6.66667 7.99999 6.66667C7.26666 6.66667 6.66666 7.26667 6.66666 8C6.66666 8.73333 7.26666 9.33333 7.99999 9.33333C8.73333 9.33333 9.33333 8.73333 9.33333 8Z" fill="currentColor"/>
</svg>