<svg width="24" height="24" viewBox="0 0 24 24" fill="currentColor" xmlns="http://www.w3.org/2000/svg">
<path d="M16.7602 19.586V20.1151H5.26129V3.88494H16.7602V10.3495V10.4297L16.8385 10.4471C17.4551 10.5843 18.0254 10.8445 18.5224 11.2006L18.6806 11.314V11.1193V2.75269C18.6806 2.31739 18.3278 1.96451 17.8925 1.96451H4.12903C3.69373 1.96451 3.34086 2.31739 3.34086 2.75269V21.2473C3.34086 21.6826 3.69373 22.0355 4.12903 22.0355H17.8925C18.3278 22.0355 18.6806 21.6826 18.6806 21.2473V18.8162V18.6215L18.5224 18.7349C18.0254 19.091 17.4551 19.3512 16.8385 19.4884L16.7602 19.5058V19.586ZM11.3269 16.0625L11.3084 15.986H11.2297H6.70968H6.60968V16.086V17.8925V17.9925H6.70968H12.1088H12.3148L12.1874 17.8306C11.7834 17.3176 11.4855 16.7172 11.3269 16.0625ZM11.1091 14.7237H11.2022L11.2088 14.6308C11.2543 13.9977 11.4271 13.3998 11.7017 12.8627L11.7761 12.7172H11.6127H6.70968H6.60968V12.8172V14.6237V14.7237H6.70968H11.1091ZM15.2384 10.3737L15.3258 10.3626V10.2745V9.54838V9.44838H15.2258H6.70968H6.60968V9.54838V11.3548V11.4548H6.70968H12.7731H12.8098L12.8377 11.4312C13.5033 10.8679 14.3298 10.4891 15.2384 10.3737ZM15.3258 6.27957V6.17957H15.2258H9.6344H9.5344V6.27957V8.08602V8.18602H9.6344H15.2258H15.3258V8.08602V6.27957Z" fill="currentColor" stroke="currentColor" stroke-width="0.2"/>
<path fill-rule="evenodd" clip-rule="evenodd" d="M16 19C18.2091 19 20 17.2091 20 15C20 12.7909 18.2091 11 16 11C13.7909 11 12 12.7909 12 15C12 17.2091 13.7909 19 16 19ZM15.6717 17.4619V18.2299H16.3861V17.4798C16.7553 17.4262 17.0649 17.2893 17.3149 17.069C17.565 16.8487 17.69 16.5272 17.69 16.1045C17.69 15.7651 17.5843 15.466 17.373 15.207C17.1616 14.948 16.8505 14.759 16.4397 14.6399C15.9992 14.5149 15.6896 14.3958 15.511 14.2827C15.3324 14.1696 15.243 14.0148 15.243 13.8183C15.243 13.6456 15.3115 13.5013 15.4484 13.3852C15.5854 13.2691 15.7848 13.211 16.0468 13.211C16.273 13.211 16.4516 13.2586 16.5826 13.3539C16.7136 13.4492 16.8148 13.5921 16.8863 13.7826L17.5471 13.4968C17.4578 13.2527 17.3164 13.0458 17.1229 12.8761C16.9294 12.7064 16.6838 12.5978 16.3861 12.5502V11.8H15.6717V12.5502C15.4097 12.5799 15.1537 12.702 14.9037 12.9163C14.6536 13.1306 14.5286 13.4313 14.5286 13.8183C14.5286 14.1398 14.6239 14.4122 14.8144 14.6354C15.0049 14.8587 15.3562 15.0507 15.8682 15.2114C16.3445 15.3662 16.6481 15.5047 16.7791 15.6267C16.9101 15.7488 16.9756 15.914 16.9756 16.1224C16.9756 16.3545 16.8907 16.5257 16.721 16.6359C16.5514 16.746 16.3445 16.8011 16.1004 16.8011C15.8146 16.8011 15.5839 16.7266 15.4083 16.5778C15.2326 16.429 15.1002 16.2117 15.0109 15.9259L14.35 16.1938C14.4572 16.5629 14.6254 16.8487 14.8546 17.0511C15.0838 17.2535 15.3562 17.3905 15.6717 17.4619Z" fill="currentColor"/>
</svg>
