<svg xmlns="http://www.w3.org/2000/svg" width="24" height="24" viewBox="0 0 24 24" fill="currentColor">
  <path fill-rule="evenodd" clip-rule="evenodd" d="M5.16123 3.78488V20.215H16.8602V19.5859C17.4902 19.4457 18.0729 19.1799 18.5806 18.8161V21.2472C18.5806 21.6273 18.2725 21.9354 17.8924 21.9354H4.12897C3.7489 21.9354 3.4408 21.6273 3.4408 21.2472V2.75262C3.4408 2.37256 3.7489 2.06445 4.12897 2.06445H17.8924C18.2725 2.06445 18.5806 2.37256 18.5806 2.75263V11.1193C18.0729 10.7555 17.4902 10.4896 16.8602 10.3494V3.78488H5.16123ZM12.1088 17.8924C11.6961 17.3683 11.3918 16.7549 11.2296 16.086H6.70962V17.8924H12.1088ZM11.109 14.6236C11.1555 13.9768 11.3321 13.3659 11.6126 12.8171H6.70962V14.6236H11.109ZM12.7731 11.3548C13.4529 10.7794 14.2974 10.3924 15.2257 10.2745V9.54832H6.70962V11.3548H12.7731ZM15.2257 6.27951H9.63434V8.08596H15.2257V6.27951ZM19.6128 14.9677C19.6128 17.0581 17.9183 18.7526 15.8279 18.7526C13.7375 18.7526 12.0429 17.0581 12.0429 14.9677C12.0429 12.8773 13.7375 11.1827 15.8279 11.1827C17.9183 11.1827 19.6128 12.8773 19.6128 14.9677ZM15.4421 15.8754C15.4129 15.8754 15.3925 15.8623 15.3809 15.8361L14.8344 14.6259C14.8286 14.6143 14.8198 14.6084 14.8082 14.6084H14.4016C14.387 14.6084 14.3798 14.6157 14.3798 14.6303V15.823C14.3798 15.8376 14.3739 15.8507 14.3623 15.8623C14.3535 15.8711 14.3419 15.8754 14.3273 15.8754H13.8158C13.8012 15.8754 13.7881 15.8711 13.7765 15.8623C13.7677 15.8507 13.7634 15.8376 13.7634 15.823V12.8696C13.7634 12.855 13.7677 12.8434 13.7765 12.8346C13.7881 12.823 13.8012 12.8171 13.8158 12.8171H15.0661C15.2526 12.8171 15.4158 12.855 15.5557 12.9307C15.6985 13.0065 15.8078 13.1142 15.8836 13.254C15.9623 13.3938 16.0016 13.5555 16.0016 13.739C16.0016 13.9371 15.9521 14.1075 15.853 14.2502C15.7539 14.39 15.6155 14.489 15.4377 14.5473C15.4231 14.5531 15.4187 14.5633 15.4246 14.5778L16.0191 15.8143C16.0249 15.8259 16.0279 15.8347 16.0279 15.8405C16.0279 15.8638 16.0118 15.8754 15.9798 15.8754H15.4421ZM14.4016 13.3458C14.387 13.3458 14.3798 13.3531 14.3798 13.3676V14.1147C14.3798 14.1293 14.387 14.1366 14.4016 14.1366H14.9743C15.0967 14.1366 15.1958 14.1002 15.2716 14.0274C15.3503 13.9545 15.3896 13.8599 15.3896 13.7434C15.3896 13.6269 15.3503 13.5322 15.2716 13.4594C15.1958 13.3837 15.0967 13.3458 14.9743 13.3458H14.4016ZM18.1578 14.8348C18.2103 14.9834 18.2365 15.1582 18.2365 15.3591C18.2365 15.5601 18.2088 15.7421 18.1534 15.9053C18.0864 16.0917 17.98 16.2402 17.8343 16.3509C17.6915 16.4587 17.5137 16.5125 17.301 16.5125C17.0911 16.5125 16.9279 16.4397 16.8114 16.2941C16.8055 16.2854 16.7997 16.2824 16.7939 16.2854C16.788 16.2883 16.7851 16.2941 16.7851 16.3028V17.2378C16.7851 17.2524 16.7793 17.264 16.7676 17.2728C16.7589 17.2844 16.7472 17.2902 16.7327 17.2902H16.2212C16.2066 17.2902 16.1935 17.2844 16.1818 17.2728C16.1731 17.264 16.1687 17.2524 16.1687 17.2378V14.2843C16.1687 14.2698 16.1731 14.2581 16.1818 14.2494C16.1935 14.2377 16.2066 14.2319 16.2212 14.2319H16.7327C16.7472 14.2319 16.7589 14.2377 16.7676 14.2494C16.7793 14.2581 16.7851 14.2698 16.7851 14.2843V14.4285C16.7851 14.4373 16.788 14.4431 16.7939 14.446C16.7997 14.446 16.8055 14.4431 16.8114 14.4373C16.9338 14.2771 17.1028 14.197 17.3185 14.197C17.5196 14.197 17.693 14.2538 17.8387 14.3674C17.9873 14.478 18.0937 14.6339 18.1578 14.8348ZM17.489 15.8135C17.5618 15.6999 17.5982 15.5455 17.5982 15.3504C17.5982 15.1669 17.5676 15.0213 17.5064 14.9135C17.4394 14.7882 17.3316 14.7256 17.1829 14.7256C17.0489 14.7256 16.9483 14.7882 16.8813 14.9135C16.8201 15.0183 16.7895 15.1654 16.7895 15.3548C16.7895 15.5499 16.8216 15.7014 16.8857 15.8091C16.9527 15.9256 17.0518 15.9839 17.1829 15.9839C17.3141 15.9839 17.4161 15.9271 17.489 15.8135Z" fill="currentColor" />
</svg>