<svg width="6" height="6" viewBox="0 0 6 6" fill="currentColor" xmlns="http://www.w3.org/2000/svg">
<path d="M1.13333 5.33333H1.66667C1.76111 5.33333 1.84028 5.36528 1.90417 5.42917C1.96806 5.49306 2 5.57222 2 5.66667C2 5.76111 1.96806 5.84028 1.90417 5.90417C1.84028 5.96806 1.76111 6 1.66667 6H0.333333C0.238889 6 0.159722 5.96806 0.0958333 5.90417C0.0319444 5.84028 0 5.76111 0 5.66667V4.33333C0 4.23889 0.0319444 4.15972 0.0958333 4.09583C0.159722 4.03194 0.238889 4 0.333333 4C0.427778 4 0.506944 4.03194 0.570833 4.09583C0.634722 4.15972 0.666667 4.23889 0.666667 4.33333V4.86667L1.46667 4.06667C1.52778 4.00556 1.60556 3.975 1.7 3.975C1.79444 3.975 1.87222 4.00556 1.93333 4.06667C1.99444 4.12778 2.025 4.20556 2.025 4.3C2.025 4.39444 1.99444 4.47222 1.93333 4.53333L1.13333 5.33333ZM5.33333 1.13333L4.53333 1.93333C4.47222 1.99444 4.39444 2.025 4.3 2.025C4.20556 2.025 4.12778 1.99444 4.06667 1.93333C4.00556 1.87222 3.975 1.79444 3.975 1.7C3.975 1.60556 4.00556 1.52778 4.06667 1.46667L4.86667 0.666667H4.33333C4.23889 0.666667 4.15972 0.634722 4.09583 0.570833C4.03194 0.506944 4 0.427778 4 0.333333C4 0.238889 4.03194 0.159722 4.09583 0.0958333C4.15972 0.0319444 4.23889 0 4.33333 0H5.66667C5.76111 0 5.84028 0.0319444 5.90417 0.0958333C5.96806 0.159722 6 0.238889 6 0.333333V1.66667C6 1.76111 5.96806 1.84028 5.90417 1.90417C5.84028 1.96806 5.76111 2 5.66667 2C5.57222 2 5.49306 1.96806 5.42917 1.90417C5.36528 1.84028 5.33333 1.76111 5.33333 1.66667V1.13333Z" fill="currentColor"/>
</svg>
