<svg xmlns="http://www.w3.org/2000/svg" width="64" height="64" viewBox="0 0 64 64" fill="currentColor">
  <path d="M16 10.857C16 9.18993 16.6622 7.59113 17.841 6.41233C19.0198 5.23353 20.6186 4.57129 22.2857 4.57129H41.7143C43.3814 4.57129 44.9802 5.23353 46.159 6.41233C47.3378 7.59113 48 9.18993 48 10.857V29.7507C46.8562 29.6761 45.7078 29.7144 44.5714 29.865V10.857C44.5714 9.27986 43.2914 7.99986 41.7143 7.99986H22.2857C20.7086 7.99986 19.4286 9.27986 19.4286 10.857V53.1427C19.4286 54.7199 20.7086 55.9999 22.2857 55.9999H30.9029L29.8971 59.4284H22.2857C20.6186 59.4284 19.0198 58.7662 17.841 57.5874C16.6622 56.4086 16 54.8098 16 53.1427V10.857ZM61.7143 46.857C61.7145 49.4422 61.0402 51.9827 59.758 54.2274C58.4758 56.4722 56.63 58.3436 54.4031 59.6566C52.1762 60.9696 49.6452 61.6788 47.0603 61.7142C44.4754 61.7495 41.926 61.1098 39.664 59.8581L33.4537 61.6661C33.257 61.7235 33.0485 61.727 32.8501 61.6761C32.6516 61.6253 32.4705 61.522 32.3256 61.3771C32.1807 61.2323 32.0775 61.0511 32.0266 60.8526C31.9758 60.6542 31.9792 60.4457 32.0366 60.249L33.8537 54.0479C32.758 52.0637 32.1307 49.8552 32.02 47.5913C31.9093 45.3274 32.318 43.0681 33.2149 40.9865C34.1118 38.9049 35.4731 37.0561 37.1946 35.5817C38.916 34.1072 40.952 33.0462 43.1467 32.4797C45.3414 31.9133 47.6366 31.8566 49.8566 32.3138C52.0766 32.7711 54.1626 33.7302 55.9548 35.1178C57.7471 36.5054 59.198 38.2847 60.1967 40.3194C61.1954 42.3541 61.713 44.5904 61.7143 46.857ZM41.1429 43.4284C40.8398 43.4284 40.5491 43.5488 40.3347 43.7632C40.1204 43.9775 40 44.2682 40 44.5713C40 44.8744 40.1204 45.1651 40.3347 45.3794C40.5491 45.5937 40.8398 45.7141 41.1429 45.7141H52.5714C52.8745 45.7141 53.1652 45.5937 53.3796 45.3794C53.5939 45.1651 53.7143 44.8744 53.7143 44.5713C53.7143 44.2682 53.5939 43.9775 53.3796 43.7632C53.1652 43.5488 52.8745 43.4284 52.5714 43.4284H41.1429ZM40 49.1427C40 49.4458 40.1204 49.7365 40.3347 49.9508C40.5491 50.1652 40.8398 50.2856 41.1429 50.2856H46.8571C47.1602 50.2856 47.4509 50.1652 47.6653 49.9508C47.8796 49.7365 48 49.4458 48 49.1427C48 48.8396 47.8796 48.5489 47.6653 48.3346C47.4509 48.1203 47.1602 47.9999 46.8571 47.9999H41.1429C40.8398 47.9999 40.5491 48.1203 40.3347 48.3346C40.1204 48.5489 40 48.8396 40 49.1427Z" fill="currentColor"/>
</svg>