<svg width="20" height="20" viewBox="0 0 20 20" fill="currentColor" xmlns="http://www.w3.org/2000/svg">
<path d="M11 9.59989L14 12.5999C14.1833 12.7832 14.275 13.0166 14.275 13.2999C14.275 13.5832 14.1833 13.8166 14 13.9999C13.8167 14.1832 13.5833 14.2749 13.3 14.2749C13.0167 14.2749 12.7833 14.1832 12.6 13.9999L9.3 10.6999C9.2 10.5999 9.125 10.4874 9.075 10.3624C9.025 10.2374 9 10.1082 9 9.97489V5.99989C9 5.71656 9.09583 5.47905 9.2875 5.28739C9.47917 5.09572 9.71667 4.99989 10 4.99989C10.2833 4.99989 10.5208 5.09572 10.7125 5.28739C10.9042 5.47905 11 5.71656 11 5.99989V9.59989ZM13.25 2.99989C12.9 2.99989 12.6042 2.87905 12.3625 2.63739C12.1208 2.39572 12 2.09989 12 1.74989C12 1.39989 12.1208 1.10405 12.3625 0.862388C12.6042 0.620721 12.9 0.499888 13.25 0.499888C13.6 0.499888 13.8958 0.620721 14.1375 0.862388C14.3792 1.10405 14.5 1.39989 14.5 1.74989C14.5 2.09989 14.3792 2.39572 14.1375 2.63739C13.8958 2.87905 13.6 2.99989 13.25 2.99989ZM13.25 19.4999C12.9 19.4999 12.6042 19.3791 12.3625 19.1374C12.1208 18.8957 12 18.5999 12 18.2499C12 17.8999 12.1208 17.6041 12.3625 17.3624C12.6042 17.1207 12.9 16.9999 13.25 16.9999C13.6 16.9999 13.8958 17.1207 14.1375 17.3624C14.3792 17.6041 14.5 17.8999 14.5 18.2499C14.5 18.5999 14.3792 18.8957 14.1375 19.1374C13.8958 19.3791 13.6 19.4999 13.25 19.4999ZM17.25 6.49989C16.9 6.49989 16.6042 6.37906 16.3625 6.13739C16.1208 5.89572 16 5.59989 16 5.24989C16 4.89989 16.1208 4.60405 16.3625 4.36239C16.6042 4.12072 16.9 3.99989 17.25 3.99989C17.6 3.99989 17.8958 4.12072 18.1375 4.36239C18.3792 4.60405 18.5 4.89989 18.5 5.24989C18.5 5.59989 18.3792 5.89572 18.1375 6.13739C17.8958 6.37906 17.6 6.49989 17.25 6.49989ZM17.25 15.9999C16.9 15.9999 16.6042 15.8791 16.3625 15.6374C16.1208 15.3957 16 15.0999 16 14.7499C16 14.3999 16.1208 14.1041 16.3625 13.8624C16.6042 13.6207 16.9 13.4999 17.25 13.4999C17.6 13.4999 17.8958 13.6207 18.1375 13.8624C18.3792 14.1041 18.5 14.3999 18.5 14.7499C18.5 15.0999 18.3792 15.3957 18.1375 15.6374C17.8958 15.8791 17.6 15.9999 17.25 15.9999ZM18.75 11.2499C18.4 11.2499 18.1042 11.1291 17.8625 10.8874C17.6208 10.6457 17.5 10.3499 17.5 9.99989C17.5 9.64989 17.6208 9.35406 17.8625 9.11239C18.1042 8.87072 18.4 8.74989 18.75 8.74989C19.1 8.74989 19.3958 8.87072 19.6375 9.11239C19.8792 9.35406 20 9.64989 20 9.99989C20 10.3499 19.8792 10.6457 19.6375 10.8874C19.3958 11.1291 19.1 11.2499 18.75 11.2499ZM0 9.99989C0 7.38322 0.870833 5.13322 2.6125 3.24989C4.35417 1.36655 6.49167 0.299888 9.025 0.0498879C9.29167 0.0165545 9.52083 0.0957212 9.7125 0.287388C9.90417 0.479055 10 0.716555 10 0.999888C10 1.26655 9.9125 1.49989 9.7375 1.69989C9.5625 1.89989 9.34167 2.01655 9.075 2.04989C7.05833 2.28322 5.375 3.14989 4.025 4.64989C2.675 6.14989 2 7.93322 2 9.99989C2 12.0832 2.675 13.8707 4.025 15.3624C5.375 16.8541 7.05833 17.7166 9.075 17.9499C9.34167 17.9832 9.5625 18.0999 9.7375 18.2999C9.9125 18.4999 10 18.7332 10 18.9999C10 19.2832 9.90417 19.5207 9.7125 19.7124C9.52083 19.9041 9.29167 19.9832 9.025 19.9499C6.475 19.6999 4.33333 18.6332 2.6 16.7499C0.866667 14.8666 0 12.6166 0 9.99989Z" fill="currentColor"/>
</svg>
