<svg width="24" height="24" viewBox="0 0 24 24" fill="none" xmlns="http://www.w3.org/2000/svg">
<path d="M14.6918 17.5481L9.29755 14.6146C8.77976 15.1271 8.12139 15.4752 7.40544 15.6152C6.68949 15.7551 5.94801 15.6806 5.27449 15.4009C4.60096 15.1213 4.02554 14.6491 3.62077 14.0439C3.216 13.4386 3 12.7275 3 12C3 11.2725 3.216 10.5614 3.62077 9.95612C4.02554 9.35089 4.60096 8.87869 5.27449 8.59906C5.94801 8.31943 6.68949 8.24489 7.40544 8.38483C8.12139 8.52477 8.77976 8.87294 9.29755 9.38543L14.6918 6.45193C14.5068 5.58644 14.6404 4.68347 15.0682 3.90815C15.496 3.13282 16.1894 2.53695 17.0217 2.22949C17.8539 1.92204 18.7693 1.92356 19.6005 2.23376C20.4316 2.54396 21.1231 3.14213 21.5483 3.91886C21.9735 4.6956 22.1041 5.59901 21.9163 6.46388C21.7284 7.32875 21.2345 8.09729 20.5251 8.62895C19.8156 9.16061 18.9379 9.41987 18.0525 9.35932C17.1671 9.29877 16.3331 8.92245 15.7031 8.29918L10.3088 11.2327C10.4167 11.7382 10.4167 12.2607 10.3088 12.7663L15.7031 15.7008C16.3331 15.0776 17.1671 14.7012 18.0525 14.6407C18.9379 14.5801 19.8156 14.8394 20.5251 15.3711C21.2345 15.9027 21.7284 16.6713 21.9163 17.5361C22.1041 18.401 21.9735 19.3044 21.5483 20.0811C21.1231 20.8579 20.4316 21.456 19.6005 21.7662C18.7693 22.0764 17.8539 22.078 17.0217 21.7705C16.1894 21.4631 15.496 20.8672 15.0682 20.0919C14.6404 19.3165 14.5068 18.4136 14.6918 17.5481Z" fill="#7B7B7B"/>
</svg>
