<svg width="16" height="16" viewBox="0 0 16 16" fill="none" xmlns="http://www.w3.org/2000/svg">
<path fill-rule="evenodd" clip-rule="evenodd" d="M2.30005 3.9998C2.30005 3.61321 2.61345 3.2998 3.00005 3.2998H13C13.3866 3.2998 13.7 3.61321 13.7 3.9998C13.7 4.3864 13.3866 4.6998 13 4.6998H3.00005C2.61345 4.6998 2.30005 4.3864 2.30005 3.9998ZM2.30005 7.9998C2.30005 7.6132 2.61345 7.2998 3.00005 7.2998H10.5C10.8866 7.2998 11.2 7.6132 11.2 7.9998C11.2 8.3864 10.8866 8.6998 10.5 8.6998H3.00005C2.61345 8.6998 2.30005 8.3864 2.30005 7.9998ZM2.30005 11.9998C2.30005 11.6132 2.61345 11.2998 3.00005 11.2998H8.00005C8.38665 11.2998 8.70005 11.6132 8.70005 11.9998C8.70005 12.3864 8.38665 12.6998 8.00005 12.6998H3.00005C2.61345 12.6998 2.30005 12.3864 2.30005 11.9998Z" fill="white"/>
</svg>
