<svg width="28" height="28" viewBox="0 0 28 28" fill="none" xmlns="http://www.w3.org/2000/svg">
<path fill-rule="evenodd" clip-rule="evenodd" d="M13.2083 7.22157C13.2093 7.22678 13.2101 7.23439 13.2101 7.24481V20.7554C13.2101 20.766 13.2093 20.7737 13.2083 20.7789L10.3378 17.5445L10.3239 17.5292C10.1445 17.3356 9.92728 17.181 9.68562 17.075C9.44395 16.969 9.18306 16.9139 8.91919 16.9132H5.45375C5.44861 16.9068 5.44202 16.8943 5.44202 16.8733V11.1259C5.44202 11.1057 5.44845 11.0935 5.45362 11.0871H8.92406L8.92751 11.0871C9.18713 11.0862 9.44387 11.0327 9.68225 10.9298C9.92063 10.827 10.1357 10.677 10.3145 10.4887C10.3223 10.4805 10.33 10.4721 10.3375 10.4636L13.2083 7.22157ZM11.8232 5.85756C13.0998 4.52836 15.1521 5.55613 15.1521 7.24481V20.7554C15.1521 22.4578 13.0732 23.4782 11.8058 22.1238C11.8 22.1176 11.7943 22.1113 11.7886 22.1049L8.90444 18.8552H5.44202C4.33356 18.8552 3.5 17.931 3.5 16.8733V11.1259C3.5 10.0686 4.33416 9.14508 5.44202 9.14508H8.91116L11.7966 5.88643C11.8053 5.87663 11.8142 5.867 11.8232 5.85756ZM20.2759 6.53248C20.6463 6.14463 21.2609 6.13044 21.6488 6.50079C25.9176 10.5769 25.9506 17.4432 21.6443 21.5037C21.2542 21.8716 20.6396 21.8535 20.2717 21.4634C19.9038 21.0732 19.9219 20.4586 20.312 20.0907C23.7971 16.8046 23.7836 11.2244 20.3076 7.90533C19.9198 7.53498 19.9056 6.92034 20.2759 6.53248ZM17.4827 9.82468C17.9118 9.50299 18.5204 9.59005 18.8421 10.0191C19.6538 11.1019 20.0069 12.5974 20.0069 14.0001C20.0069 15.4028 19.6538 16.8984 18.8421 17.9811C18.5204 18.4102 17.9118 18.4973 17.4827 18.1756C17.0536 17.8539 16.9666 17.2453 17.2882 16.8162C17.7708 16.1725 18.0649 15.1328 18.0649 14.0001C18.0649 12.8675 17.7708 11.8278 17.2882 11.1841C16.9666 10.755 17.0536 10.1464 17.4827 9.82468Z" fill="currentColor"/>
</svg>
