<svg width="28" height="28" viewBox="0 0 28 28" fill="none" xmlns="http://www.w3.org/2000/svg">
<path fill-rule="evenodd" clip-rule="evenodd" d="M13.1825 7.22157C13.1834 7.22678 13.1842 7.23439 13.1842 7.24481V20.7554C13.1842 20.766 13.1834 20.7737 13.1825 20.7789L10.3119 17.5445L10.298 17.5292C10.1187 17.3356 9.9014 17.181 9.65974 17.075C9.41807 16.969 9.15718 16.9139 8.89331 16.9132H5.42788C5.42273 16.9068 5.41614 16.8943 5.41614 16.8733V11.1259C5.41614 11.1057 5.42257 11.0935 5.42774 11.0871H8.89818L8.90163 11.0871C9.16125 11.0862 9.41799 11.0327 9.65637 10.9298C9.89475 10.827 10.1098 10.677 10.2887 10.4887C10.2965 10.4805 10.3041 10.4721 10.3117 10.4636L13.1825 7.22157ZM11.7974 5.85756C13.0739 4.52836 15.1262 5.55613 15.1262 7.24481V20.7554C15.1262 22.4578 13.0473 23.4782 11.78 22.1238C11.7741 22.1176 11.7684 22.1113 11.7627 22.1049L8.87856 18.8552H5.41614C4.30768 18.8552 3.47412 17.931 3.47412 16.8733V11.1259C3.47412 10.0686 4.30828 9.14508 5.41614 9.14508H8.88528L11.7707 5.88643C11.7794 5.87663 11.7883 5.867 11.7974 5.85756ZM17.3527 10.4005C17.7319 10.0213 18.3467 10.0213 18.7259 10.4005L20.9523 12.6269L23.1787 10.4005C23.5579 10.0213 24.1727 10.0213 24.5519 10.4005C24.9311 10.7797 24.9311 11.3945 24.5519 11.7737L22.3255 14.0001L24.5519 16.2266C24.9311 16.6058 24.9311 17.2206 24.5519 17.5998C24.1727 17.979 23.5579 17.979 23.1787 17.5998L20.9523 15.3733L18.7259 17.5998C18.3467 17.979 17.7319 17.979 17.3527 17.5998C16.9735 17.2206 16.9735 16.6058 17.3527 16.2266L19.5791 14.0001L17.3527 11.7737C16.9735 11.3945 16.9735 10.7797 17.3527 10.4005Z" fill="currentColor"/>
</svg>
