<svg width="42" height="42" viewBox="0 0 42 42" fill="none" xmlns="http://www.w3.org/2000/svg">
<rect width="42" height="42" rx="21" fill="#2AABEE"/>
<path fill-rule="evenodd" clip-rule="evenodd" d="M13.2374 20.4574C18.0692 18.3406 21.2912 16.945 22.9033 16.2707C27.5063 14.3456 28.4627 14.0112 29.0861 14.0001C29.2232 13.9977 29.5298 14.0319 29.7284 14.1939C29.8961 14.3307 29.9422 14.5155 29.9643 14.6452C29.9864 14.775 30.0139 15.0705 29.992 15.3014C29.7426 17.9367 28.6633 24.3322 28.1142 27.2838C27.8818 28.5328 27.4244 28.9516 26.9815 28.9926C26.0189 29.0816 25.288 28.3529 24.3558 27.7384C22.897 26.7769 22.0729 26.1783 20.6569 25.24C19.0205 24.1556 20.0813 23.5596 21.0139 22.5856C21.258 22.3307 25.4988 18.4519 25.5809 18.1C25.5912 18.056 25.6007 17.892 25.5038 17.8053C25.4069 17.7187 25.2639 17.7483 25.1606 17.7719C25.0143 17.8053 22.6839 19.3542 18.1694 22.4185C17.5079 22.8753 16.9087 23.0978 16.3719 23.0862C15.7801 23.0733 14.6417 22.7497 13.7955 22.4731C12.7575 22.1338 11.9325 21.9544 12.0044 21.3782C12.0418 21.0781 12.4528 20.7712 13.2374 20.4574Z" fill="white"/>
</svg>
