<svg width="16" height="16" viewBox="0 0 16 16" fill="currentColor" xmlns="http://www.w3.org/2000/svg">
<path d="M7.99847 14C11.3123 14 13.9985 11.3138 13.9985 7.99998C13.9985 4.68618 11.3123 1.99998 7.99847 1.99998C4.68467 1.99998 1.99848 4.68618 1.99848 7.99998C1.99848 11.3138 4.68467 14 7.99847 14ZM7.99847 12.8C6.72544 12.8 5.50454 12.2943 4.60436 11.3941C3.70419 10.4939 3.19847 9.27302 3.19847 7.99998C3.19847 6.72695 3.70419 5.50605 4.60436 4.60587C5.50454 3.7057 6.72544 3.19998 7.99847 3.19998C9.27151 3.19998 10.4924 3.7057 11.3926 4.60587C12.2928 5.50605 12.7985 6.72695 12.7985 7.99998C12.7985 9.27302 12.2928 10.4939 11.3926 11.3941C10.4924 12.2943 9.27151 12.8 7.99847 12.8ZM7.39847 9.19998H10.9985V7.99998H8.59847V4.99998H7.39847V9.19998Z" fill="currentColor"/>
</svg>