<svg width="12" height="13" viewBox="0 0 12 13" fill="currentColor"
  xmlns="http://www.w3.org/2000/svg">
  <path fill-rule="evenodd" clip-rule="evenodd"
    d="M9.33333 2V1.33333C9.33333 0.596953 8.7364 0 8 0H4C3.26362 0 2.66667 0.596953 2.66667 1.33333V2H0.666667C0.29848 2 0 2.29848 0 2.66667C0 3.03485 0.29848 3.33333 0.666667 3.33333H1.33333V10.6667C1.33333 11.7713 2.22877 12.6667 3.33333 12.6667H8.66667C9.77127 12.6667 10.6667 11.7713 10.6667 10.6667V3.33333H11.3333C11.7015 3.33333 12 3.03485 12 2.66667C12 2.29848 11.7015 2 11.3333 2H9.33333ZM8 1.33333H4V2H8V1.33333ZM9.33333 3.33333H2.66667V10.6667C2.66667 11.0349 2.96515 11.3333 3.33333 11.3333H8.66667C9.03487 11.3333 9.33333 11.0349 9.33333 10.6667V3.33333Z"
    fill="currentColor" />
</svg>