<svg width="24" height="24" viewBox="0 0 24 24" fill="currentColor" xmlns="http://www.w3.org/2000/svg">
<path fill-rule="evenodd" clip-rule="evenodd" d="M10 3.70005C9.92048 3.70005 9.84418 3.73166 9.78792 3.78792C9.73166 3.84418 9.70005 3.92048 9.70005 4.00005V6.30005H14.3V4.00005C14.3 3.92048 14.2684 3.84418 14.2122 3.78792C14.1559 3.73166 14.0796 3.70005 14 3.70005H10ZM15.7 6.30005V4.00005C15.7 3.54918 15.5209 3.11678 15.2021 2.79797C14.8833 2.47916 14.4509 2.30005 14 2.30005H10C9.54918 2.30005 9.11678 2.47916 8.79797 2.79797C8.47916 3.11678 8.30005 3.54918 8.30005 4.00005V6.30005H5.00005C4.61345 6.30005 4.30005 6.61345 4.30005 7.00005C4.30005 7.38665 4.61345 7.70005 5.00005 7.70005H5.30005V20C5.30005 20.4509 5.47916 20.8833 5.79797 21.2021C6.11678 21.5209 6.54918 21.7001 7.00005 21.7001H17C17.4509 21.7001 17.8833 21.5209 18.2021 21.2021C18.5209 20.8833 18.7 20.4509 18.7 20V7.70005H19C19.3866 7.70005 19.7 7.38665 19.7 7.00005C19.7 6.61345 19.3866 6.30005 19 6.30005H15.7ZM17.3 7.70005H6.70005V20C6.70005 20.0796 6.73166 20.1559 6.78792 20.2122C6.84418 20.2684 6.92048 20.3 7.00005 20.3H17C17.0796 20.3 17.1559 20.2684 17.2122 20.2122C17.2684 20.1559 17.3 20.0796 17.3 20V7.70005ZM10 9.30005C10.3866 9.30005 10.7 9.61345 10.7 10V18C10.7 18.3866 10.3866 18.7 10 18.7C9.61345 18.7 9.30005 18.3866 9.30005 18V10C9.30005 9.61345 9.61345 9.30005 10 9.30005ZM14 9.30005C14.3866 9.30005 14.7 9.61345 14.7 10V18C14.7 18.3866 14.3866 18.7 14 18.7C13.6134 18.7 13.3 18.3866 13.3 18V10C13.3 9.61345 13.6134 9.30005 14 9.30005Z" fill="#73828C"/>
<path fill-rule="evenodd" clip-rule="evenodd" d="M8.65659 2.65659C9.01291 2.30028 9.49619 2.1001 10.0001 2.1001H14.0001C14.504 2.1001 14.9873 2.30028 15.3436 2.65659C15.6999 3.01291 15.9001 3.49619 15.9001 4.0001V6.1001H19.0001C19.4972 6.1001 19.9001 6.50304 19.9001 7.0001C19.9001 7.49715 19.4972 7.9001 19.0001 7.9001H18.9001V20.0001C18.9001 20.504 18.6999 20.9873 18.3436 21.3436C17.9873 21.6999 17.504 21.9001 17.0001 21.9001H7.0001C6.49619 21.9001 6.01292 21.6999 5.6566 21.3436C5.30028 20.9873 5.1001 20.504 5.1001 20.0001V7.9001H5.0001C4.50304 7.9001 4.1001 7.49715 4.1001 7.0001C4.1001 6.50304 4.50304 6.1001 5.0001 6.1001H8.1001V4.0001C8.1001 3.49619 8.30028 3.01291 8.65659 2.65659ZM10.0001 2.5001C9.60227 2.5001 9.22074 2.65813 8.93944 2.93944C8.65813 3.22074 8.5001 3.60227 8.5001 4.0001V6.3001C8.5001 6.41055 8.41055 6.5001 8.3001 6.5001H5.0001C4.72396 6.5001 4.5001 6.72396 4.5001 7.0001C4.5001 7.27624 4.72396 7.5001 5.0001 7.5001H5.3001C5.41055 7.5001 5.5001 7.58964 5.5001 7.7001V20.0001C5.5001 20.3979 5.65813 20.7795 5.93944 21.0608L5.79802 21.2022L5.93944 21.0608C6.22074 21.3421 6.60227 21.5001 7.0001 21.5001H17.0001C17.3979 21.5001 17.7795 21.3421 18.0608 21.0608C18.3421 20.7795 18.5001 20.3979 18.5001 20.0001V7.7001C18.5001 7.58964 18.5896 7.5001 18.7001 7.5001H19.0001C19.2762 7.5001 19.5001 7.27624 19.5001 7.0001C19.5001 6.72395 19.2762 6.5001 19.0001 6.5001H15.7001C15.5896 6.5001 15.5001 6.41055 15.5001 6.3001V4.0001C15.5001 3.60227 15.3421 3.22074 15.0608 2.93944C14.7795 2.65813 14.3979 2.5001 14.0001 2.5001H10.0001ZM10.0001 3.9001C9.97358 3.9001 9.94814 3.91063 9.92939 3.92939C9.91063 3.94814 9.9001 3.97358 9.9001 4.0001V6.1001H14.1001V4.0001C14.1001 3.97358 14.0896 3.94814 14.0708 3.92939C14.0521 3.91063 14.0266 3.9001 14.0001 3.9001H10.0001ZM9.64654 3.64654C9.74031 3.55278 9.86749 3.5001 10.0001 3.5001H14.0001C14.1327 3.5001 14.2599 3.55278 14.3537 3.64654C14.4474 3.74031 14.5001 3.86749 14.5001 4.0001V6.3001C14.5001 6.41055 14.4106 6.5001 14.3001 6.5001H9.7001C9.58964 6.5001 9.5001 6.41055 9.5001 6.3001V4.0001C9.5001 3.86749 9.55278 3.74031 9.64654 3.64654ZM6.5001 7.7001C6.5001 7.58964 6.58964 7.5001 6.7001 7.5001H17.3001C17.4106 7.5001 17.5001 7.58964 17.5001 7.7001V20.0001C17.5001 20.1327 17.4474 20.2599 17.3537 20.3537C17.2599 20.4474 17.1327 20.5001 17.0001 20.5001H7.0001C6.86749 20.5001 6.74031 20.4474 6.64655 20.3537L6.78797 20.2122L6.64654 20.3537C6.55278 20.2599 6.5001 20.1327 6.5001 20.0001V7.7001ZM6.9001 7.9001V20.0001C6.9001 20.0266 6.91063 20.0521 6.92939 20.0708C6.94814 20.0896 6.97357 20.1001 7.0001 20.1001H17.0001C17.0266 20.1001 17.0521 20.0896 17.0708 20.0708C17.0896 20.0521 17.1001 20.0266 17.1001 20.0001V7.9001H6.9001ZM9.1001 10.0001C9.1001 9.50304 9.50304 9.1001 10.0001 9.1001C10.4972 9.1001 10.9001 9.50304 10.9001 10.0001V18.0001C10.9001 18.4972 10.4972 18.9001 10.0001 18.9001C9.50304 18.9001 9.1001 18.4972 9.1001 18.0001V10.0001ZM10.5001 10.0001C10.5001 9.72395 10.2762 9.5001 10.0001 9.5001C9.72395 9.5001 9.5001 9.72395 9.5001 10.0001V18.0001C9.5001 18.2762 9.72395 18.5001 10.0001 18.5001C10.2762 18.5001 10.5001 18.2762 10.5001 18.0001V10.0001ZM13.1001 10.0001C13.1001 9.50304 13.503 9.1001 14.0001 9.1001C14.4972 9.1001 14.9001 9.50304 14.9001 10.0001V18.0001C14.9001 18.4972 14.4972 18.9001 14.0001 18.9001C13.503 18.9001 13.1001 18.4972 13.1001 18.0001V10.0001ZM14.0001 9.5001C13.724 9.5001 13.5001 9.72395 13.5001 10.0001V18.0001C13.5001 18.2762 13.724 18.5001 14.0001 18.5001C14.2762 18.5001 14.5001 18.2762 14.5001 18.0001V10.0001C14.5001 9.72395 14.2762 9.5001 14.0001 9.5001Z" fill="currentColor"/>
</svg>
