<svg width="24" height="25" viewBox="0 0 24 25" fill="none" xmlns="http://www.w3.org/2000/svg">
<path d="M5 7.5H19M10 10.5V18.5M14 10.5V18.5M10 3.5H14C14.2652 3.5 14.5196 3.60536 14.7071 3.79289C14.8946 3.98043 15 4.23478 15 4.5V7.5H9V4.5C9 4.23478 9.10536 3.98043 9.29289 3.79289C9.48043 3.60536 9.73478 3.5 10 3.5ZM6 7.5H18V20.5C18 20.7652 17.8946 21.0196 17.7071 21.2071C17.5196 21.3946 17.2652 21.5 17 21.5H7C6.73478 21.5 6.48043 21.3946 6.29289 21.2071C6.10536 21.0196 6 20.7652 6 20.5V7.5Z" stroke="white" stroke-width="1.4" stroke-linecap="round" stroke-linejoin="round"/>
</svg>
