
<svg width="12" height="14" viewBox="0 0 12 14" fill="currentColor" xmlns="http://www.w3.org/2000/svg">
<path d="M5.3 7.49366L4.36667 6.56033C4.23333 6.42699 4.07778 6.36033 3.9 6.36033C3.72222 6.36033 3.56667 6.42699 3.43333 6.56033C3.3 6.69366 3.23333 6.85199 3.23333 7.03533C3.23333 7.21866 3.3 7.37699 3.43333 7.51033L4.83333 8.92699C4.96667 9.06033 5.12222 9.12699 5.3 9.12699C5.47778 9.12699 5.63333 9.06033 5.76667 8.92699L8.6 6.09366C8.73334 5.96033 8.8 5.80199 8.8 5.61866C8.8 5.43533 8.73334 5.27699 8.6 5.14366C8.46667 5.01033 8.30833 4.94366 8.125 4.94366C7.94167 4.94366 7.78334 5.01033 7.65 5.14366L5.3 7.49366ZM6 13.627C5.92222 13.627 5.85 13.6214 5.78333 13.6103C5.71667 13.5992 5.65 13.5825 5.58333 13.5603C4.08333 13.0603 2.88889 12.1353 2 10.7853C1.11111 9.43533 0.666668 7.98255 0.666668 6.42699V3.27699C0.666668 2.99922 0.747223 2.74922 0.908335 2.52699C1.06945 2.30477 1.27778 2.14366 1.53333 2.04366L5.53333 0.54366C5.68889 0.488105 5.84445 0.460327 6 0.460327C6.15556 0.460327 6.31111 0.488105 6.46667 0.54366L10.4667 2.04366C10.7222 2.14366 10.9306 2.30477 11.0917 2.52699C11.2528 2.74922 11.3333 2.99922 11.3333 3.27699V6.42699C11.3333 7.98255 10.8889 9.43533 10 10.7853C9.11111 12.1353 7.91667 13.0603 6.41667 13.5603C6.35 13.5825 6.28333 13.5992 6.21667 13.6103C6.15 13.6214 6.07778 13.627 6 13.627ZM6 12.2937C7.15556 11.927 8.11111 11.1937 8.86667 10.0937C9.62222 8.99366 10 7.77144 10 6.42699V3.27699L6 1.77699L2 3.27699V6.42699C2 7.77144 2.37778 8.99366 3.13333 10.0937C3.88889 11.1937 4.84445 11.927 6 12.2937Z" fill="currentColor"/>
</svg>
