<svg width="64" height="64" viewBox="0 0 64 64" fill="currentColor" xmlns="http://www.w3.org/2000/svg">
<path d="M31.4965 30.4833C32.2087 30.4833 32.5818 29.8 32.5818 29.05V29.0167C32.5818 28.2333 32.1409 27.55 31.4625 27.55C30.7503 27.55 30.3772 28.2167 30.3772 28.9833V29.0167C30.3772 29.8 30.8181 30.4833 31.4965 30.4833Z" fill="#73828C"/>
<path d="M38.7888 36.45C39.5011 36.45 39.8742 35.7667 39.8742 35.0167V34.9833C39.8742 34.2 39.4333 33.5167 38.7549 33.5167C38.0427 33.5167 37.6696 34.1833 37.6696 34.95V34.9833C37.6696 35.7667 38.1105 36.45 38.7888 36.45Z" fill="#73828C"/>
<path fill-rule="evenodd" clip-rule="evenodd" d="M19.2807 22C17.4075 22 15.8889 23.4924 15.8889 25.3333V28.6667C17.7622 28.6667 19.2807 30.1591 19.2807 32C19.2807 33.8409 17.7622 35.3333 15.8889 35.3333V38.6667C15.8889 40.5076 17.4075 42 19.2807 42H44.7193C46.5926 42 48.1111 40.5076 48.1111 38.6667V35.3333C46.2379 35.3333 44.7193 33.8409 44.7193 32C44.7193 30.1591 46.2379 28.6667 48.1111 28.6667V25.3333C48.1111 23.4924 46.5926 22 44.7193 22H19.2807ZM31.4625 32C29.7497 32 28.5965 30.6833 28.5965 29.05V29.0167C28.5965 27.3667 29.7666 26.0333 31.4965 26.0333C33.2093 26.0333 34.3625 27.35 34.3625 28.9833V29.0167C34.3625 30.65 33.1924 32 31.4625 32ZM30.4959 37.15C30.4959 36.9333 30.5807 36.7667 30.6824 36.6167L38.2631 26.4167C38.4157 26.2 38.6871 26.0667 38.9584 26.0667C39.3994 26.0667 39.7555 26.4167 39.7555 26.85C39.7555 27.0667 39.6877 27.2333 39.569 27.3833L31.9883 37.5833C31.8356 37.8 31.5643 37.9333 31.2929 37.9333C30.852 37.9333 30.4959 37.5833 30.4959 37.15ZM38.7549 37.9666C37.0421 37.9666 35.8889 36.65 35.8889 35.0167V34.9833C35.8889 33.3333 37.059 32 38.7888 32C40.5017 32 41.6549 33.3167 41.6549 34.95V34.9833C41.6549 36.6167 40.4847 37.9666 38.7549 37.9666ZM24.5848 25.3333C24.5848 24.8731 24.2052 24.5 23.7369 24.5C23.2686 24.5 22.8889 24.8731 22.8889 25.3333V26.0741C22.8889 26.5343 23.2686 26.9074 23.7369 26.9074C24.2052 26.9074 24.5848 26.5343 24.5848 26.0741V25.3333ZM24.5848 29.037C24.5848 28.5768 24.2052 28.2037 23.7369 28.2037C23.2686 28.2037 22.8889 28.5768 22.8889 29.037V30.5185C22.8889 30.9788 23.2686 31.3519 23.7369 31.3519C24.2052 31.3519 24.5848 30.9788 24.5848 30.5185V29.037ZM23.7369 32.6481C24.2052 32.6481 24.5848 33.0212 24.5848 33.4815V34.963C24.5848 35.4232 24.2052 35.7963 23.7369 35.7963C23.2686 35.7963 22.8889 35.4232 22.8889 34.963V33.4815C22.8889 33.0212 23.2686 32.6481 23.7369 32.6481ZM24.5848 37.9259C24.5848 37.4657 24.2052 37.0926 23.7369 37.0926C23.2686 37.0926 22.8889 37.4657 22.8889 37.9259V38.6667C22.8889 39.1269 23.2686 39.5 23.7369 39.5C24.2052 39.5 24.5848 39.1269 24.5848 38.6667V37.9259Z" fill="currentColor"/>
</svg>
