<svg width="42" height="42" viewBox="0 0 42 42" fill="none" xmlns="http://www.w3.org/2000/svg">
<rect width="42" height="42" rx="21" fill="#25D366"/>
<path d="M12 30L13.2713 25.3778C12.4868 24.0247 12.0746 22.491 12.0754 20.9183C12.0776 16.0012 16.098 12 21.0377 12C23.4348 12.0008 25.685 12.93 27.3775 14.616C29.0693 16.302 30.0008 18.543 30 20.9265C29.9977 25.8443 25.9774 29.8455 21.0377 29.8455C19.5381 29.8448 18.0603 29.4705 16.7513 28.7595L12 30ZM16.9714 27.1448C18.2344 27.891 19.4401 28.338 21.0347 28.3387C25.1402 28.3387 28.4846 25.0133 28.4868 20.925C28.4883 16.8285 25.1598 13.5075 21.0407 13.506C16.9322 13.506 13.5901 16.8315 13.5885 20.919C13.5878 22.5878 14.0791 23.8372 14.9043 25.1445L14.1515 27.8805L16.9714 27.1448ZM25.5524 23.0468C25.4966 22.9537 25.3474 22.8982 25.1228 22.7865C24.899 22.6748 23.798 22.1355 23.5923 22.0612C23.3873 21.987 23.2381 21.9495 23.0882 22.173C22.939 22.3958 22.5094 22.8982 22.379 23.0468C22.2487 23.1953 22.1176 23.214 21.8937 23.1023C21.6699 22.9905 20.948 22.7557 20.0927 21.996C19.4273 21.405 18.9774 20.6753 18.847 20.4517C18.7167 20.229 18.8335 20.1082 18.945 19.9973C19.046 19.8975 19.1688 19.737 19.2811 19.6065C19.3949 19.4775 19.4318 19.3845 19.5072 19.2353C19.5818 19.0868 19.5448 18.9563 19.4883 18.8445C19.4318 18.7335 18.9842 17.6363 18.798 17.19C18.6157 16.7558 18.431 16.8142 18.2939 16.8075L17.8644 16.8C17.7151 16.8 17.4725 16.8555 17.2675 17.079C17.0625 17.3025 16.4838 17.841 16.4838 18.9383C16.4838 20.0355 17.2864 21.0953 17.3979 21.2437C17.5102 21.3923 18.9766 23.6438 21.2231 24.609C21.7573 24.8385 22.1748 24.9757 22.4996 25.0785C23.0362 25.248 23.5245 25.224 23.9103 25.167C24.3406 25.1032 25.2351 24.6277 25.422 24.1073C25.6089 23.586 25.6089 23.1398 25.5524 23.0468Z" fill="white"/>
</svg>
