<svg width="24" height="25" viewBox="0 0 24 25" fill="currentColor" xmlns="http://www.w3.org/2000/svg">
<path fill-rule="currentColor" clip-rule="currentColor" d="M18.2546 6.62999C17.8017 6.44467 17.3163 6.35141 16.827 6.35566C16.3376 6.35992 15.8539 6.46159 15.4043 6.65476C14.9546 6.84792 14.5479 7.12871 14.2079 7.48073L14.194 7.49488L12.7876 8.90008C12.3525 9.33479 11.6475 9.33479 11.2124 8.90008L9.80602 7.49488C9.11485 6.80391 8.17732 6.41553 7.2 6.41553C6.2228 6.41553 5.28559 6.80361 4.59444 7.49442C3.90363 8.18557 3.51531 9.12302 3.51531 10.1002C3.51531 11.0775 3.90345 12.0148 4.59438 12.706C4.59436 12.7059 4.5944 12.706 4.59438 12.706L12 20.1127L19.4056 12.706L19.4195 12.6923C19.7715 12.3523 20.0523 11.9456 20.2455 11.496C20.4386 11.0463 20.5403 10.5627 20.5446 10.0733C20.5488 9.58388 20.4556 9.09854 20.2702 8.64559C20.0849 8.19262 19.8112 7.78111 19.4652 7.43505C19.1191 7.08898 18.7076 6.81531 18.2546 6.62999ZM16.8076 4.12718C17.5929 4.12035 18.3717 4.26999 19.0985 4.56737C19.8254 4.86474 20.4857 5.3039 21.041 5.85921C21.5963 6.41452 22.0355 7.07486 22.3329 7.8017C22.6302 8.52855 22.7799 9.30734 22.773 10.0926C22.7662 10.8779 22.6031 11.654 22.2931 12.3756C21.9845 13.094 21.5365 13.7441 20.975 14.2882L12.788 22.4765C12.579 22.6855 12.2956 22.8029 12 22.8029C11.7044 22.8029 11.421 22.6855 11.212 22.4765L3.01843 14.2817C1.90967 13.1726 1.28674 11.6685 1.28674 10.1002C1.28674 8.53197 1.90961 7.02792 3.01837 5.91882C4.12746 4.81006 5.63175 4.18696 7.2 4.18696C8.76816 4.18696 10.2721 4.80975 11.3812 5.91837C11.3811 5.91829 11.3813 5.91844 11.3812 5.91837L12 6.53666L12.6122 5.92502C13.1563 5.36366 13.8063 4.91571 14.5247 4.60711C15.2462 4.29715 16.0223 4.134 16.8076 4.12718Z" fill="currentColor"/>
</svg>
