<svg width="412" height="104" viewBox="0 0 412 104" fill="none" xmlns="http://www.w3.org/2000/svg">
<path d="M62.8537 37.3773V60.0637L47.0038 53.5906V48.4702L36.884 44.3334L26.7643 48.4702V52.8441L51.9717 63.1465V74.7311L36.884 80.8968L21.7877 74.7311V63.7349L26.7643 65.7638V71.3848L36.884 75.5128L43.762 72.7023L46.995 71.3848H47.0038V66.4928L21.7877 56.1904V45.1151L36.884 38.9495L51.9717 45.1151V50.2356L57.8771 52.6509V40.7236L40.2573 33.5304L44.13 29.7274L62.8537 37.3773Z" fill="white"/>
<path d="M57.8771 65.553L62.8538 67.5818V82.8905L36.8841 93.5003L10.9057 82.8905V37.3773L29.6294 29.7274L33.5021 33.5304L15.8823 40.7236V79.5354L36.8841 88.1163L57.8771 79.5354V65.553Z" fill="white"/>
<path d="M42.1323 10.9058H31.6271L21.3671 19.03L23.5313 21.1467L25.9057 19.2671L32.6785 13.9095H41.0984L47.8712 19.2671L50.2456 21.1467L52.4098 19.03L42.1323 10.9058ZM36.8753 30.035L27.2462 20.5933L24.8718 22.4729L36.8753 34.242L48.8876 22.4729L46.5132 20.5933L36.8841 30.035H36.8753Z" fill="#FF47A1"/>
<path d="M40.4414 15.7892H36.8754H33.3181L28.727 19.4253L36.8754 27.409L45.0237 19.4253L40.4414 15.7892Z" fill="#FF47A1"/>
<path d="M109.065 65.2326C108.049 63.8614 106.758 62.7569 105.203 61.9063C103.648 61.0684 101.616 60.1416 99.121 59.1514C96.6758 58.2119 94.8701 57.4628 93.6914 56.8661C92.5127 56.2821 91.6224 55.6093 91.0205 54.8602C90.4186 54.1112 90.1176 53.1463 90.1176 51.9656C90.1176 50.2517 90.707 48.9313 91.9108 48.0173C93.1146 47.1032 94.8074 46.6461 97.0018 46.6461C99.5724 46.6461 101.604 47.2682 103.058 48.4997C104.526 49.7312 105.253 51.2673 105.253 53.1336V53.9334C105.253 54.3016 105.428 54.4794 105.792 54.4794H109.755C110.106 54.4794 110.281 54.3016 110.281 53.9334V52.867C110.281 50.7595 109.742 48.8933 108.664 47.2936C107.585 45.6812 106.068 44.4371 104.087 43.5357C102.118 42.647 99.8232 42.2026 97.2025 42.2026C93.5033 42.2026 90.5565 43.0786 88.3997 44.8306C86.2304 46.5826 85.1395 48.9821 85.1395 52.0545C85.1395 54.0985 85.6285 55.787 86.6191 57.12C87.6097 58.4531 88.8512 59.5322 90.3434 60.3574C91.8356 61.1827 93.8795 62.0841 96.4626 63.087C98.795 64.0138 100.563 64.8136 101.779 65.4738C102.996 66.134 103.924 66.8576 104.563 67.6448C105.203 68.4192 105.516 69.3714 105.516 70.4759C105.516 72.1517 104.902 73.5102 103.66 74.5512C102.419 75.5922 100.588 76.1001 98.1555 76.1001C95.4344 76.1001 93.3027 75.5161 91.7478 74.3354C90.1929 73.1547 89.4154 71.6566 89.4154 69.8284V68.5462C89.4154 68.1907 89.2399 68.0129 88.8888 68.0129H85.0266C84.6755 68.0129 84.4999 68.1907 84.4999 68.5462V70.095C84.4999 72.2025 85.0391 74.0434 86.1175 75.6049C87.1959 77.1792 88.7258 78.398 90.7195 79.2486C92.7133 80.1119 95.0707 80.5436 97.7793 80.5436C101.779 80.5436 104.902 79.6295 107.171 77.7759C109.441 75.935 110.582 73.4467 110.582 70.2982C110.582 68.2542 110.068 66.5529 109.052 65.1818L109.065 65.2326Z" fill="white"/>
<path d="M154.796 79.5029L147.122 63.4302C147.047 63.3286 147.085 63.2397 147.235 63.1635C149.53 62.5541 151.31 61.3861 152.615 59.6468C153.906 57.9202 154.533 55.8001 154.533 53.299C154.533 51.1915 154.094 49.3253 153.216 47.7256C152.339 46.1133 151.085 44.8564 149.492 43.9677C147.887 43.079 146.019 42.6346 143.912 42.6346H129.68C129.316 42.6346 129.141 42.8124 129.141 43.1679V79.6044C129.141 79.9599 129.316 80.1376 129.68 80.1376H133.705C134.056 80.1376 134.232 79.9599 134.232 79.6044V63.7856C134.232 63.646 134.294 63.5825 134.445 63.5825H142.069C142.169 63.5825 142.244 63.6333 142.282 63.7475L149.693 79.7695C149.793 80.0234 149.994 80.1376 150.27 80.1376H154.445C154.721 80.1376 154.872 80.0107 154.872 79.7695C154.872 79.6679 154.859 79.579 154.821 79.5029H154.796ZM134.42 59.5199C134.269 59.5199 134.207 59.4437 134.207 59.3041V47.294C134.207 47.1543 134.269 47.0781 134.42 47.0781H143.248C145.128 47.0781 146.621 47.6494 147.749 48.792C148.878 49.9347 149.442 51.4454 149.442 53.3371C149.442 55.2287 148.878 56.6887 147.749 57.8187C146.621 58.9486 145.128 59.5072 143.248 59.5072H134.42V59.5199Z" fill="white"/>
<path d="M177.769 42.6466H173.744C173.392 42.6466 173.217 42.8243 173.217 43.1798V79.6164C173.217 79.9719 173.392 80.1496 173.744 80.1496H177.769C178.12 80.1496 178.295 79.9719 178.295 79.6164V43.1798C178.295 42.8243 178.12 42.6466 177.769 42.6466Z" fill="white"/>
<path d="M218.836 54.9109L222.861 54.7077C222.999 54.7077 223.124 54.657 223.224 54.5427C223.325 54.4411 223.387 54.3015 223.387 54.1237V54.073C223.387 51.7116 222.848 49.6422 221.77 47.8521C220.691 46.062 219.187 44.6909 217.243 43.7006C215.3 42.723 213.067 42.2152 210.522 42.2152C207.976 42.2152 205.732 42.7357 203.776 43.7387C201.82 44.7543 200.302 46.189 199.211 48.0298C198.133 49.8707 197.606 52.0036 197.606 54.4284V68.3048C197.606 70.7424 198.145 72.8879 199.211 74.7669C200.29 76.6459 201.807 78.0932 203.776 79.0961C205.732 80.1118 207.989 80.6196 210.522 80.6196C213.055 80.6196 215.3 80.1245 217.243 79.1215C219.187 78.1186 220.691 76.722 221.77 74.9193C222.848 73.1165 223.387 71.0344 223.387 68.673C223.387 68.3175 223.212 68.1398 222.861 68.1398L218.836 67.9239C218.485 67.9239 218.309 68.089 218.309 68.4064V68.5079C218.309 70.7932 217.594 72.634 216.19 74.0306C214.773 75.4144 212.892 76.1126 210.522 76.1126C208.152 76.1126 206.271 75.4144 204.829 74.0306C203.4 72.634 202.685 70.7932 202.685 68.5079V54.2507C202.685 51.9655 203.4 50.1246 204.829 48.7281C206.259 47.3443 208.165 46.646 210.522 46.646C212.879 46.646 214.773 47.3443 216.19 48.7281C217.594 50.1246 218.309 51.9655 218.309 54.2507V54.4157C218.309 54.7331 218.485 54.8982 218.836 54.8982V54.9109Z" fill="#FF47A1"/>
<path d="M269.32 79.5656L257.633 43.0783C257.52 42.7863 257.307 42.6466 256.993 42.6466H251.702C251.376 42.6466 251.163 42.7863 251.062 43.0783L239.476 79.5656C239.363 79.9592 239.501 80.1496 239.89 80.1496H244.178C244.492 80.1496 244.705 80.01 244.818 79.718C244.818 79.718 254.46 48.9944 254.498 49.0706L263.928 79.718C264.028 80.01 264.241 80.1496 264.555 80.1496H268.906C269.219 80.1496 269.383 80.0227 269.383 79.7814L269.332 79.5656H269.32Z" fill="#FF47A1"/>
<path d="M313.421 42.6473H309.396C309.032 42.6473 308.857 42.8251 308.857 43.1806L308.907 70.3493C308.907 70.4509 308.869 70.5143 308.807 70.5397C308.731 70.5524 308.681 70.5143 308.644 70.4001L292.129 43.0155C291.953 42.7616 291.74 42.6346 291.49 42.6346H287.577C287.226 42.6346 287.051 42.8124 287.051 43.1679V79.6044C287.051 79.9599 287.226 80.1376 287.577 80.1376H291.602C291.953 80.1376 292.129 79.9599 292.129 79.6044L292.079 52.4357C292.079 52.3341 292.117 52.2707 292.192 52.2453C292.254 52.2326 292.317 52.2707 292.355 52.3849L308.919 79.7695C309.095 80.0234 309.308 80.1376 309.559 80.1376H313.421C313.772 80.1376 313.948 79.9599 313.948 79.6044V43.1679C313.948 42.8124 313.772 42.6346 313.421 42.6346V42.6473Z" fill="#FF47A1"/>
<path d="M355.867 45.5666C353.686 43.6242 350.751 42.6466 347.077 42.6466H334.274C333.923 42.6466 333.748 42.8243 333.748 43.1798V79.6164C333.748 79.9719 333.923 80.1496 334.274 80.1496H347.077C350.751 80.1496 353.686 79.1721 355.867 77.2296C358.062 75.2872 359.153 72.6846 359.153 69.4345V53.3618C359.153 50.1117 358.062 47.5217 355.867 45.5666ZM354.074 68.6854C354.037 70.831 353.41 72.5322 352.193 73.8018C350.977 75.0714 349.334 75.7061 347.29 75.7061H339.039C338.889 75.7061 338.826 75.63 338.826 75.4903V47.3059C338.826 47.1663 338.889 47.0901 339.039 47.0901H347.29C349.372 47.0901 351.027 47.7249 352.244 48.9944C353.46 50.264 354.074 51.9779 354.074 54.1108V68.6854Z" fill="#FF47A1"/>
<path d="M401.561 42.8251C401.474 42.6981 401.336 42.6346 401.16 42.6346H396.771C396.458 42.6346 396.245 42.7616 396.144 43.0155L388.044 58.7201C388.006 58.7962 387.956 58.8216 387.881 58.8216C387.805 58.8216 387.755 58.7962 387.718 58.7201L379.617 43.0155C379.517 42.7616 379.304 42.6346 378.978 42.6346H374.639C374.351 42.6346 374.213 42.7616 374.213 43.0155C374.213 43.1171 374.225 43.2059 374.263 43.2821L385.273 64.23C385.273 64.23 385.323 64.3569 385.323 64.4966V79.5536C385.323 79.9091 385.498 80.0869 385.849 80.0869H389.875C390.226 80.0869 390.414 79.9091 390.414 79.5536V64.4966C390.414 64.3569 390.414 64.2681 390.464 64.23L401.524 43.2821C401.637 43.1044 401.649 42.9393 401.549 42.8251H401.561Z" fill="#FF47A1"/>
</svg>
