<svg width="413" height="104" viewBox="0 0 413 104" fill="none" xmlns="http://www.w3.org/2000/svg">
<path d="M63.3538 37.3773V60.0637L47.5039 53.5906V48.4702L37.3841 44.3334L27.2644 48.4702V52.8441L52.4717 63.1465V74.7311L37.3841 80.8968L22.2877 74.7311V63.7349L27.2644 65.7638V71.3848L37.3841 75.5128L44.262 72.7023L47.4951 71.3848H47.5039V66.4928L22.2877 56.1904V45.1151L37.3841 38.9495L52.4717 45.1151V50.2356L58.3771 52.6509V40.7236L40.7574 33.5304L44.63 29.7274L63.3538 37.3773Z" fill="url(#paint0_linear_1_313)"/>
<path d="M58.3772 65.553L63.3538 67.5818V82.8905L37.3842 93.5003L11.4058 82.8905V37.3773L30.1295 29.7274L34.0022 33.5304L16.3824 40.7236V79.5354L37.3842 88.1163L58.3772 79.5354V65.553Z" fill="url(#paint1_linear_1_313)"/>
<path d="M42.6324 10.9058H32.1271L21.8672 19.03L24.0313 21.1467L26.4057 19.2671L33.1785 13.9095H41.5985L48.3713 19.2671L50.7457 21.1467L52.9098 19.03L42.6324 10.9058ZM37.3754 30.035L27.7463 20.5933L25.3719 22.4729L37.3754 34.242L49.3876 22.4729L47.0132 20.5933L37.3841 30.035H37.3754Z" fill="url(#paint2_linear_1_313)"/>
<path d="M40.9414 15.7892H37.3754H33.8182L29.2271 19.4253L37.3754 27.409L45.5238 19.4253L40.9414 15.7892Z" fill="url(#paint3_linear_1_313)"/>
<path d="M109.565 65.2326C108.549 63.8614 107.258 62.7569 105.703 61.9063C104.148 61.0684 102.116 60.1416 99.6211 59.1514C97.1759 58.2119 95.3702 57.4628 94.1915 56.8661C93.0127 56.2821 92.1224 55.6093 91.5205 54.8602C90.9186 54.1112 90.6177 53.1463 90.6177 51.9656C90.6177 50.2517 91.2071 48.9313 92.4109 48.0173C93.6146 47.1032 95.3075 46.6461 97.5019 46.6461C100.072 46.6461 102.104 47.2682 103.558 48.4997C105.026 49.7312 105.753 51.2673 105.753 53.1336V53.9334C105.753 54.3016 105.928 54.4794 106.292 54.4794H110.255C110.606 54.4794 110.781 54.3016 110.781 53.9334V52.867C110.781 50.7595 110.242 48.8933 109.164 47.2936C108.085 45.6812 106.568 44.4371 104.587 43.5357C102.618 42.647 100.323 42.2026 97.7025 42.2026C94.0034 42.2026 91.0566 43.0786 88.8998 44.8306C86.7305 46.5826 85.6395 48.9821 85.6395 52.0545C85.6395 54.0985 86.1286 55.787 87.1192 57.12C88.1098 58.4531 89.3512 59.5322 90.8434 60.3574C92.3356 61.1827 94.3796 62.0841 96.9627 63.087C99.295 64.0138 101.063 64.8136 102.279 65.4738C103.496 66.134 104.424 66.8576 105.063 67.6448C105.703 68.4192 106.016 69.3714 106.016 70.4759C106.016 72.1517 105.402 73.5102 104.16 74.5512C102.919 75.5922 101.088 76.1001 98.6555 76.1001C95.9344 76.1001 93.8027 75.5161 92.2478 74.3354C90.6929 73.1547 89.9155 71.6566 89.9155 69.8284V68.5462C89.9155 68.1907 89.7399 68.0129 89.3888 68.0129H85.5267C85.1756 68.0129 85 68.1907 85 68.5462V70.095C85 72.2025 85.5392 74.0434 86.6176 75.6049C87.696 77.1792 89.2258 78.398 91.2196 79.2486C93.2134 80.1119 95.5708 80.5436 98.2793 80.5436C102.279 80.5436 105.402 79.6295 107.671 77.7759C109.941 75.935 111.082 73.4467 111.082 70.2982C111.082 68.2542 110.568 66.5529 109.552 65.1818L109.565 65.2326Z" fill="#AAACAE"/>
<path d="M155.296 79.5029L147.622 63.4302C147.547 63.3286 147.585 63.2397 147.735 63.1635C150.03 62.5541 151.81 61.3861 153.115 59.6468C154.406 57.9202 155.033 55.8001 155.033 53.299C155.033 51.1915 154.594 49.3253 153.716 47.7256C152.839 46.1133 151.585 44.8564 149.992 43.9677C148.387 43.079 146.519 42.6346 144.412 42.6346H130.18C129.816 42.6346 129.641 42.8124 129.641 43.1679V79.6044C129.641 79.9599 129.816 80.1376 130.18 80.1376H134.205C134.556 80.1376 134.732 79.9599 134.732 79.6044V63.7856C134.732 63.646 134.794 63.5825 134.945 63.5825H142.569C142.669 63.5825 142.744 63.6333 142.782 63.7475L150.193 79.7695C150.293 80.0234 150.494 80.1376 150.77 80.1376H154.945C155.221 80.1376 155.372 80.0107 155.372 79.7695C155.372 79.6679 155.359 79.579 155.322 79.5029H155.296ZM134.92 59.5199C134.769 59.5199 134.707 59.4437 134.707 59.3041V47.294C134.707 47.1543 134.769 47.0781 134.92 47.0781H143.748C145.629 47.0781 147.121 47.6494 148.249 48.792C149.378 49.9347 149.942 51.4454 149.942 53.3371C149.942 55.2287 149.378 56.6887 148.249 57.8187C147.121 58.9486 145.629 59.5072 143.748 59.5072H134.92V59.5199Z" fill="#AAACAE"/>
<path d="M178.269 42.6466H174.244C173.892 42.6466 173.717 42.8243 173.717 43.1798V79.6164C173.717 79.9719 173.892 80.1496 174.244 80.1496H178.269C178.62 80.1496 178.795 79.9719 178.795 79.6164V43.1798C178.795 42.8243 178.62 42.6466 178.269 42.6466Z" fill="#AAACAE"/>
<path d="M219.336 54.9109L223.361 54.7077C223.499 54.7077 223.624 54.657 223.725 54.5427C223.825 54.4411 223.888 54.3015 223.888 54.1237V54.073C223.888 51.7116 223.348 49.6422 222.27 47.8521C221.192 46.062 219.687 44.6909 217.743 43.7006C215.8 42.723 213.568 42.2152 211.022 42.2152C208.476 42.2152 206.232 42.7357 204.276 43.7387C202.32 44.7543 200.802 46.189 199.711 48.0298C198.633 49.8707 198.106 52.0036 198.106 54.4284V68.3048C198.106 70.7424 198.646 72.8879 199.711 74.7669C200.79 76.6459 202.307 78.0932 204.276 79.0961C206.232 80.1118 208.489 80.6196 211.022 80.6196C213.555 80.6196 215.8 80.1245 217.743 79.1215C219.687 78.1186 221.192 76.722 222.27 74.9193C223.348 73.1165 223.888 71.0344 223.888 68.673C223.888 68.3175 223.712 68.1398 223.361 68.1398L219.336 67.9239C218.985 67.9239 218.809 68.089 218.809 68.4064V68.5079C218.809 70.7932 218.094 72.634 216.69 74.0306C215.273 75.4144 213.392 76.1126 211.022 76.1126C208.652 76.1126 206.771 75.4144 205.329 74.0306C203.9 72.634 203.185 70.7932 203.185 68.5079V54.2507C203.185 51.9655 203.9 50.1246 205.329 48.7281C206.759 47.3443 208.665 46.646 211.022 46.646C213.379 46.646 215.273 47.3443 216.69 48.7281C218.094 50.1246 218.809 51.9655 218.809 54.2507V54.4157C218.809 54.7331 218.985 54.8982 219.336 54.8982V54.9109Z" fill="#FF47A1"/>
<path d="M269.82 79.5656L258.133 43.0783C258.02 42.7863 257.807 42.6466 257.494 42.6466H252.202C251.876 42.6466 251.663 42.7863 251.562 43.0783L239.976 79.5656C239.863 79.9592 240.001 80.1496 240.39 80.1496H244.678C244.992 80.1496 245.205 80.01 245.318 79.718C245.318 79.718 254.961 48.9944 254.998 49.0706L264.428 79.718C264.528 80.01 264.741 80.1496 265.055 80.1496H269.406C269.72 80.1496 269.883 80.0227 269.883 79.7814L269.832 79.5656H269.82Z" fill="#FF47A1"/>
<path d="M313.921 42.6473H309.896C309.532 42.6473 309.357 42.8251 309.357 43.1806L309.407 70.3493C309.407 70.4509 309.369 70.5143 309.307 70.5397C309.231 70.5524 309.181 70.5143 309.144 70.4001L292.629 43.0155C292.454 42.7616 292.24 42.6346 291.99 42.6346H288.077C287.726 42.6346 287.551 42.8124 287.551 43.1679V79.6044C287.551 79.9599 287.726 80.1376 288.077 80.1376H292.103C292.454 80.1376 292.629 79.9599 292.629 79.6044L292.579 52.4357C292.579 52.3341 292.617 52.2707 292.692 52.2453C292.755 52.2326 292.817 52.2707 292.855 52.3849L309.42 79.7695C309.595 80.0234 309.808 80.1376 310.059 80.1376H313.921C314.272 80.1376 314.448 79.9599 314.448 79.6044V43.1679C314.448 42.8124 314.272 42.6346 313.921 42.6346V42.6473Z" fill="#FF47A1"/>
<path d="M356.367 45.5666C354.186 43.6242 351.251 42.6466 347.577 42.6466H334.774C334.423 42.6466 334.248 42.8243 334.248 43.1798V79.6164C334.248 79.9719 334.423 80.1496 334.774 80.1496H347.577C351.251 80.1496 354.186 79.1721 356.367 77.2296C358.562 75.2872 359.653 72.6846 359.653 69.4345V53.3618C359.653 50.1117 358.562 47.5217 356.367 45.5666ZM354.574 68.6854C354.537 70.831 353.91 72.5322 352.693 73.8018C351.477 75.0714 349.834 75.7061 347.79 75.7061H339.539C339.389 75.7061 339.326 75.63 339.326 75.4903V47.3059C339.326 47.1663 339.389 47.0901 339.539 47.0901H347.79C349.872 47.0901 351.527 47.7249 352.744 48.9944C353.96 50.264 354.574 51.9779 354.574 54.1108V68.6854Z" fill="#FF47A1"/>
<path d="M402.061 42.8251C401.974 42.6981 401.836 42.6346 401.66 42.6346H397.271C396.958 42.6346 396.745 42.7616 396.644 43.0155L388.544 58.7201C388.506 58.7962 388.456 58.8216 388.381 58.8216C388.306 58.8216 388.255 58.7962 388.218 58.7201L380.117 43.0155C380.017 42.7616 379.804 42.6346 379.478 42.6346H375.139C374.851 42.6346 374.713 42.7616 374.713 43.0155C374.713 43.1171 374.725 43.2059 374.763 43.2821L385.773 64.23C385.773 64.23 385.823 64.3569 385.823 64.4966V79.5536C385.823 79.9091 385.998 80.0869 386.349 80.0869H390.375C390.726 80.0869 390.914 79.9091 390.914 79.5536V64.4966C390.914 64.3569 390.914 64.2681 390.964 64.23L402.024 43.2821C402.137 43.1044 402.149 42.9393 402.049 42.8251H402.061Z" fill="#FF47A1"/>
<defs>
<linearGradient id="paint0_linear_1_313" x1="42.8164" y1="15.2444" x2="42.8164" y2="115.791" gradientUnits="userSpaceOnUse">
<stop stop-color="#D1D1D1"/>
<stop offset="0.413022" stop-color="#AAACAE"/>
<stop offset="0.949955" stop-color="#676767"/>
</linearGradient>
<linearGradient id="paint1_linear_1_313" x1="37.3754" y1="11.6697" x2="37.3754" y2="132.216" gradientUnits="userSpaceOnUse">
<stop stop-color="#D1D1D1"/>
<stop offset="0.45" stop-color="#AAACAE"/>
<stop offset="0.824063" stop-color="#676767"/>
</linearGradient>
<linearGradient id="paint2_linear_1_313" x1="37.3754" y1="37.8957" x2="37.3754" y2="3.34366" gradientUnits="userSpaceOnUse">
<stop stop-color="#FFBABA"/>
<stop offset="1" stop-color="#FF359D"/>
</linearGradient>
<linearGradient id="paint3_linear_1_313" x1="37.3754" y1="37.8958" x2="37.3754" y2="3.34377" gradientUnits="userSpaceOnUse">
<stop stop-color="#FFBABA"/>
<stop offset="1" stop-color="#FF359D"/>
</linearGradient>
</defs>
</svg>
