<svg width="394" height="83" viewBox="0 0 394 83" fill="none" xmlns="http://www.w3.org/2000/svg">
<path d="M51.9481 26.4716V49.1579L36.0982 42.6849V37.5644L25.9784 33.4277L15.8587 37.5644V41.9383L41.066 52.2407V63.8254L25.9784 69.991L10.882 63.8254V52.8292L15.8587 54.858V60.4791L25.9784 64.6071L32.8563 61.7965L36.0894 60.4791H36.0982V55.587L10.882 45.2846V34.2093L25.9784 28.0437L41.066 34.2093V39.3298L46.9714 41.7451V29.8179L29.3517 22.6247L33.2243 18.8217L51.9481 26.4716Z" fill="white"/>
<path d="M46.9714 54.6472L51.9481 56.6761V71.9847L25.9784 82.5945L0 71.9847V26.4716L18.7237 18.8217L22.5964 22.6247L4.97664 29.8179V68.6297L25.9784 77.2106L46.9714 68.6297V54.6472Z" fill="white"/>
<path d="M31.2267 0H20.7214L10.4615 8.12421L12.6256 10.2409L15 8.36135L21.7728 3.00376H30.1928L36.9656 8.36135L39.34 10.2409L41.5041 8.12421L31.2267 0ZM25.9696 19.1292L16.3405 9.68757L13.9661 11.5671L25.9696 23.3362L37.9819 11.5671L35.6075 9.68757L25.9784 19.1292H25.9696Z" fill="white"/>
<path d="M29.5356 4.88342H25.9696H22.4124L17.8213 8.51956L25.9696 16.5032L34.118 8.51956L29.5356 4.88342Z" fill="white"/>
<path d="M101.448 55.0299C100.432 53.6588 99.1407 52.5543 97.5858 51.7037C96.0309 50.8658 93.9995 49.939 91.5042 48.9487C89.059 48.0092 87.2533 47.2602 86.0746 46.6635C84.8959 46.0795 84.0056 45.4066 83.4037 44.6576C82.8018 43.9085 82.5008 42.9437 82.5008 41.763C82.5008 40.0491 83.0902 38.7287 84.294 37.8146C85.4978 36.9005 87.1906 36.4435 89.385 36.4435C91.9556 36.4435 93.987 37.0656 95.4416 38.2971C96.9087 39.5285 97.636 41.0647 97.636 42.931V43.7308C97.636 44.099 97.8116 44.2767 98.1752 44.2767H102.138C102.489 44.2767 102.664 44.099 102.664 43.7308V42.6644C102.664 40.5569 102.125 38.6906 101.047 37.091C99.9684 35.4786 98.4511 34.2344 96.4698 33.333C94.5011 32.4443 92.2064 32 89.5856 32C85.8865 32 82.9397 32.876 80.7829 34.628C78.6136 36.38 77.5226 38.7795 77.5226 41.8518C77.5226 43.8958 78.0117 45.5844 79.0023 46.9174C79.9929 48.2505 81.2343 49.3296 82.7265 50.1548C84.2187 50.98 86.2627 51.8814 88.8458 52.8844C91.1782 53.8112 92.9462 54.611 94.1626 55.2712C95.3789 55.9313 96.3068 56.655 96.9463 57.4421C97.5858 58.2166 97.8993 59.1687 97.8993 60.2733C97.8993 61.9491 97.2849 63.3075 96.0435 64.3486C94.8021 65.3896 92.9713 65.8974 90.5386 65.8974C87.8176 65.8974 85.6858 65.3134 84.1309 64.1327C82.5761 62.952 81.7986 61.4539 81.7986 59.6258V58.3435C81.7986 57.988 81.6231 57.8103 81.2719 57.8103H77.4098C77.0587 57.8103 76.8831 57.988 76.8831 58.3435V59.8924C76.8831 61.9999 77.4223 63.8407 78.5007 65.4023C79.5791 66.9766 81.1089 68.1953 83.1027 69.046C85.0965 69.9093 87.4539 70.3409 90.1625 70.3409C94.1626 70.3409 97.2849 69.4268 99.5545 67.5733C101.824 65.7324 102.965 63.244 102.965 60.0955C102.965 58.0515 102.451 56.3503 101.435 54.9792L101.448 55.0299Z" fill="white"/>
<path d="M147.18 69.3002L139.505 53.2275C139.43 53.1259 139.468 53.0371 139.618 52.9609C141.913 52.3515 143.694 51.1835 144.998 49.4442C146.289 47.7176 146.916 45.5974 146.916 43.0964C146.916 40.9889 146.477 39.1226 145.6 37.523C144.722 35.9106 143.468 34.6537 141.875 33.7651C140.27 32.8764 138.402 32.432 136.295 32.432H122.063C121.699 32.432 121.524 32.6097 121.524 32.9652V69.4018C121.524 69.7573 121.699 69.935 122.063 69.935H126.088C126.439 69.935 126.615 69.7573 126.615 69.4018V53.583C126.615 53.4433 126.677 53.3799 126.828 53.3799H134.452C134.552 53.3799 134.628 53.4306 134.665 53.5449L142.076 69.5668C142.176 69.8208 142.377 69.935 142.653 69.935H146.828C147.104 69.935 147.255 69.8081 147.255 69.5668C147.255 69.4653 147.242 69.3764 147.205 69.3002H147.18ZM126.803 49.3172C126.652 49.3172 126.59 49.2411 126.59 49.1014V37.0913C126.59 36.9517 126.652 36.8755 126.803 36.8755H135.631C137.512 36.8755 139.004 37.4468 140.132 38.5894C141.261 39.732 141.825 41.2428 141.825 43.1345C141.825 45.0261 141.261 46.4861 140.132 47.616C139.004 48.7459 137.512 49.3046 135.631 49.3046H126.803V49.3172Z" fill="white"/>
<path d="M170.152 32.444H166.127C165.776 32.444 165.6 32.6217 165.6 32.9772V69.4138C165.6 69.7692 165.776 69.947 166.127 69.947H170.152C170.503 69.947 170.679 69.7692 170.679 69.4138V32.9772C170.679 32.6217 170.503 32.444 170.152 32.444Z" fill="white"/>
<path d="M211.219 44.7082L215.244 44.5051C215.382 44.5051 215.507 44.4543 215.608 44.3401C215.708 44.2385 215.771 44.0989 215.771 43.9211V43.8703C215.771 41.5089 215.231 39.4395 214.153 37.6495C213.075 35.8594 211.57 34.4882 209.626 33.498C207.683 32.5204 205.451 32.0126 202.905 32.0126C200.36 32.0126 198.115 32.5331 196.159 33.5361C194.203 34.5517 192.685 35.9863 191.594 37.8272C190.516 39.6681 189.989 41.8009 189.989 44.2258V58.1022C189.989 60.5397 190.529 62.6853 191.594 64.5643C192.673 66.4432 194.19 67.8905 196.159 68.8935C198.115 69.9091 200.372 70.417 202.905 70.417C205.438 70.417 207.683 69.9218 209.626 68.9189C211.57 67.9159 213.075 66.5194 214.153 64.7166C215.231 62.9138 215.771 60.8317 215.771 58.4703C215.771 58.1149 215.595 57.9371 215.244 57.9371L211.219 57.7213C210.868 57.7213 210.692 57.8863 210.692 58.2037V58.3053C210.692 60.5905 209.977 62.4314 208.573 63.8279C207.156 65.2117 205.275 65.91 202.905 65.91C200.535 65.91 198.654 65.2117 197.212 63.8279C195.783 62.4314 195.068 60.5905 195.068 58.3053V44.0481C195.068 41.7629 195.783 39.922 197.212 38.5255C198.642 37.1416 200.548 36.4434 202.905 36.4434C205.263 36.4434 207.156 37.1416 208.573 38.5255C209.977 39.922 210.692 41.7629 210.692 44.0481V44.2131C210.692 44.5305 210.868 44.6955 211.219 44.6955V44.7082Z" fill="white"/>
<path d="M261.703 69.363L250.016 32.8756C249.903 32.5836 249.69 32.444 249.377 32.444H244.085C243.759 32.444 243.546 32.5836 243.445 32.8756L231.859 69.363C231.746 69.7565 231.884 69.947 232.273 69.947H236.561C236.875 69.947 237.088 69.8073 237.201 69.5153C237.201 69.5153 246.844 38.7918 246.881 38.868L256.311 69.5153C256.411 69.8073 256.624 69.947 256.938 69.947H261.289C261.603 69.947 261.766 69.82 261.766 69.5788L261.715 69.363H261.703Z" fill="white"/>
<path d="M305.804 32.4447H301.779C301.416 32.4447 301.24 32.6224 301.24 32.9779L301.29 60.1467C301.29 60.2482 301.253 60.3117 301.19 60.3371C301.115 60.3498 301.064 60.3117 301.027 60.1974L284.512 32.8129C284.337 32.559 284.124 32.432 283.873 32.432H279.96C279.609 32.432 279.434 32.6097 279.434 32.9652V69.4018C279.434 69.7573 279.609 69.935 279.96 69.935H283.986C284.337 69.935 284.512 69.7573 284.512 69.4018L284.462 42.2331C284.462 42.1315 284.5 42.068 284.575 42.0426C284.638 42.0299 284.7 42.068 284.738 42.1823L301.303 69.5668C301.478 69.8208 301.691 69.935 301.942 69.935H305.804C306.155 69.935 306.331 69.7573 306.331 69.4018V32.9652C306.331 32.6097 306.155 32.432 305.804 32.432V32.4447Z" fill="white"/>
<path d="M348.251 35.364C346.069 33.4215 343.134 32.444 339.46 32.444H326.658C326.306 32.444 326.131 32.6217 326.131 32.9772V69.4138C326.131 69.7692 326.306 69.947 326.658 69.947H339.46C343.134 69.947 346.069 68.9694 348.251 67.027C350.445 65.0845 351.536 62.4819 351.536 59.2318V43.1591C351.536 39.909 350.445 37.3191 348.251 35.364ZM346.457 58.4828C346.42 60.6284 345.793 62.3296 344.577 63.5991C343.36 64.8687 341.718 65.5035 339.674 65.5035H331.423C331.272 65.5035 331.209 65.4273 331.209 65.2877V37.1033C331.209 36.9636 331.272 36.8875 331.423 36.8875H339.674C341.755 36.8875 343.41 37.5222 344.627 38.7918C345.843 40.0614 346.457 41.7753 346.457 43.9082V58.4828Z" fill="white"/>
<path d="M393.944 32.6224C393.857 32.4955 393.719 32.432 393.543 32.432H389.154C388.841 32.432 388.628 32.559 388.527 32.8129L380.427 48.5174C380.389 48.5936 380.339 48.619 380.264 48.619C380.189 48.619 380.139 48.5936 380.101 48.5174L372 32.8129C371.9 32.559 371.687 32.432 371.361 32.432H367.022C366.734 32.432 366.596 32.559 366.596 32.8129C366.596 32.9144 366.608 33.0033 366.646 33.0795L377.656 54.0273C377.656 54.0273 377.706 54.1543 377.706 54.294V69.351C377.706 69.7065 377.881 69.8842 378.232 69.8842H382.258C382.609 69.8842 382.797 69.7065 382.797 69.351V54.294C382.797 54.1543 382.797 54.0654 382.847 54.0273L393.907 33.0795C394.02 32.9017 394.032 32.7367 393.932 32.6224H393.944Z" fill="white"/>
</svg>
