<svg width="341" height="341" viewBox="0 0 341 341" fill="none" xmlns="http://www.w3.org/2000/svg">
<path d="M43.6808 276.184C42.716 274.911 41.5054 273.883 40.0309 273.106C38.5655 272.33 36.6359 271.473 34.2785 270.552C31.9666 269.686 30.2645 268.982 29.145 268.431C28.0255 267.881 27.1881 267.267 26.6147 266.572C26.0412 265.877 25.7682 264.984 25.7682 263.892C25.7682 262.303 26.3325 261.085 27.4611 260.236C28.5989 259.397 30.2008 258.973 32.2761 258.973C34.7063 258.973 36.6268 259.541 38.0103 260.688C39.3938 261.825 40.0855 263.26 40.0855 264.984V265.724C40.0855 266.058 40.2494 266.229 40.5952 266.229H44.3452C44.682 266.229 44.8458 266.067 44.8458 265.724V264.731C44.8458 262.781 44.3361 261.049 43.3167 259.568C42.2973 258.079 40.8592 256.924 38.9842 256.094C37.1183 255.272 34.952 254.857 32.4763 254.857C28.9812 254.857 26.196 255.67 24.148 257.294C22.091 258.919 21.0716 261.148 21.0716 263.991C21.0716 265.886 21.5358 267.448 22.4733 268.684C23.4108 269.92 24.5849 270.922 25.9957 271.689C27.4065 272.457 29.3452 273.296 31.7755 274.226C33.9781 275.083 35.662 275.823 36.8088 276.437C37.9648 277.041 38.8386 277.718 39.4393 278.449C40.04 279.171 40.3404 280.056 40.3404 281.076C40.3404 282.628 39.7579 283.883 38.5928 284.848C37.4187 285.814 35.6893 286.292 33.3865 286.292C30.8106 286.292 28.79 285.742 27.3246 284.65C25.8592 283.558 25.1219 282.168 25.1219 280.48V279.289C25.1219 278.955 24.9581 278.792 24.6213 278.792H20.9532C20.6165 278.792 20.4526 278.955 20.4526 279.289V280.733C20.4526 282.682 20.9623 284.388 21.9818 285.841C23.0012 287.294 24.4484 288.422 26.3325 289.217C28.2257 290.011 30.4557 290.417 33.0133 290.417C36.7906 290.417 39.7488 289.569 41.9059 287.854C44.054 286.157 45.1371 283.837 45.1371 280.931C45.1371 279.036 44.6547 277.466 43.6808 276.184Z" fill="#AAACAE"/>
<path d="M86.9424 289.406L79.6791 274.515C79.6063 274.415 79.6427 274.343 79.7883 274.271C81.9546 273.711 83.6475 272.619 84.8672 271.022C86.0868 269.415 86.6876 267.457 86.6876 265.137C86.6876 263.188 86.278 261.455 85.4406 259.975C84.6123 258.486 83.4291 257.321 81.9182 256.5C80.3981 255.679 78.6415 255.264 76.6299 255.264H63.1682C62.8314 255.264 62.6584 255.426 62.6584 255.76V289.524C62.6584 289.858 62.8223 290.02 63.1682 290.02H66.9728C67.3095 290.02 67.4734 289.858 67.4734 289.524V274.876C67.4734 274.749 67.5371 274.686 67.6736 274.686H74.8824C74.9825 274.686 75.0462 274.731 75.0826 274.831L82.0911 289.677C82.1912 289.912 82.3733 290.02 82.6463 290.02H86.5966C86.8605 290.02 86.997 289.912 86.997 289.677C86.997 289.578 86.9788 289.497 86.9424 289.424V289.406ZM67.6645 270.895C67.528 270.895 67.4643 270.823 67.4643 270.697V259.578C67.4643 259.451 67.528 259.379 67.6645 259.379H76.0201C77.795 259.379 79.2149 259.912 80.2798 260.968C81.3447 262.024 81.8817 263.432 81.8817 265.182C81.8817 266.933 81.3447 268.287 80.2798 269.325C79.2149 270.372 77.795 270.895 76.0201 270.895H67.6645Z" fill="#AAACAE"/>
<path d="M108.678 255.255H104.873C104.536 255.255 104.373 255.417 104.373 255.751V289.515C104.373 289.849 104.536 290.011 104.873 290.011H108.678C109.015 290.011 109.178 289.849 109.178 289.515V255.751C109.178 255.417 109.015 255.255 108.678 255.255Z" fill="#AAACAE"/>
<path d="M147.534 266.617L151.339 266.428C151.466 266.428 151.584 266.374 151.684 266.274C151.785 266.175 151.83 266.049 151.83 265.886V265.832C151.83 263.648 151.32 261.726 150.301 260.074C149.281 258.413 147.862 257.141 146.023 256.229C144.184 255.318 142.073 254.857 139.661 254.857C137.249 254.857 135.128 255.336 133.28 256.274C131.423 257.222 129.994 258.549 128.966 260.246C127.956 261.951 127.446 263.937 127.446 266.175V279.036C127.446 281.292 127.956 283.287 128.966 285.02C129.985 286.753 131.423 288.098 133.28 289.036C135.128 289.984 137.258 290.453 139.661 290.453C142.064 290.453 144.184 289.993 146.023 289.063C147.862 288.134 149.291 286.843 150.301 285.164C151.32 283.486 151.83 281.563 151.83 279.379C151.83 279.045 151.666 278.883 151.329 278.883L147.525 278.684C147.188 278.684 147.024 278.829 147.024 279.135V279.235C147.024 281.356 146.351 283.061 145.022 284.352C143.684 285.634 141.9 286.283 139.661 286.283C137.422 286.283 135.638 285.634 134.281 284.352C132.925 283.061 132.252 281.347 132.252 279.235V266.031C132.252 263.91 132.925 262.204 134.281 260.913C135.638 259.632 137.431 258.982 139.661 258.982C141.891 258.982 143.684 259.632 145.022 260.913C146.351 262.204 147.024 263.919 147.024 266.031V266.175C147.024 266.473 147.188 266.617 147.525 266.617H147.534Z" fill="#FF47A1"/>
<path d="M195.292 289.461L184.233 255.652C184.124 255.381 183.924 255.255 183.632 255.255H178.626C178.317 255.255 178.117 255.381 178.026 255.652L167.067 289.461C166.958 289.822 167.094 290.011 167.458 290.011H171.518C171.818 290.011 172.018 289.885 172.118 289.614C172.118 289.614 181.248 261.148 181.275 261.22L190.186 289.614C190.286 289.885 190.486 290.011 190.777 290.011H194.892C195.192 290.011 195.338 289.903 195.338 289.668L195.283 289.47L195.292 289.461Z" fill="#FF47A1"/>
<path d="M237.006 255.255H233.201C232.855 255.255 232.692 255.417 232.692 255.751L232.746 280.923C232.746 281.022 232.71 281.076 232.646 281.094C232.573 281.112 232.528 281.067 232.501 280.968L216.872 255.598C216.709 255.363 216.508 255.255 216.272 255.255H212.567C212.23 255.255 212.067 255.417 212.067 255.751V289.515C212.067 289.849 212.23 290.011 212.567 290.011H216.372C216.709 290.011 216.872 289.849 216.872 289.515L216.818 264.343C216.818 264.244 216.854 264.19 216.927 264.172C216.991 264.154 217.045 264.199 217.073 264.298L232.746 289.668C232.91 289.903 233.11 290.011 233.347 290.011H237.006C237.343 290.011 237.507 289.849 237.507 289.515V255.751C237.507 255.417 237.343 255.255 237.006 255.255Z" fill="#FF47A1"/>
<path d="M277.155 257.962C275.088 256.157 272.312 255.255 268.845 255.255H256.73C256.393 255.255 256.229 255.417 256.229 255.751V289.515C256.229 289.849 256.393 290.011 256.73 290.011H268.845C272.321 290.011 275.088 289.109 277.155 287.304C279.23 285.498 280.258 283.098 280.258 280.074V265.183C280.258 262.168 279.23 259.767 277.155 257.962ZM275.462 279.379C275.425 281.365 274.834 282.944 273.687 284.127C272.531 285.3 270.983 285.887 269.054 285.887H261.254C261.117 285.887 261.053 285.814 261.053 285.688V259.578C261.053 259.452 261.117 259.379 261.254 259.379H269.054C271.02 259.379 272.585 259.966 273.732 261.139C274.888 262.322 275.462 263.901 275.462 265.887V279.388V279.379Z" fill="#FF47A1"/>
<path d="M320.389 255.426C320.307 255.318 320.18 255.255 320.016 255.255H315.856C315.556 255.255 315.356 255.363 315.265 255.598L307.601 270.146C307.564 270.219 307.51 270.246 307.455 270.246C307.382 270.246 307.337 270.219 307.309 270.146L299.646 255.598C299.545 255.363 299.345 255.255 299.045 255.255H294.94C294.667 255.255 294.539 255.363 294.539 255.598C294.539 255.697 294.558 255.778 294.594 255.85L305.007 275.255C305.007 275.255 305.061 275.372 305.061 275.507V289.461C305.061 289.794 305.225 289.957 305.562 289.957H309.366C309.703 289.957 309.876 289.794 309.876 289.461V275.507C309.876 275.381 309.876 275.291 309.922 275.255L320.389 255.85C320.498 255.688 320.507 255.535 320.416 255.426H320.389Z" fill="#FF47A1"/>
<path d="M220.632 101.28V145.227L189.928 132.688V122.769L170.324 114.755L150.721 122.769V131.242L199.552 151.199V173.641L170.324 185.585L141.08 173.641V152.339L150.721 156.27V167.159L170.324 175.155L183.648 169.711L189.911 167.159H189.928V157.682L141.08 137.724V116.269L170.324 104.326L199.552 116.269V126.189L210.991 130.868V107.762L176.859 93.8279L184.361 86.4608L220.632 101.28Z" fill="url(#paint0_linear_1_193)"/>
<path d="M210.992 155.861L220.632 159.791V189.447L170.325 210L120 189.447V101.28L156.271 86.4608L163.773 93.8279L129.641 107.762V182.948L170.325 199.57L210.992 182.948V155.861Z" fill="url(#paint1_linear_1_193)"/>
<path d="M180.491 50H160.141L140.266 65.738L144.458 69.8384L149.057 66.1974L162.178 55.8188H178.489L191.609 66.1974L196.208 69.8384L200.401 65.738L180.491 50ZM170.308 87.0566L151.654 68.7665L147.055 72.4075L170.308 95.2064L193.577 72.4075L188.978 68.7665L170.325 87.0566H170.308Z" fill="url(#paint2_linear_1_193)"/>
<path d="M177.216 59.46H170.308H163.417L154.523 66.5038L170.308 81.9696L186.092 66.5038L177.216 59.46Z" fill="url(#paint3_linear_1_193)"/>
<defs>
<linearGradient id="paint0_linear_1_193" x1="180.848" y1="58.4046" x2="180.848" y2="253.182" gradientUnits="userSpaceOnUse">
<stop stop-color="#D1D1D1"/>
<stop offset="0.413022" stop-color="#AAACAE"/>
<stop offset="0.949955" stop-color="#676767"/>
</linearGradient>
<linearGradient id="paint1_linear_1_193" x1="170.308" y1="51.4799" x2="170.308" y2="285" gradientUnits="userSpaceOnUse">
<stop stop-color="#D1D1D1"/>
<stop offset="0.45" stop-color="#AAACAE"/>
<stop offset="0.824063" stop-color="#676767"/>
</linearGradient>
<linearGradient id="paint2_linear_1_193" x1="170.308" y1="102.284" x2="170.308" y2="35.3509" gradientUnits="userSpaceOnUse">
<stop stop-color="#FFBABA"/>
<stop offset="1" stop-color="#FF359D"/>
</linearGradient>
<linearGradient id="paint3_linear_1_193" x1="170.308" y1="102.284" x2="170.308" y2="35.3511" gradientUnits="userSpaceOnUse">
<stop stop-color="#FFBABA"/>
<stop offset="1" stop-color="#FF359D"/>
</linearGradient>
</defs>
</svg>
