<svg width="393" height="399" viewBox="0 0 393 399" fill="none" xmlns="http://www.w3.org/2000/svg">
<g filter="url(#filter0_ddddd_1_139)">
<path d="M95.6809 276.184C94.7161 274.911 93.5056 273.883 92.031 273.106C90.5656 272.33 88.636 271.473 86.2786 270.552C83.9667 269.686 82.2647 268.982 81.1451 268.431C80.0256 267.881 79.1882 267.267 78.6148 266.572C78.0414 265.877 77.7683 264.984 77.7683 263.892C77.7683 262.303 78.3326 261.085 79.4613 260.236C80.599 259.397 82.2009 258.973 84.2762 258.973C86.7064 258.973 88.6269 259.541 90.0104 260.688C91.3939 261.825 92.0856 263.26 92.0856 264.984V265.724C92.0856 266.058 92.2495 266.229 92.5954 266.229H96.3454C96.6821 266.229 96.846 266.067 96.846 265.724V264.731C96.846 262.781 96.3363 261.049 95.3168 259.568C94.2974 258.079 92.8593 256.924 90.9843 256.094C89.1184 255.272 86.9522 254.857 84.4764 254.857C80.9813 254.857 78.1961 255.67 76.1481 257.294C74.0911 258.919 73.0717 261.148 73.0717 263.991C73.0717 265.886 73.5359 267.448 74.4734 268.684C75.4109 269.92 76.585 270.922 77.9958 271.689C79.4066 272.457 81.3454 273.296 83.7756 274.226C85.9782 275.083 87.6621 275.823 88.8089 276.437C89.9649 277.041 90.8387 277.718 91.4394 278.449C92.0401 279.171 92.3405 280.056 92.3405 281.076C92.3405 282.628 91.758 283.883 90.5929 284.848C89.4188 285.814 87.6894 286.292 85.3866 286.292C82.8108 286.292 80.7901 285.742 79.3247 284.65C77.8593 283.558 77.1221 282.168 77.1221 280.48V279.289C77.1221 278.955 76.9582 278.792 76.6214 278.792H72.9534C72.6166 278.792 72.4528 278.955 72.4528 279.289V280.733C72.4528 282.682 72.9625 284.388 73.9819 285.841C75.0013 287.294 76.4485 288.422 78.3326 289.217C80.2258 290.011 82.4558 290.417 85.0134 290.417C88.7907 290.417 91.7489 289.569 93.906 287.854C96.0541 286.157 97.1372 283.837 97.1372 280.931C97.1372 279.036 96.6548 277.466 95.6809 276.184Z" fill="white"/>
<path d="M138.943 289.406L131.679 274.515C131.606 274.415 131.643 274.343 131.788 274.271C133.955 273.711 135.648 272.619 136.867 271.022C138.087 269.415 138.688 267.457 138.688 265.137C138.688 263.188 138.278 261.455 137.441 259.975C136.612 258.486 135.429 257.321 133.918 256.5C132.398 255.679 130.642 255.264 128.63 255.264H115.168C114.832 255.264 114.659 255.426 114.659 255.76V289.524C114.659 289.858 114.822 290.02 115.168 290.02H118.973C119.31 290.02 119.473 289.858 119.473 289.524V274.876C119.473 274.749 119.537 274.686 119.674 274.686H126.882C126.983 274.686 127.046 274.731 127.083 274.831L134.091 289.677C134.191 289.912 134.373 290.02 134.646 290.02H138.597C138.861 290.02 138.997 289.912 138.997 289.677C138.997 289.578 138.979 289.497 138.943 289.424V289.406ZM119.665 270.895C119.528 270.895 119.464 270.823 119.464 270.697V259.578C119.464 259.451 119.528 259.379 119.665 259.379H128.02C129.795 259.379 131.215 259.912 132.28 260.968C133.345 262.024 133.882 263.432 133.882 265.182C133.882 266.933 133.345 268.287 132.28 269.325C131.215 270.372 129.795 270.895 128.02 270.895H119.665Z" fill="white"/>
<path d="M160.678 255.255H156.873C156.537 255.255 156.373 255.417 156.373 255.751V289.515C156.373 289.849 156.537 290.011 156.873 290.011H160.678C161.015 290.011 161.179 289.849 161.179 289.515V255.751C161.179 255.417 161.015 255.255 160.678 255.255Z" fill="white"/>
<path d="M199.534 266.617L203.339 266.428C203.466 266.428 203.584 266.374 203.685 266.274C203.785 266.175 203.83 266.049 203.83 265.886V265.832C203.83 263.648 203.32 261.726 202.301 260.074C201.282 258.413 199.862 257.141 198.023 256.229C196.185 255.318 194.073 254.857 191.661 254.857C189.249 254.857 187.128 255.336 185.28 256.274C183.424 257.222 181.995 258.549 180.966 260.246C179.956 261.951 179.446 263.937 179.446 266.175V279.036C179.446 281.292 179.956 283.287 180.966 285.02C181.985 286.753 183.424 288.098 185.28 289.036C187.128 289.984 189.258 290.453 191.661 290.453C194.064 290.453 196.185 289.993 198.023 289.063C199.862 288.134 201.291 286.843 202.301 285.164C203.32 283.486 203.83 281.563 203.83 279.379C203.83 279.045 203.666 278.883 203.33 278.883L199.525 278.684C199.188 278.684 199.024 278.829 199.024 279.135V279.235C199.024 281.356 198.351 283.061 197.022 284.352C195.684 285.634 193.9 286.283 191.661 286.283C189.422 286.283 187.638 285.634 186.282 284.352C184.925 283.061 184.252 281.347 184.252 279.235V266.031C184.252 263.91 184.925 262.204 186.282 260.913C187.638 259.632 189.431 258.982 191.661 258.982C193.891 258.982 195.684 259.632 197.022 260.913C198.351 262.204 199.024 263.919 199.024 266.031V266.175C199.024 266.473 199.188 266.617 199.525 266.617H199.534Z" fill="#FF47A1"/>
<path d="M247.292 289.461L236.233 255.652C236.124 255.381 235.924 255.255 235.632 255.255H230.626C230.317 255.255 230.117 255.381 230.026 255.652L219.067 289.461C218.958 289.822 219.094 290.011 219.458 290.011H223.518C223.818 290.011 224.018 289.885 224.119 289.614C224.119 289.614 233.248 261.148 233.275 261.22L242.186 289.614C242.286 289.885 242.486 290.011 242.778 290.011H246.892C247.192 290.011 247.338 289.903 247.338 289.668L247.283 289.47L247.292 289.461Z" fill="#FF47A1"/>
<path d="M289.006 255.255H285.201C284.856 255.255 284.692 255.417 284.692 255.751L284.746 280.923C284.746 281.022 284.71 281.076 284.646 281.094C284.573 281.112 284.528 281.067 284.501 280.968L268.873 255.598C268.709 255.363 268.508 255.255 268.272 255.255H264.567C264.231 255.255 264.067 255.417 264.067 255.751V289.515C264.067 289.849 264.231 290.011 264.567 290.011H268.372C268.709 290.011 268.873 289.849 268.873 289.515L268.818 264.343C268.818 264.244 268.854 264.19 268.927 264.172C268.991 264.154 269.045 264.199 269.073 264.298L284.746 289.668C284.91 289.903 285.11 290.011 285.347 290.011H289.006C289.343 290.011 289.507 289.849 289.507 289.515V255.751C289.507 255.417 289.343 255.255 289.006 255.255Z" fill="#FF47A1"/>
<path d="M329.155 257.962C327.089 256.157 324.313 255.255 320.845 255.255H308.73C308.393 255.255 308.229 255.417 308.229 255.751V289.515C308.229 289.849 308.393 290.011 308.73 290.011H320.845C324.322 290.011 327.089 289.109 329.155 287.304C331.23 285.498 332.259 283.098 332.259 280.074V265.183C332.259 262.168 331.23 259.767 329.155 257.962ZM327.462 279.379C327.425 281.365 326.834 282.944 325.687 284.127C324.531 285.3 322.984 285.887 321.054 285.887H313.254C313.117 285.887 313.054 285.814 313.054 285.688V259.578C313.054 259.452 313.117 259.379 313.254 259.379H321.054C323.02 259.379 324.586 259.966 325.733 261.139C326.888 262.322 327.462 263.901 327.462 265.887V279.388V279.379Z" fill="#FF47A1"/>
<path d="M372.389 255.426C372.307 255.318 372.18 255.255 372.016 255.255H367.856C367.556 255.255 367.356 255.363 367.265 255.598L359.601 270.146C359.564 270.219 359.51 270.246 359.455 270.246C359.382 270.246 359.337 270.219 359.31 270.146L351.646 255.598C351.546 255.363 351.345 255.255 351.045 255.255H346.94C346.667 255.255 346.54 255.363 346.54 255.598C346.54 255.697 346.558 255.778 346.594 255.85L357.007 275.255C357.007 275.255 357.061 275.372 357.061 275.507V289.461C357.061 289.794 357.225 289.957 357.562 289.957H361.367C361.703 289.957 361.876 289.794 361.876 289.461V275.507C361.876 275.381 361.876 275.291 361.922 275.255L372.389 255.85C372.498 255.688 372.507 255.535 372.416 255.426H372.389Z" fill="#FF47A1"/>
<path d="M272.632 101.28V145.227L241.928 132.688V122.769L222.324 114.755L202.721 122.769V131.242L251.552 151.199V173.641L222.324 185.585L193.08 173.641V152.339L202.721 156.27V167.159L222.324 175.155L235.648 169.711L241.911 167.159H241.928V157.682L193.08 137.724V116.269L222.324 104.326L251.552 116.269V126.189L262.992 130.868V107.762L228.859 93.8279L236.361 86.4608L272.632 101.28Z" fill="white"/>
<path d="M262.992 155.861L272.633 159.791V189.447L222.325 210L172 189.447V101.28L208.271 86.4608L215.773 93.8279L181.641 107.762V182.948L222.325 199.57L262.992 182.948V155.861Z" fill="white"/>
<path d="M232.491 50H212.141L192.266 65.738L196.458 69.8384L201.058 66.1974L214.178 55.8188H230.489L243.609 66.1974L248.208 69.8384L252.401 65.738L232.491 50ZM222.308 87.0566L203.654 68.7665L199.055 72.4075L222.308 95.2064L245.578 72.4075L240.978 68.7665L222.325 87.0566H222.308Z" fill="#FF47A1"/>
<path d="M229.216 59.46H222.308H215.417L206.523 66.5038L222.308 81.9696L238.093 66.5038L229.216 59.46Z" fill="#FF47A1"/>
</g>
<defs>
<filter id="filter0_ddddd_1_139" x="-9.91759" y="-3.25876" width="407.168" height="412.6" filterUnits="userSpaceOnUse" color-interpolation-filters="sRGB">
<feFlood flood-opacity="0" result="BackgroundImageFix"/>
<feColorMatrix in="SourceAlpha" type="matrix" values="0 0 0 0 0 0 0 0 0 0 0 0 0 0 0 0 0 0 127 0" result="hardAlpha"/>
<feOffset dx="-2.17255" dy="2.17255"/>
<feGaussianBlur stdDeviation="2.71569"/>
<feColorMatrix type="matrix" values="0 0 0 0 0 0 0 0 0 0 0 0 0 0 0 0 0 0 0.29 0"/>
<feBlend mode="normal" in2="BackgroundImageFix" result="effect1_dropShadow_1_139"/>
<feColorMatrix in="SourceAlpha" type="matrix" values="0 0 0 0 0 0 0 0 0 0 0 0 0 0 0 0 0 0 127 0" result="hardAlpha"/>
<feOffset dx="-6.51765" dy="7.60392"/>
<feGaussianBlur stdDeviation="5.43137"/>
<feColorMatrix type="matrix" values="0 0 0 0 0 0 0 0 0 0 0 0 0 0 0 0 0 0 0.26 0"/>
<feBlend mode="normal" in2="effect1_dropShadow_1_139" result="effect2_dropShadow_1_139"/>
<feColorMatrix in="SourceAlpha" type="matrix" values="0 0 0 0 0 0 0 0 0 0 0 0 0 0 0 0 0 0 127 0" result="hardAlpha"/>
<feOffset dx="-16.2941" dy="17.3804"/>
<feGaussianBlur stdDeviation="7.06078"/>
<feColorMatrix type="matrix" values="0 0 0 0 0 0 0 0 0 0 0 0 0 0 0 0 0 0 0.15 0"/>
<feBlend mode="normal" in2="effect2_dropShadow_1_139" result="effect3_dropShadow_1_139"/>
<feColorMatrix in="SourceAlpha" type="matrix" values="0 0 0 0 0 0 0 0 0 0 0 0 0 0 0 0 0 0 127 0" result="hardAlpha"/>
<feOffset dx="-28.2431" dy="31.502"/>
<feGaussianBlur stdDeviation="8.6902"/>
<feColorMatrix type="matrix" values="0 0 0 0 0 0 0 0 0 0 0 0 0 0 0 0 0 0 0.04 0"/>
<feBlend mode="normal" in2="effect3_dropShadow_1_139" result="effect4_dropShadow_1_139"/>
<feColorMatrix in="SourceAlpha" type="matrix" values="0 0 0 0 0 0 0 0 0 0 0 0 0 0 0 0 0 0 127 0" result="hardAlpha"/>
<feOffset dx="-43.451" dy="49.9686"/>
<feGaussianBlur stdDeviation="9.23333"/>
<feColorMatrix type="matrix" values="0 0 0 0 0 0 0 0 0 0 0 0 0 0 0 0 0 0 0.01 0"/>
<feBlend mode="normal" in2="effect4_dropShadow_1_139" result="effect5_dropShadow_1_139"/>
<feBlend mode="normal" in="SourceGraphic" in2="effect5_dropShadow_1_139" result="shape"/>
</filter>
</defs>
</svg>
