<svg width="320" height="320" viewBox="0 0 320 320" fill="none" xmlns="http://www.w3.org/2000/svg">
<path d="M210.616 91.0198V134.756L179.724 122.274V112.401L160 104.44L140.285 112.401V120.839L189.417 140.695V163.032L160 174.919L130.591 163.032V141.832L140.285 145.74V156.57L160 164.54L173.407 159.115L179.715 156.57H179.724V147.148L130.591 127.301V105.939L160 94.0613L189.417 105.939V115.812L200.922 120.469V97.4819L166.571 83.61L174.135 76.2905L210.616 91.0198Z" fill="white"/>
<path d="M200.922 145.334L210.616 149.26V178.764L160 199.206L109.384 178.764V91.0199L145.865 76.2906L153.428 83.6192L119.078 97.482V172.301L160 188.827L200.922 172.301V145.334Z" fill="white"/>
<path d="M170.23 39.9999H149.751L129.754 55.6678L133.968 59.7472L138.592 56.1281L151.79 45.7942H168.201L181.398 56.1281L186.031 59.7472L190.246 55.6678L170.23 39.9999ZM159.991 76.8772L141.222 58.6823L136.599 62.3014L159.991 84.9819L183.392 62.3014L178.759 58.6823L159.991 76.8772Z" fill="white"/>
<path d="M166.936 49.4226H159.991H153.055L144.108 56.4172L159.991 71.8143L175.874 56.4172L166.936 49.4226Z" fill="white"/>
<path d="M33.2281 265.731C32.2633 264.458 31.0527 263.429 29.5782 262.653C28.1128 261.877 26.1832 261.02 23.8258 260.099C21.5139 259.233 19.8118 258.529 18.6923 257.978C17.5727 257.428 16.7353 256.814 16.1619 256.119C15.5885 255.424 15.3154 254.531 15.3154 253.438C15.3154 251.85 15.8798 250.632 17.0084 249.783C18.1461 248.944 19.7481 248.52 21.8233 248.52C24.2536 248.52 26.1741 249.088 27.5576 250.235C28.9411 251.372 29.6328 252.807 29.6328 254.531V255.271C29.6328 255.605 29.7966 255.776 30.1425 255.776H33.8925C34.2293 255.776 34.3931 255.614 34.3931 255.271V254.278C34.3931 252.328 33.8834 250.596 32.864 249.115C31.8446 247.626 30.4065 246.471 28.5315 245.641C26.6656 244.819 24.4993 244.404 22.0236 244.404C18.5284 244.404 15.7432 245.216 13.6953 246.841C11.6383 248.466 10.6188 250.695 10.6188 253.538C10.6188 255.433 11.083 256.994 12.0205 258.231C12.958 259.467 14.1322 260.469 15.543 261.236C16.9538 262.003 18.8925 262.843 21.3227 263.772C23.5254 264.63 25.2093 265.37 26.3561 265.984C27.512 266.588 28.3858 267.265 28.9866 267.996C29.5873 268.718 29.8877 269.603 29.8877 270.623C29.8877 272.175 29.3051 273.429 28.1401 274.395C26.9659 275.361 25.2366 275.839 22.9338 275.839C20.3579 275.839 18.3373 275.289 16.8719 274.197C15.4065 273.105 14.6692 271.715 14.6692 270.027V268.836C14.6692 268.502 14.5054 268.339 14.1686 268.339H10.5005C10.1637 268.339 9.99991 268.502 9.99991 268.836V270.28C9.99991 272.229 10.5096 273.935 11.529 275.388C12.5485 276.841 13.9957 277.969 15.8798 278.763C17.773 279.558 20.0029 279.964 22.5606 279.964C26.3379 279.964 29.296 279.115 31.4532 277.401C33.6012 275.704 34.6844 273.384 34.6844 270.478C34.6844 268.583 34.202 267.012 33.2281 265.731Z" fill="white"/>
<path d="M76.4897 278.953L69.2264 264.062C69.1536 263.962 69.19 263.89 69.3356 263.818C71.5019 263.258 73.1948 262.166 74.4145 260.569C75.6341 258.962 76.2349 257.004 76.2349 254.684C76.2349 252.735 75.8253 251.002 74.9879 249.522C74.1596 248.033 72.9764 246.868 71.4655 246.047C69.9454 245.226 68.1888 244.811 66.1772 244.811H52.7155C52.3787 244.811 52.2057 244.973 52.2057 245.307V279.071C52.2057 279.404 52.3696 279.567 52.7155 279.567H56.5201C56.8568 279.567 57.0207 279.404 57.0207 279.071V264.423C57.0207 264.296 57.0844 264.233 57.2209 264.233H64.4297C64.5298 264.233 64.5935 264.278 64.6299 264.377L71.6384 279.224C71.7385 279.459 71.9206 279.567 72.1936 279.567H76.1439C76.4078 279.567 76.5443 279.459 76.5443 279.224C76.5443 279.125 76.5261 279.043 76.4897 278.971V278.953ZM57.2118 260.442C57.0753 260.442 57.0116 260.37 57.0116 260.244V249.125C57.0116 248.998 57.0753 248.926 57.2118 248.926H65.5674C67.3423 248.926 68.7622 249.459 69.8271 250.515C70.892 251.571 71.4291 252.978 71.4291 254.729C71.4291 256.48 70.892 257.834 69.8271 258.872C68.7622 259.919 67.3423 260.442 65.5674 260.442H57.2118Z" fill="white"/>
<path d="M98.2251 244.802H94.4205C94.0837 244.802 93.9199 244.964 93.9199 245.298V279.062C93.9199 279.396 94.0837 279.558 94.4205 279.558H98.2251C98.5619 279.558 98.7257 279.396 98.7257 279.062V245.298C98.7257 244.964 98.5619 244.802 98.2251 244.802Z" fill="white"/>
<path d="M137.081 256.164L140.886 255.975C141.013 255.975 141.132 255.921 141.232 255.821C141.332 255.722 141.377 255.596 141.377 255.433V255.379C141.377 253.195 140.868 251.273 139.848 249.621C138.829 247.96 137.409 246.688 135.57 245.776C133.732 244.865 131.62 244.404 129.208 244.404C126.796 244.404 124.675 244.883 122.828 245.821C120.971 246.769 119.542 248.096 118.513 249.792C117.503 251.498 116.993 253.484 116.993 255.722V268.583C116.993 270.839 117.503 272.834 118.513 274.567C119.533 276.3 120.971 277.644 122.828 278.583C124.675 279.531 126.805 280 129.208 280C131.611 280 133.732 279.54 135.57 278.61C137.409 277.681 138.838 276.39 139.848 274.711C140.868 273.033 141.377 271.11 141.377 268.926C141.377 268.592 141.213 268.43 140.877 268.43L137.072 268.231C136.735 268.231 136.571 268.375 136.571 268.682V268.782C136.571 270.903 135.898 272.608 134.569 273.899C133.231 275.181 131.447 275.83 129.208 275.83C126.969 275.83 125.185 275.181 123.829 273.899C122.473 272.608 121.799 270.894 121.799 268.782V255.578C121.799 253.457 122.473 251.751 123.829 250.46C125.185 249.179 126.978 248.529 129.208 248.529C131.438 248.529 133.231 249.179 134.569 250.46C135.898 251.751 136.571 253.466 136.571 255.578V255.722C136.571 256.02 136.735 256.164 137.072 256.164H137.081Z" fill="white"/>
<path d="M184.839 279.007L173.78 245.199C173.671 244.928 173.471 244.802 173.18 244.802H168.174C167.864 244.802 167.664 244.928 167.573 245.199L156.614 279.007C156.505 279.368 156.641 279.558 157.006 279.558H161.065C161.365 279.558 161.566 279.432 161.666 279.161C161.666 279.161 170.795 250.695 170.822 250.767L179.733 279.161C179.833 279.432 180.033 279.558 180.325 279.558H184.439C184.739 279.558 184.885 279.45 184.885 279.215L184.83 279.016L184.839 279.007Z" fill="white"/>
<path d="M226.553 244.802H222.749C222.403 244.802 222.239 244.964 222.239 245.298L222.294 270.47C222.294 270.569 222.257 270.623 222.193 270.641C222.121 270.659 222.075 270.614 222.048 270.515L206.42 245.145C206.256 244.91 206.056 244.802 205.819 244.802H202.115C201.778 244.802 201.614 244.964 201.614 245.298V279.062C201.614 279.396 201.778 279.558 202.115 279.558H205.919C206.256 279.558 206.42 279.396 206.42 279.062L206.365 253.89C206.365 253.791 206.402 253.737 206.474 253.719C206.538 253.701 206.593 253.746 206.62 253.845L222.294 279.215C222.457 279.45 222.658 279.558 222.894 279.558H226.553C226.89 279.558 227.054 279.396 227.054 279.062V245.298C227.054 244.964 226.89 244.802 226.553 244.802Z" fill="white"/>
<path d="M266.702 247.509C264.636 245.704 261.86 244.802 258.392 244.802H246.277C245.94 244.802 245.777 244.964 245.777 245.298V279.062C245.777 279.396 245.94 279.558 246.277 279.558H258.392C261.869 279.558 264.636 278.655 266.702 276.85C268.777 275.045 269.806 272.645 269.806 269.621V254.729C269.806 251.715 268.777 249.314 266.702 247.509ZM265.009 268.926C264.973 270.912 264.381 272.491 263.234 273.673C262.078 274.847 260.531 275.433 258.601 275.433H250.801C250.664 275.433 250.601 275.361 250.601 275.235V249.125C250.601 248.998 250.664 248.926 250.801 248.926H258.601C260.567 248.926 262.133 249.513 263.28 250.686C264.436 251.868 265.009 253.448 265.009 255.433V268.935V268.926Z" fill="white"/>
<path d="M309.936 244.973C309.854 244.865 309.727 244.802 309.563 244.802H305.403C305.103 244.802 304.903 244.91 304.812 245.145L297.148 259.693C297.112 259.766 297.057 259.793 297.002 259.793C296.93 259.793 296.884 259.766 296.857 259.693L289.193 245.145C289.093 244.91 288.893 244.802 288.592 244.802H284.487C284.214 244.802 284.087 244.91 284.087 245.145C284.087 245.244 284.105 245.325 284.141 245.397L294.554 264.802C294.554 264.802 294.609 264.919 294.609 265.054V279.007C294.609 279.341 294.772 279.504 295.109 279.504H298.914C299.251 279.504 299.423 279.341 299.423 279.007V265.054C299.423 264.928 299.423 264.838 299.469 264.802L309.936 245.397C310.045 245.235 310.055 245.081 309.964 244.973H309.936Z" fill="white"/>
</svg>
